SplineFontDB: 3.0
FontName: Alike-Regular
FullName: Alike
FamilyName: Alike
Weight: Book
Copyright: Copyright (c) 2011, Cyreal (www.cyreal.org)\nwith Reserved Font Name "Alike" and "Alike Regular".
Version: 1.000
ItalicAngle: 0
UnderlinePosition: -50
UnderlineWidth: 50
Ascent: 800
Descent: 200
sfntRevision: 0x00010000
LayerCount: 2
Layer: 0 1 "Back"  1
Layer: 1 1 "Fore"  0
XUID: [1021 288 713564382 3133785]
FSType: 0
OS2Version: 3
OS2_WeightWidthSlopeOnly: 0
OS2_UseTypoMetrics: 1
CreationTime: 1313064600
ModificationTime: 1313780845
PfmFamily: 17
TTFWeight: 400
TTFWidth: 5
LineGap: 0
VLineGap: 0
Panose: 2 0 0 0 0 0 0 0 0 0
OS2TypoAscent: 184
OS2TypoAOffset: 1
OS2TypoDescent: -70
OS2TypoDOffset: 1
OS2TypoLinegap: 0
OS2WinAscent: 0
OS2WinAOffset: 1
OS2WinDescent: 0
OS2WinDOffset: 1
HheadAscent: 0
HheadAOffset: 1
HheadDescent: 0
HheadDOffset: 1
OS2SubXSize: 700
OS2SubYSize: 650
OS2SubXOff: 0
OS2SubYOff: 140
OS2SupXSize: 700
OS2SupYSize: 650
OS2SupXOff: 0
OS2SupYOff: 477
OS2StrikeYSize: 50
OS2StrikeYPos: -270
OS2Vendor: 'pyrs'
OS2CodePages: 00000003.00000000
OS2UnicodeRanges: 80000027.00000043.00000000.00000000
Lookup: 258 0 0 "'kern' Horizontal Kerning in Latin lookup 0"  {"'kern' Horizontal Kerning in Latin lookup 0 subtable"  } ['kern' ('DFLT' <'dflt' > 'latn' <'dflt' > ) ]
DEI: 91125
TtTable: prep
PUSHW_1
 511
SCANCTRL
PUSHB_1
 4
SCANTYPE
EndTTInstrs
ShortTable: maxp 16
  1
  0
  225
  171
  14
  0
  0
  2
  0
  1
  1
  0
  64
  0
  0
  0
EndShort

StartChar: .notdef
Encoding: 65536 -1 0
Width: 529
Flags: W
LayerCount: 2
Fore
SplineSet
112 62 m 1,0,-1
 402 62 l 1,1,-1
 402 438 l 1,2,-1
 112 438 l 1,3,-1
 112 62 l 1,0,-1
50 500 m 1,4,-1
 464 500 l 1,5,-1
 464 0 l 1,6,-1
 50 0 l 1,7,-1
 50 500 l 1,4,-1
EndSplineSet
EndChar

StartChar: exclam
Encoding: 33 33 4
Width: 254
Flags: W
LayerCount: 2
Fore
SplineSet
83 87.5 m 128,-1,1
 105 106 105 106 123 106 c 128,-1,2
 141 106 141 106 152 99.5 c 128,-1,3
 163 93 163 93 171 83 c 128,-1,4
 179 73 179 73 183 62 c 128,-1,5
 187 51 187 51 187 41 c 128,-1,6
 187 31 187 31 181 21 c 128,-1,7
 175 11 175 11 165.5 3 c 128,-1,8
 156 -5 156 -5 143.5 -10 c 128,-1,9
 131 -15 131 -15 119 -15 c 0,10,11
 96 -15 96 -15 78.5 6.5 c 128,-1,12
 61 28 61 28 61 48.5 c 128,-1,0
 61 69 61 69 83 87.5 c 128,-1,1
128 717 m 128,-1,14
 170 717 170 717 181 700 c 1,15,-1
 151 170 l 1,16,17
 138 166 138 166 126.5 166 c 128,-1,18
 115 166 115 166 105 170 c 1,19,-1
 74 700 l 1,20,13
 86 717 86 717 128 717 c 128,-1,14
EndSplineSet
EndChar

StartChar: quotedbl
Encoding: 34 34 5
Width: 360
Flags: W
LayerCount: 2
Fore
SplineSet
215 707 m 1,0,1
 227 724 227 724 266 724 c 128,-1,2
 305 724 305 724 315 707 c 1,3,-1
 284 438 l 1,4,-1
 244 438 l 1,5,-1
 215 707 l 1,0,1
46 707 m 1,6,7
 58 724 58 724 97 724 c 128,-1,8
 136 724 136 724 146 707 c 1,9,-1
 115 438 l 1,10,-1
 75 438 l 1,11,-1
 46 707 l 1,6,7
EndSplineSet
EndChar

StartChar: numbersign
Encoding: 35 35 6
Width: 528
Flags: W
LayerCount: 2
Fore
SplineSet
199 261 m 1,0,-1
 277 261 l 1,1,-1
 312 369 l 1,2,-1
 234 369 l 1,3,-1
 199 261 l 1,0,-1
476 415 m 1,4,5
 476 386 476 386 465 369 c 1,6,-1
 364 369 l 1,7,-1
 329 261 l 1,8,-1
 446 261 l 1,9,10
 446 232 446 232 435 215 c 1,11,-1
 315 215 l 1,12,-1
 250 0 l 1,13,14
 228 -4 228 -4 212.5 -4 c 128,-1,15
 197 -4 197 -4 189 0 c 1,16,-1
 262 215 l 1,17,-1
 185 215 l 1,18,-1
 120 0 l 1,19,20
 98 -4 98 -4 82.5 -4 c 128,-1,21
 67 -4 67 -4 59 0 c 1,22,-1
 132 215 l 1,23,-1
 45 215 l 1,24,25
 44 221 44 221 44 233.5 c 128,-1,26
 44 246 44 246 56 261 c 1,27,-1
 147 261 l 1,28,-1
 182 369 l 1,29,-1
 75 369 l 1,30,31
 74 375 74 375 74 387.5 c 128,-1,32
 74 400 74 400 86 415 c 1,33,-1
 197 415 l 1,34,-1
 287 705 l 1,35,36
 308 710 308 710 323.5 710 c 128,-1,37
 339 710 339 710 348 705 c 1,38,-1
 249 415 l 1,39,-1
 327 415 l 1,40,-1
 417 705 l 1,41,42
 438 710 438 710 453.5 710 c 128,-1,43
 469 710 469 710 478 705 c 1,44,-1
 379 415 l 1,45,-1
 476 415 l 1,4,5
EndSplineSet
EndChar

StartChar: dollar
Encoding: 36 36 7
Width: 542
Flags: W
LayerCount: 2
Fore
SplineSet
186.5 634 m 128,-1,1
 152 617 152 617 152 565.5 c 128,-1,2
 152 514 152 514 219 460 c 0,3,4
 243 441 243 441 289 413 c 2,5,-1
 380 356 l 1,6,7
 458 305 458 305 482 251 c 0,8,9
 494 222 494 222 495 182 c 1,10,11
 495 105 495 105 436 57.5 c 128,-1,12
 377 10 377 10 293 1 c 1,13,-1
 302 -84 l 1,14,15
 286 -89 286 -89 267.5 -89 c 128,-1,16
 249 -89 249 -89 228 -84 c 1,17,-1
 234 -1 l 1,18,19
 118 4 118 4 58 33 c 1,20,21
 58 33 58 33 58 46 c 0,22,23
 58 129 58 129 83 198 c 1,24,25
 91 200 91 200 101.5 200 c 128,-1,26
 112 200 112 200 125 193 c 1,27,28
 141 141 141 141 141 89 c 0,29,30
 141 78 141 78 140 67 c 1,31,32
 190 53 190 53 249 53 c 128,-1,33
 308 53 308 53 351 71.5 c 128,-1,34
 394 90 394 90 394 141.5 c 128,-1,35
 394 193 394 193 358 229 c 128,-1,36
 322 265 322 265 243 311 c 0,37,38
 120 383 120 383 90.5 427.5 c 128,-1,39
 61 472 61 472 61 524 c 0,40,41
 61 613 61 613 112 652 c 128,-1,42
 163 691 163 691 249 698 c 1,43,-1
 242 779 l 1,44,45
 263 784 263 784 281.5 784 c 128,-1,46
 300 784 300 784 317 779 c 1,47,-1
 307 698 l 1,48,49
 406 694 406 694 467 665 c 1,50,51
 464 579 464 579 437 509 c 1,52,53
 429 507 429 507 419 507 c 128,-1,54
 409 507 409 507 396 513 c 1,55,56
 384 552 384 552 384 586.5 c 128,-1,57
 384 621 384 621 385 639 c 1,58,59
 331 651 331 651 276 651 c 128,-1,0
 221 651 221 651 186.5 634 c 128,-1,1
EndSplineSet
EndChar

StartChar: percent
Encoding: 37 37 8
Width: 732
Flags: W
LayerCount: 2
Fore
SplineSet
255 0 m 1,0,1
 234 -9 234 -9 216.5 -9 c 128,-1,2
 199 -9 199 -9 188 -7 c 1,3,-1
 478 700 l 1,4,5
 503 708 503 708 519 708 c 128,-1,6
 535 708 535 708 545 706 c 1,7,-1
 255 0 l 1,0,1
544.5 291 m 128,-1,9
 524 291 524 291 508.5 280 c 128,-1,10
 493 269 493 269 482 251 c 0,11,12
 461 214 461 214 461 157 c 128,-1,13
 461 100 461 100 483 59 c 128,-1,14
 505 18 505 18 535 18 c 128,-1,15
 565 18 565 18 580 29.5 c 128,-1,16
 595 41 595 41 605.5 60.5 c 128,-1,17
 616 80 616 80 621.5 105 c 128,-1,18
 627 130 627 130 627 157 c 128,-1,19
 627 184 627 184 621.5 208.5 c 128,-1,20
 616 233 616 233 605.5 251 c 128,-1,21
 595 269 595 269 580 280 c 128,-1,8
 565 291 565 291 544.5 291 c 128,-1,9
653 278.5 m 128,-1,23
 690 229 690 229 690 177 c 0,24,25
 690 85 690 85 650.5 32.5 c 128,-1,26
 611 -20 611 -20 543 -20 c 128,-1,27
 475 -20 475 -20 436 31 c 128,-1,28
 397 82 397 82 397 134 c 0,29,30
 397 223 397 223 437 275.5 c 128,-1,31
 477 328 477 328 546.5 328 c 128,-1,22
 616 328 616 328 653 278.5 c 128,-1,23
188.5 683 m 128,-1,33
 168 683 168 683 152.5 672 c 128,-1,34
 137 661 137 661 126 643 c 0,35,36
 105 606 105 606 105 549 c 128,-1,37
 105 492 105 492 127 451 c 128,-1,38
 149 410 149 410 179 410 c 128,-1,39
 209 410 209 410 224 421.5 c 128,-1,40
 239 433 239 433 249.5 452.5 c 128,-1,41
 260 472 260 472 265.5 497 c 128,-1,42
 271 522 271 522 271 549 c 128,-1,43
 271 576 271 576 265.5 600.5 c 128,-1,44
 260 625 260 625 249.5 643 c 128,-1,45
 239 661 239 661 224 672 c 128,-1,32
 209 683 209 683 188.5 683 c 128,-1,33
297 670.5 m 128,-1,47
 334 621 334 621 334 569 c 0,48,49
 334 477 334 477 294.5 424.5 c 128,-1,50
 255 372 255 372 187 372 c 128,-1,51
 119 372 119 372 80 423 c 128,-1,52
 41 474 41 474 41 526 c 0,53,54
 41 615 41 615 81 667.5 c 128,-1,55
 121 720 121 720 190.5 720 c 128,-1,46
 260 720 260 720 297 670.5 c 128,-1,47
EndSplineSet
EndChar

StartChar: ampersand
Encoding: 38 38 9
Width: 731
Flags: W
LayerCount: 2
Fore
SplineSet
392 557 m 128,-1,1
 392 654 392 654 307 654 c 0,2,3
 276 654 276 654 252 634 c 128,-1,4
 228 614 228 614 228 588 c 0,5,6
 228 544 228 544 241 512.5 c 128,-1,7
 254 481 254 481 317 401 c 1,8,0
 392 460 392 460 392 557 c 128,-1,1
144 194 m 0,9,10
 144 126 144 126 193 88.5 c 128,-1,11
 242 51 242 51 296 51 c 0,12,13
 400 51 400 51 448 117 c 1,14,-1
 326 254 l 1,15,16
 276 312 276 312 242 353 c 1,17,18
 144 305 144 305 144 194 c 0,9,10
485 78 m 1,19,20
 394 -15 394 -15 281 -15 c 2,21,22
 281 -15 281 -15 276 -15 c 0,23,24
 160 -13 160 -13 105 43 c 128,-1,25
 50 99 50 99 50 189.5 c 128,-1,26
 50 280 50 280 148 352 c 0,27,28
 178 374 178 374 216 387 c 1,29,30
 154 468 154 468 150 520 c 0,31,32
 149 531 149 531 149 542 c 2,33,-1
 149 560 l 2,34,35
 149 614 149 614 192.5 657 c 128,-1,36
 236 700 236 700 314 700 c 0,37,38
 420 700 420 700 457 619 c 0,39,40
 468 595 468 595 468 568 c 0,41,42
 468 456 468 456 343 369 c 1,43,-1
 505 186 l 1,44,45
 556 286 556 286 571 347 c 1,46,47
 554 360 554 360 494 367 c 1,48,49
 493 372 493 372 493 381 c 128,-1,50
 493 390 493 390 499 402 c 1,51,52
 567 397 567 397 603.5 397 c 128,-1,53
 640 397 640 397 708 402 c 1,54,55
 709 398 709 398 709 389.5 c 128,-1,56
 709 381 709 381 703 367 c 1,57,58
 639 360 639 360 626 347 c 1,59,60
 604 265 604 265 539 149 c 1,61,-1
 616 67 l 2,62,63
 644 38 644 38 702 32 c 2,64,-1
 725 30 l 1,65,66
 726 25 726 25 726 16 c 128,-1,67
 726 7 726 7 720 -5 c 1,68,69
 650 0 650 0 558 0 c 1,70,-1
 485 78 l 1,19,20
EndSplineSet
EndChar

StartChar: quotesingle
Encoding: 39 39 10
Width: 191
Flags: W
LayerCount: 2
Fore
SplineSet
46 707 m 1,0,1
 58 724 58 724 97 724 c 128,-1,2
 136 724 136 724 146 707 c 1,3,-1
 115 438 l 1,4,-1
 75 438 l 1,5,-1
 46 707 l 1,0,1
EndSplineSet
EndChar

StartChar: parenleft
Encoding: 40 40 11
Width: 284
Flags: W
LayerCount: 2
Fore
SplineSet
88 570.5 m 128,-1,1
 140 713 140 713 245 790 c 1,2,3
 265 788 265 788 274 768 c 1,4,5
 178 668 178 668 138 448 c 0,6,7
 124 372 124 372 124 286 c 0,8,9
 124 125 124 125 170.5 -5.5 c 128,-1,10
 217 -136 217 -136 274 -198 c 1,11,12
 264 -215 264 -215 245 -220 c 1,13,14
 140 -143 140 -143 88 0.5 c 128,-1,15
 36 144 36 144 36 286 c 128,-1,0
 36 428 36 428 88 570.5 c 128,-1,1
EndSplineSet
EndChar

StartChar: parenright
Encoding: 41 41 12
Width: 284
Flags: W
LayerCount: 2
Fore
SplineSet
196 0.5 m 128,-1,1
 144 -143 144 -143 39 -220 c 1,2,3
 20 -215 20 -215 10 -198 c 1,4,5
 106 -94 106 -94 146 122 c 0,6,7
 160 198 160 198 160 286 c 0,8,9
 160 447 160 447 113.5 578 c 128,-1,10
 67 709 67 709 10 768 c 1,11,12
 19 788 19 788 39 790 c 1,13,14
 144 713 144 713 196 570.5 c 128,-1,15
 248 428 248 428 248 286 c 128,-1,0
 248 144 248 144 196 0.5 c 128,-1,1
EndSplineSet
EndChar

StartChar: asterisk
Encoding: 42 42 13
Width: 432
Flags: W
LayerCount: 2
Fore
SplineSet
186 695 m 1,0,1
 195 706 195 706 218.5 706 c 128,-1,2
 242 706 242 706 249 695 c 1,3,-1
 232 553 l 1,4,-1
 347 637 l 1,5,6
 372 632 372 632 380 598 c 0,7,8
 381 593 381 593 381 589 c 128,-1,9
 381 585 381 585 379 582 c 1,10,-1
 248 526 l 1,11,-1
 378 468 l 1,12,13
 380 463 380 463 380 457 c 0,14,15
 380 440 380 440 366 427 c 128,-1,16
 352 414 352 414 346 414 c 1,17,-1
 231 498 l 1,18,-1
 246 358 l 1,19,20
 242 347 242 347 215 347 c 128,-1,21
 188 347 188 347 184 358 c 1,22,-1
 200 499 l 1,23,-1
 85 416 l 1,24,-1
 83 416 l 1,25,26
 73 420 73 420 60 437 c 1,27,-1
 60 438 l 1,28,-1
 59 438 l 1,29,-1
 59 439 l 1,30,-1
 54 450 l 1,31,-1
 54 451 l 2,32,33
 54 452 54 452 53.5 452 c 128,-1,34
 53 452 53 452 53 453 c 2,35,-1
 53 456 l 1,36,-1
 52 459 l 1,37,-1
 52 467 l 1,38,-1
 54 471 l 1,39,-1
 184 527 l 1,40,-1
 55 585 l 1,41,42
 54 588 54 588 54 595 c 128,-1,43
 54 602 54 602 64 620.5 c 128,-1,44
 74 639 74 639 86 639 c 1,45,-1
 201 554 l 1,46,-1
 186 695 l 1,0,1
EndSplineSet
EndChar

StartChar: plus
Encoding: 43 43 14
Width: 485
Flags: W
LayerCount: 2
Fore
SplineSet
208 521 m 1,0,1
 252 521 252 521 274 510 c 1,2,-1
 274 349 l 1,3,-1
 443 349 l 1,4,5
 443 300 443 300 432 285 c 1,6,-1
 274 285 l 1,7,-1
 274 113 l 1,8,9
 265 111 265 111 255 111 c 128,-1,10
 245 111 245 111 228 116 c 128,-1,11
 211 121 211 121 208 124 c 1,12,-1
 208 285 l 1,13,-1
 42 285 l 1,14,15
 41 290 41 290 41 299 c 128,-1,16
 41 308 41 308 45.5 327 c 128,-1,17
 50 346 50 346 53 349 c 1,18,-1
 208 349 l 1,19,-1
 208 521 l 1,0,1
EndSplineSet
EndChar

StartChar: comma
Encoding: 44 44 15
Width: 235
Flags: W
LayerCount: 2
Fore
SplineSet
123 105 m 1,0,1
 193 96 193 96 193 -19 c 0,2,3
 193 -55 193 -55 168.5 -99 c 128,-1,4
 144 -143 144 -143 106 -165 c 1,5,-1
 80 -137 l 1,6,7
 105 -121 105 -121 122.5 -91 c 128,-1,8
 140 -61 140 -61 140 -33 c 0,9,10
 140 -15 140 -15 112 -15 c 2,11,-1
 105 -15 l 2,12,13
 83 -15 83 -15 70 1 c 0,14,15
 47 28 47 28 47 48.5 c 128,-1,16
 47 69 47 69 69 87.5 c 128,-1,17
 91 106 91 106 105 106 c 128,-1,18
 119 106 119 106 121 105 c 1,19,-1
 123 105 l 1,0,1
EndSplineSet
EndChar

StartChar: hyphen
Encoding: 45 45 16
Width: 526
Flags: W
LayerCount: 2
Fore
SplineSet
464 349 m 1,0,1
 464 300 464 300 453 285 c 1,2,-1
 63 285 l 1,3,4
 62 290 62 290 62 298.5 c 128,-1,5
 62 307 62 307 66.5 326.5 c 128,-1,6
 71 346 71 346 74 349 c 1,7,-1
 464 349 l 1,0,1
EndSplineSet
EndChar

StartChar: period
Encoding: 46 46 17
Width: 220
Flags: W
LayerCount: 2
Fore
SplineSet
69 87.5 m 128,-1,1
 91 106 91 106 109 106 c 128,-1,2
 127 106 127 106 138 99.5 c 128,-1,3
 149 93 149 93 157 83 c 128,-1,4
 165 73 165 73 169 62 c 128,-1,5
 173 51 173 51 173 41 c 128,-1,6
 173 31 173 31 167 21 c 128,-1,7
 161 11 161 11 151.5 3 c 128,-1,8
 142 -5 142 -5 129.5 -10 c 128,-1,9
 117 -15 117 -15 105 -15 c 0,10,11
 82 -15 82 -15 64.5 6.5 c 128,-1,12
 47 28 47 28 47 48.5 c 128,-1,0
 47 69 47 69 69 87.5 c 128,-1,1
EndSplineSet
EndChar

StartChar: slash
Encoding: 47 47 18
Width: 466
Flags: W
LayerCount: 2
Fore
SplineSet
370 700 m 1,0,1
 403 708 403 708 417.5 708 c 128,-1,2
 432 708 432 708 437 707 c 1,3,-1
 99 -92 l 1,4,5
 74 -101 74 -101 48 -101 c 1,6,-1
 31 -100 l 1,7,-1
 370 700 l 1,0,1
EndSplineSet
EndChar

StartChar: zero
Encoding: 48 48 19
Width: 610
Flags: W
LayerCount: 2
Fore
SplineSet
447 348 m 0,0,1
 447 673 447 673 305 673 c 0,2,3
 234 673 234 673 198 569.5 c 128,-1,4
 162 466 162 466 162 376 c 0,5,6
 162 218 162 218 198 121.5 c 128,-1,7
 234 25 234 25 302.5 25 c 128,-1,8
 371 25 371 25 409 120 c 128,-1,9
 447 215 447 215 447 348 c 0,0,1
487 618 m 128,-1,11
 557 523 557 523 557 343.5 c 128,-1,12
 557 164 557 164 483 74.5 c 128,-1,13
 409 -15 409 -15 305 -15 c 128,-1,14
 201 -15 201 -15 126.5 71.5 c 128,-1,15
 52 158 52 158 52 331.5 c 128,-1,16
 52 505 52 505 128 609 c 128,-1,17
 204 713 204 713 310.5 713 c 128,-1,10
 417 713 417 713 487 618 c 128,-1,11
EndSplineSet
EndChar

StartChar: one
Encoding: 49 49 20
Width: 360
Flags: W
LayerCount: 2
Fore
SplineSet
138 611 m 1,0,-1
 116 611 l 2,1,2
 70 611 70 611 29 621 c 1,3,4
 28 626 28 626 28 636 c 128,-1,5
 28 646 28 646 34 656 c 1,6,7
 127 674 127 674 198 701 c 1,8,9
 217 700 217 700 238 690 c 1,10,-1
 238 50 l 1,11,12
 249 39 249 39 288 35 c 128,-1,13
 327 31 327 31 336 30 c 1,14,15
 337 25 337 25 337 16 c 128,-1,16
 337 7 337 7 331 -5 c 1,17,18
 261 0 261 0 189 0 c 128,-1,19
 117 0 117 0 47 -5 c 1,20,21
 46 2 46 2 46 11 c 128,-1,22
 46 20 46 20 49 30 c 1,23,24
 58 31 58 31 70 32 c 0,25,26
 122 36 122 36 138 50 c 1,27,-1
 138 611 l 1,0,-1
EndSplineSet
EndChar

StartChar: two
Encoding: 50 50 21
Width: 508
Flags: W
LayerCount: 2
Fore
SplineSet
237 713 m 0,0,1
 376 713 376 713 426 627 c 0,2,3
 446 593 446 593 446 546 c 0,4,5
 446 438 446 438 301 276 c 1,6,-1
 158 126 l 1,7,8
 128 96 128 96 114 78 c 1,9,-1
 117 75 l 1,10,-1
 383 75 l 1,11,12
 391 147 391 147 405 178 c 1,13,14
 412 179 412 179 421 179 c 128,-1,15
 430 179 430 179 441 175 c 1,16,17
 452 126 452 126 452 76.5 c 128,-1,18
 452 27 452 27 451 0 c 1,19,-1
 33 0 l 1,20,-1
 33 55 l 1,21,22
 58 87 58 87 90 124 c 2,23,-1
 156 202 l 2,24,25
 340 421 340 421 340 554 c 0,26,27
 340 660 340 660 222 660 c 0,28,29
 181 660 181 660 131 641 c 1,30,31
 132 629 132 629 132 596 c 128,-1,32
 132 563 132 563 118 510 c 1,33,34
 106 504 106 504 95.5 504 c 128,-1,35
 85 504 85 504 76 507 c 1,36,37
 57 605 57 605 54 671 c 1,38,39
 143 713 143 713 237 713 c 0,0,1
EndSplineSet
EndChar

StartChar: three
Encoding: 51 51 22
Width: 512
Flags: W
LayerCount: 2
Fore
SplineSet
459 180 m 0,0,1
 459 46 459 46 339 0 c 0,2,3
 300 -14 300 -14 250 -15 c 1,4,5
 119 -15 119 -15 46 21 c 1,6,7
 51 62 51 62 55 102 c 128,-1,8
 59 142 59 142 71 185 c 1,9,10
 76 186 76 186 85 186 c 128,-1,11
 94 186 94 186 107 180 c 1,12,13
 124 104 124 104 124 80 c 2,14,-1
 124 51 l 1,15,16
 157 37 157 37 244 37 c 0,17,18
 348 37 348 37 348 178 c 0,19,20
 348 339 348 339 169 343 c 1,21,-1
 169 383 l 1,22,23
 244 385 244 385 291.5 427 c 128,-1,24
 339 469 339 469 339 533 c 0,25,26
 339 660 339 660 238 660 c 0,27,28
 181 660 181 660 132 643 c 1,29,30
 132 635 132 635 132 618.5 c 128,-1,31
 132 602 132 602 128 582 c 2,32,-1
 113 520 l 1,33,34
 101 514 101 514 91.5 514 c 128,-1,35
 82 514 82 514 77 515 c 1,36,37
 65 558 65 558 62 594 c 128,-1,38
 59 630 59 630 54 671 c 1,39,40
 140 712 140 712 242 712 c 0,41,42
 442 712 442 712 442 543 c 0,43,44
 442 481 442 481 389 434.5 c 128,-1,45
 336 388 336 388 270 372 c 1,46,-1
 270 368 l 1,47,48
 459 342 459 342 459 180 c 0,0,1
EndSplineSet
EndChar

StartChar: four
Encoding: 52 52 23
Width: 528
Flags: W
LayerCount: 2
Fore
SplineSet
307 150 m 1,0,-1
 8 150 l 1,1,-1
 1 170 l 1,2,-1
 332 720 l 1,3,4
 365 735 365 735 407 738 c 1,5,-1
 407 225 l 1,6,-1
 482 225 l 1,7,8
 485 212 485 212 485 192.5 c 128,-1,9
 485 173 485 173 472 150 c 1,10,-1
 407 150 l 1,11,-1
 407 50 l 1,12,13
 426 33 426 33 484 30 c 1,14,15
 485 25 485 25 485 16 c 128,-1,16
 485 7 485 7 479 -5 c 1,17,18
 417 0 417 0 353.5 0 c 128,-1,19
 290 0 290 0 225 -5 c 1,20,21
 224 2 224 2 224 11 c 128,-1,22
 224 20 224 20 227 30 c 1,23,24
 290 37 290 37 307 50 c 1,25,-1
 307 150 l 1,0,-1
307 225 m 1,26,-1
 307 565 l 1,27,-1
 104 225 l 1,28,-1
 307 225 l 1,26,-1
EndSplineSet
EndChar

StartChar: five
Encoding: 53 53 24
Width: 502
Flags: W
LayerCount: 2
Fore
SplineSet
230 453 m 0,0,1
 333 453 333 453 396.5 396.5 c 128,-1,2
 460 340 460 340 460 238.5 c 128,-1,3
 460 137 460 137 397.5 64 c 128,-1,4
 335 -9 335 -9 242 -9 c 128,-1,5
 149 -9 149 -9 108 8.5 c 128,-1,6
 67 26 67 26 46 37 c 1,7,8
 59 144 59 144 75 201 c 1,9,-1
 86 202 l 2,10,11
 97 202 97 202 111 196 c 1,12,13
 124 140 124 140 124 87 c 2,14,-1
 124 65 l 1,15,16
 172 42 172 42 223 42 c 128,-1,17
 274 42 274 42 311.5 84.5 c 128,-1,18
 349 127 349 127 349 219 c 128,-1,19
 349 311 349 311 312 355.5 c 128,-1,20
 275 400 275 400 194 400 c 0,21,22
 164 400 164 400 146.5 389.5 c 128,-1,23
 129 379 129 379 109 363 c 1,24,-1
 76 365 l 1,25,-1
 86 700 l 1,26,-1
 424 700 l 1,27,28
 426 690 426 690 426 665 c 128,-1,29
 426 640 426 640 410 610 c 1,30,-1
 147 610 l 1,31,-1
 133 426 l 1,32,33
 178 453 178 453 230 453 c 0,0,1
EndSplineSet
EndChar

StartChar: six
Encoding: 54 54 25
Width: 546
Flags: W
LayerCount: 2
Fore
SplineSet
384 85 m 128,-1,1
 415 137 415 137 415 217.5 c 128,-1,2
 415 298 415 298 379 336 c 128,-1,3
 343 374 343 374 305 374 c 0,4,5
 240 374 240 374 199.5 332.5 c 128,-1,6
 159 291 159 291 159.5 238.5 c 128,-1,7
 160 186 160 186 170 150 c 128,-1,8
 180 114 180 114 196 88 c 1,9,10
 233 34 233 34 293 33 c 1,11,-1
 294 33 l 2,12,0
 353 33 353 33 384 85 c 128,-1,1
443 690 m 128,-1,14
 443 670 443 670 442 666 c 1,15,16
 244 634 244 634 171 456 c 0,17,18
 147 398 147 398 134 323 c 1,19,-1
 137 322 l 1,20,21
 165 381 165 381 211.5 414 c 128,-1,22
 258 447 258 447 304 447 c 0,23,24
 396 447 396 447 453.5 387.5 c 128,-1,25
 511 328 511 328 511 220 c 128,-1,26
 511 112 511 112 449.5 48.5 c 128,-1,27
 388 -15 388 -15 296 -15 c 0,28,29
 126 -14 126 -14 68 144 c 0,30,31
 49 195 49 195 49 272 c 0,32,33
 49 276 49 276 49 280 c 0,34,35
 49 455 49 455 154.5 576 c 128,-1,36
 260 697 260 697 436 720 c 1,37,13
 443 710 443 710 443 690 c 128,-1,14
EndSplineSet
EndChar

StartChar: seven
Encoding: 55 55 26
Width: 431
Flags: W
LayerCount: 2
Fore
SplineSet
416 700 m 1,0,-1
 416 660 l 1,1,-1
 201 0 l 1,2,-1
 91 0 l 1,3,-1
 347 622 l 1,4,-1
 344 625 l 1,5,-1
 98 625 l 1,6,7
 95 580 95 580 87 547 c 2,8,-1
 80 520 l 1,9,10
 70 517 70 517 60 517 c 128,-1,11
 50 517 50 517 41 520 c 1,12,13
 25 597 25 597 25 681 c 2,14,15
 25 681 25 681 25 700 c 1,16,-1
 416 700 l 1,0,-1
EndSplineSet
EndChar

StartChar: eight
Encoding: 56 56 27
Width: 543
Flags: W
LayerCount: 2
Fore
SplineSet
308 401 m 1,0,1
 376 457 376 457 376 530.5 c 128,-1,2
 376 604 376 604 343.5 637.5 c 128,-1,3
 311 671 311 671 276 671 c 0,4,5
 217 671 217 671 187 638 c 128,-1,6
 157 605 157 605 157 567 c 128,-1,7
 157 529 157 529 174.5 496 c 128,-1,8
 192 463 192 463 250 431 c 1,9,-1
 308 401 l 1,0,1
150 192 m 128,-1,11
 150 102 150 102 186 64 c 128,-1,12
 222 26 222 26 262 26 c 0,13,14
 330 26 330 26 367.5 61.5 c 128,-1,15
 405 97 405 97 405 143 c 0,16,17
 405 215 405 215 359.5 253.5 c 128,-1,18
 314 292 314 292 229 336 c 1,19,10
 150 282 150 282 150 192 c 128,-1,11
72 528 m 0,20,21
 72 602 72 602 131 657 c 128,-1,22
 190 712 190 712 278 712 c 128,-1,23
 366 712 366 712 418 665.5 c 128,-1,24
 470 619 470 619 470 556 c 128,-1,25
 470 493 470 493 444 451.5 c 128,-1,26
 418 410 418 410 352 375 c 1,27,28
 419 335 419 335 456.5 293 c 128,-1,29
 494 251 494 251 494 195 c 0,30,31
 494 97 494 97 419.5 41 c 128,-1,32
 345 -15 345 -15 282 -15 c 0,33,34
 171 -15 171 -15 110.5 36 c 128,-1,35
 50 87 50 87 50 166.5 c 128,-1,36
 50 246 50 246 83.5 287 c 128,-1,37
 117 328 117 328 185 361 c 1,38,39
 72 431 72 431 72 528 c 0,20,21
EndSplineSet
EndChar

StartChar: nine
Encoding: 57 57 28
Width: 546
Flags: W
LayerCount: 2
Fore
SplineSet
162 620 m 128,-1,1
 131 568 131 568 131 487.5 c 128,-1,2
 131 407 131 407 167 369 c 128,-1,3
 203 331 203 331 241 331 c 0,4,5
 306 331 306 331 346.5 372.5 c 128,-1,6
 387 414 387 414 387 467 c 0,7,8
 386 520 386 520 376 556 c 128,-1,9
 366 592 366 592 350 618 c 1,10,11
 313 672 313 672 253 672 c 128,-1,0
 193 672 193 672 162 620 c 128,-1,1
103 15.5 m 128,-1,13
 103 35 103 35 104 39 c 1,14,15
 240 61 240 61 313 147 c 128,-1,16
 386 233 386 233 412 382 c 1,17,-1
 409 383 l 1,18,19
 381 324 381 324 334.5 291 c 128,-1,20
 288 258 288 258 242 258 c 0,21,22
 150 258 150 258 92.5 317.5 c 128,-1,23
 35 377 35 377 35 485 c 128,-1,24
 35 593 35 593 96.5 656.5 c 128,-1,25
 158 720 158 720 250 720 c 0,26,27
 420 720 420 720 478 562 c 0,28,29
 497 511 497 511 497 432 c 0,30,31
 497 428 497 428 497 424 c 0,32,33
 497 249 497 249 391.5 128.5 c 128,-1,34
 286 8 286 8 110 -15 c 1,35,12
 103 -4 103 -4 103 15.5 c 128,-1,13
EndSplineSet
EndChar

StartChar: colon
Encoding: 58 58 29
Width: 250
Flags: W
LayerCount: 2
Fore
SplineSet
84 419.5 m 128,-1,1
 106 438 106 438 124 438 c 128,-1,2
 142 438 142 438 153 431.5 c 128,-1,3
 164 425 164 425 172 415 c 128,-1,4
 180 405 180 405 184 394 c 128,-1,5
 188 383 188 383 188 373 c 128,-1,6
 188 363 188 363 182 353 c 128,-1,7
 176 343 176 343 166.5 335 c 128,-1,8
 157 327 157 327 144.5 322 c 128,-1,9
 132 317 132 317 120 317 c 0,10,11
 97 317 97 317 79.5 338.5 c 128,-1,12
 62 360 62 360 62 380.5 c 128,-1,0
 62 401 62 401 84 419.5 c 128,-1,1
84 87.5 m 128,-1,14
 106 106 106 106 124 106 c 128,-1,15
 142 106 142 106 153 99.5 c 128,-1,16
 164 93 164 93 172 83 c 128,-1,17
 180 73 180 73 184 62 c 128,-1,18
 188 51 188 51 188 41 c 128,-1,19
 188 31 188 31 182 21 c 128,-1,20
 176 11 176 11 166.5 3 c 128,-1,21
 157 -5 157 -5 144.5 -10 c 128,-1,22
 132 -15 132 -15 120 -15 c 0,23,24
 97 -15 97 -15 79.5 6.5 c 128,-1,25
 62 28 62 28 62 48.5 c 128,-1,13
 62 69 62 69 84 87.5 c 128,-1,14
EndSplineSet
EndChar

StartChar: semicolon
Encoding: 59 59 30
Width: 272
Flags: W
LayerCount: 2
Fore
SplineSet
89 419.5 m 128,-1,1
 111 438 111 438 129 438 c 128,-1,2
 147 438 147 438 158 431.5 c 128,-1,3
 169 425 169 425 177 415 c 128,-1,4
 185 405 185 405 189 394 c 128,-1,5
 193 383 193 383 193 373 c 128,-1,6
 193 363 193 363 187 353 c 128,-1,7
 181 343 181 343 171.5 335 c 128,-1,8
 162 327 162 327 149.5 322 c 128,-1,9
 137 317 137 317 125 317 c 0,10,11
 102 317 102 317 84.5 338.5 c 128,-1,12
 67 360 67 360 67 380.5 c 128,-1,0
 67 401 67 401 89 419.5 c 128,-1,1
143 105 m 1,13,14
 213 96 213 96 213 -19 c 0,15,16
 213 -55 213 -55 188.5 -99 c 128,-1,17
 164 -143 164 -143 126 -165 c 1,18,-1
 100 -137 l 1,19,20
 125 -121 125 -121 142.5 -91 c 128,-1,21
 160 -61 160 -61 160 -33 c 0,22,23
 160 -15 160 -15 132 -15 c 2,24,-1
 125 -15 l 2,25,26
 103 -15 103 -15 85 6.5 c 128,-1,27
 67 28 67 28 67 48 c 128,-1,28
 67 68 67 68 89 87 c 128,-1,29
 111 106 111 106 134 106 c 1,30,-1
 140 105 l 1,31,-1
 143 105 l 1,13,14
EndSplineSet
EndChar

StartChar: less
Encoding: 60 60 31
Width: 541
Flags: W
LayerCount: 2
Fore
SplineSet
483 497 m 1,0,-1
 125 298 l 1,1,-1
 483 99 l 1,2,-1
 483 37 l 1,3,-1
 38 273 l 1,4,-1
 38 323 l 1,5,-1
 483 559 l 1,6,-1
 483 497 l 1,0,-1
EndSplineSet
EndChar

StartChar: equal
Encoding: 61 61 32
Width: 542
Flags: W
LayerCount: 2
Fore
SplineSet
472 261 m 1,0,1
 472 212 472 212 461 197 c 1,2,-1
 71 197 l 1,3,4
 70 202 70 202 70 210.5 c 128,-1,5
 70 219 70 219 74.5 238.5 c 128,-1,6
 79 258 79 258 82 261 c 1,7,-1
 472 261 l 1,0,1
472 415 m 1,8,9
 472 366 472 366 461 351 c 1,10,-1
 71 351 l 1,11,12
 70 356 70 356 70 364.5 c 128,-1,13
 70 373 70 373 74.5 392.5 c 128,-1,14
 79 412 79 412 82 415 c 1,15,-1
 472 415 l 1,8,9
EndSplineSet
EndChar

StartChar: greater
Encoding: 62 62 33
Width: 541
Flags: W
LayerCount: 2
Fore
SplineSet
58 559 m 1,0,-1
 503 323 l 1,1,-1
 503 273 l 1,2,-1
 58 37 l 1,3,-1
 58 99 l 1,4,-1
 416 298 l 1,5,-1
 58 497 l 1,6,-1
 58 559 l 1,0,-1
EndSplineSet
EndChar

StartChar: question
Encoding: 63 63 34
Width: 432
Flags: W
LayerCount: 2
Fore
SplineSet
293 574 m 0,0,1
 293 670 293 670 198 670 c 0,2,3
 151 670 151 670 121 646 c 1,4,5
 112 571 112 571 99 529 c 1,6,7
 91 525 91 525 82.5 525 c 128,-1,8
 74 525 74 525 65 528 c 1,9,10
 51 580 51 580 51 613.5 c 128,-1,11
 51 647 51 647 52 663 c 1,12,13
 131 705 131 705 232 705 c 128,-1,14
 333 705 333 705 376 632 c 0,15,16
 390 608 390 608 390 572.5 c 128,-1,17
 390 537 390 537 375.5 508 c 128,-1,18
 361 479 361 479 338.5 456 c 128,-1,19
 316 433 316 433 290 412 c 128,-1,20
 264 391 264 391 242 368 c 0,21,22
 191 316 191 316 191 251 c 0,23,24
 191 236 191 236 196 214 c 2,25,-1
 206 174 l 1,26,27
 204 167 204 167 190 167 c 128,-1,28
 176 167 176 167 164 173 c 1,29,30
 129 231 129 231 129 268 c 128,-1,31
 129 305 129 305 141 331 c 128,-1,32
 153 357 153 357 171.5 381 c 128,-1,33
 190 405 190 405 211 427 c 128,-1,34
 232 449 232 449 262.5 487.5 c 128,-1,35
 293 526 293 526 293 574 c 0,0,1
146 87.5 m 128,-1,37
 168 106 168 106 186 106 c 128,-1,38
 204 106 204 106 215 99.5 c 128,-1,39
 226 93 226 93 234 83 c 128,-1,40
 242 73 242 73 246 62 c 128,-1,41
 250 51 250 51 250 41 c 128,-1,42
 250 31 250 31 244 21 c 128,-1,43
 238 11 238 11 228.5 3 c 128,-1,44
 219 -5 219 -5 206.5 -10 c 128,-1,45
 194 -15 194 -15 182 -15 c 0,46,47
 159 -15 159 -15 141.5 6.5 c 128,-1,48
 124 28 124 28 124 48.5 c 128,-1,36
 124 69 124 69 146 87.5 c 128,-1,37
EndSplineSet
EndChar

StartChar: at
Encoding: 64 64 35
Width: 830
Flags: W
LayerCount: 2
Fore
SplineSet
366 52 m 0,0,1
 432 52 432 52 471 180 c 0,2,3
 493 252 493 252 493 309 c 0,4,5
 493 348 493 348 482.5 363 c 128,-1,6
 472 378 472 378 447 378 c 0,7,8
 397 378 397 378 355 295.5 c 128,-1,9
 313 213 313 213 313 132.5 c 128,-1,10
 313 52 313 52 366 52 c 0,0,1
51 178 m 128,-1,12
 51 343 51 343 166.5 466 c 128,-1,13
 282 589 282 589 440.5 589 c 128,-1,14
 599 589 599 589 690 494.5 c 128,-1,15
 781 400 781 400 781 262 c 128,-1,16
 781 124 781 124 719 42 c 128,-1,17
 657 -40 657 -40 585 -40 c 0,18,19
 547 -40 547 -40 517.5 -12.5 c 128,-1,20
 488 15 488 15 479 72 c 1,21,-1
 475 72 l 1,22,23
 413 -18 413 -18 339 -18 c 128,-1,24
 265 -18 265 -18 236 70 c 0,25,26
 227 98 227 98 227 138 c 0,27,28
 227 239 227 239 288 332.5 c 128,-1,29
 349 426 349 426 460 426 c 0,30,31
 488 426 488 426 524 410 c 1,32,33
 543 421 543 421 556 421 c 0,34,35
 582 421 582 421 580 393 c 1,36,-1
 543 165 l 2,37,38
 538 129 538 129 538 102 c 0,39,40
 538 19 538 19 590 19 c 0,41,42
 632 19 632 19 669.5 83 c 128,-1,43
 707 147 707 147 707 269 c 128,-1,44
 707 391 707 391 639.5 464.5 c 128,-1,45
 572 538 572 538 438 538 c 128,-1,46
 304 538 304 538 221 433.5 c 128,-1,47
 138 329 138 329 138 185 c 128,-1,48
 138 41 138 41 215 -45.5 c 128,-1,49
 292 -132 292 -132 435 -132 c 0,50,51
 538 -132 538 -132 613 -91 c 1,52,-1
 631 -128 l 1,53,54
 540 -187 540 -187 439 -187 c 0,55,56
 258 -187 258 -187 154.5 -87 c 128,-1,11
 51 13 51 13 51 178 c 128,-1,12
EndSplineSet
EndChar

StartChar: A
Encoding: 65 65 36
Width: 684
Flags: W
LayerCount: 2
Fore
SplineSet
221 295 m 1,0,-1
 412 295 l 1,1,-1
 312 560 l 1,2,-1
 221 295 l 1,0,-1
694 -5 m 1,3,4
 627 0 627 0 558.5 0 c 128,-1,5
 490 0 490 0 420 -5 c 1,6,7
 419 2 419 2 419 11 c 128,-1,8
 419 20 419 20 422 30 c 1,9,10
 485 37 485 37 502 50 c 1,11,-1
 432 240 l 1,12,-1
 203 240 l 1,13,-1
 138 50 l 1,14,15
 157 33 157 33 215 30 c 1,16,17
 216 25 216 25 216 16 c 128,-1,18
 216 7 216 7 210 -5 c 1,19,20
 157 -1 157 -1 103.5 -1 c 128,-1,21
 50 -1 50 -1 -4 -5 c 1,22,23
 -5 2 -5 2 -5 11 c 128,-1,24
 -5 20 -5 20 -2 30 c 1,25,26
 61 37 61 37 78 50 c 1,27,-1
 312 701 l 1,28,29
 325 709 325 709 351 709 c 1,30,-1
 622 50 l 1,31,32
 641 33 641 33 699 30 c 1,33,34
 700 25 700 25 700 16 c 128,-1,35
 700 7 700 7 694 -5 c 1,3,4
EndSplineSet
EndChar

StartChar: B
Encoding: 66 66 37
Width: 616
Flags: W
LayerCount: 2
Fore
SplineSet
260 392 m 2,0,1
 396 392 396 392 416 473 c 0,2,3
 422 500 422 500 423 548 c 1,4,5
 423 655 423 655 309 655 c 2,6,-1
 222 655 l 1,7,-1
 222 392 l 1,8,-1
 260 392 l 2,0,1
293 45 m 2,9,10
 423 45 423 45 445 128 c 0,11,12
 452 156 452 156 452 198 c 0,13,14
 452 287 452 287 416.5 314.5 c 128,-1,15
 381 342 381 342 273 342 c 2,16,-1
 222 342 l 1,17,-1
 222 45 l 1,18,-1
 293 45 l 2,9,10
573 190 m 0,19,20
 573 0 573 0 305 0 c 2,21,-1
 172 0 l 2,22,23
 105 0 105 0 35 -5 c 1,24,25
 34 2 34 2 34 11 c 128,-1,26
 34 20 34 20 37 30 c 1,27,28
 100 37 100 37 117 50 c 1,29,-1
 117 650 l 1,30,31
 100 663 100 663 40 670 c 1,32,33
 39 675 39 675 39 684 c 128,-1,34
 39 693 39 693 45 705 c 1,35,36
 113 700 113 700 167 700 c 2,37,-1
 281 700 l 2,38,39
 412 700 412 700 455 676 c 128,-1,40
 498 652 498 652 514 623 c 128,-1,41
 530 594 530 594 530 554 c 0,42,43
 530 484 530 484 485 436.5 c 128,-1,44
 440 389 440 389 375 379 c 1,45,-1
 375 377 l 1,46,47
 573 352 573 352 573 190 c 0,19,20
EndSplineSet
EndChar

StartChar: C
Encoding: 67 67 38
Width: 646
Flags: W
LayerCount: 2
Fore
SplineSet
615 76 m 1,0,1
 517 -20 517 -20 379.5 -20 c 128,-1,2
 242 -20 242 -20 143 75 c 128,-1,3
 44 170 44 170 44 349 c 128,-1,4
 44 528 44 528 144.5 624.5 c 128,-1,5
 245 721 245 721 381 721 c 128,-1,6
 517 721 517 721 611 672 c 1,7,8
 607 581 607 581 580 508 c 1,9,10
 572 506 572 506 560.5 506 c 128,-1,11
 549 506 549 506 536 513 c 1,12,13
 524 564 524 564 524 596.5 c 128,-1,14
 524 629 524 629 525 642 c 1,15,16
 471 667 471 667 406 667 c 0,17,18
 293 667 293 667 232.5 575.5 c 128,-1,19
 172 484 172 484 172 350 c 0,20,21
 172 123 172 123 296 56 c 0,22,23
 338 33 338 33 398 33 c 0,24,25
 502 33 502 33 592 109 c 1,26,27
 613 103 613 103 615 76 c 1,0,1
EndSplineSet
EndChar

StartChar: D
Encoding: 68 68 39
Width: 739
Flags: W
LayerCount: 2
Fore
SplineSet
267 45 m 1,0,1
 506 46 506 46 560 224 c 0,2,3
 577 279 577 279 577 343 c 2,4,5
 577 343 577 343 577 350 c 0,6,7
 577 486 577 486 504.5 570.5 c 128,-1,8
 432 655 432 655 292 655 c 2,9,-1
 222 655 l 1,10,-1
 222 45 l 1,11,-1
 267 45 l 1,0,1
167 700 m 2,12,-1
 297 700 l 2,13,14
 598 700 598 700 670 496 c 0,15,16
 692 434 692 434 692 346 c 0,17,18
 692 171 692 171 570 77 c 0,19,20
 469 0 469 0 297 0 c 2,21,-1
 172 0 l 2,22,23
 105 0 105 0 35 -5 c 1,24,25
 34 2 34 2 34 11 c 128,-1,26
 34 20 34 20 37 30 c 1,27,28
 100 37 100 37 117 50 c 1,29,-1
 117 650 l 1,30,31
 100 663 100 663 40 670 c 1,32,33
 39 675 39 675 39 684 c 128,-1,34
 39 693 39 693 45 705 c 1,35,36
 113 700 113 700 167 700 c 2,12,-1
EndSplineSet
EndChar

StartChar: E
Encoding: 69 69 40
Width: 585
Flags: W
LayerCount: 2
Fore
SplineSet
423 355.5 m 128,-1,1
 423 289 423 289 427 243 c 1,2,3
 418 239 418 239 407 239 c 128,-1,4
 396 239 396 239 387 241 c 1,5,6
 380 307 380 307 368 330 c 1,7,-1
 222 330 l 1,8,-1
 222 45 l 1,9,-1
 464 45 l 1,10,11
 470 113 470 113 493 178 c 1,12,13
 500 179 500 179 509 179 c 128,-1,14
 518 179 518 179 528 175 c 1,15,16
 542 108 542 108 542 65 c 128,-1,17
 542 22 542 22 540 0 c 1,18,-1
 172 0 l 2,19,20
 109 0 109 0 39 -5 c 1,21,22
 38 2 38 2 38 11 c 128,-1,23
 38 20 38 20 41 30 c 1,24,25
 99 37 99 37 117 50 c 1,26,-1
 117 650 l 1,27,28
 100 663 100 663 40 670 c 1,29,30
 39 675 39 675 39 684 c 128,-1,31
 39 693 39 693 45 705 c 1,32,33
 113 700 113 700 167 700 c 2,34,-1
 532 700 l 1,35,36
 535 679 535 679 535 639.5 c 128,-1,37
 535 600 535 600 521 525 c 1,38,39
 511 521 511 521 501.5 521 c 128,-1,40
 492 521 492 521 485 522 c 1,41,42
 462 601 462 601 459 655 c 1,43,-1
 222 655 l 1,44,-1
 222 385 l 1,45,-1
 368 385 l 1,46,47
 380 408 380 408 387 473 c 1,48,49
 396 476 396 476 406.5 476 c 128,-1,50
 417 476 417 476 427 468 c 1,51,0
 423 422 423 422 423 355.5 c 128,-1,1
EndSplineSet
EndChar

StartChar: F
Encoding: 70 70 41
Width: 539
Flags: W
LayerCount: 2
Fore
SplineSet
167 700 m 2,0,-1
 522 700 l 1,1,2
 525 679 525 679 525 639.5 c 128,-1,3
 525 600 525 600 511 525 c 1,4,5
 501 521 501 521 491.5 521 c 128,-1,6
 482 521 482 521 475 522 c 1,7,8
 453 597 453 597 450 655 c 1,9,-1
 222 655 l 1,10,-1
 222 395 l 1,11,-1
 359 395 l 1,12,13
 371 418 371 418 378 483 c 1,14,15
 387 486 387 486 397.5 486 c 128,-1,16
 408 486 408 486 418 478 c 1,17,18
 414 432 414 432 414 365.5 c 128,-1,19
 414 299 414 299 418 253 c 1,20,21
 409 249 409 249 398 249 c 128,-1,22
 387 249 387 249 378 251 c 1,23,24
 371 317 371 317 359 340 c 1,25,-1
 222 340 l 1,26,-1
 222 49 l 1,27,28
 232 37 232 37 258.5 34.5 c 128,-1,29
 285 32 285 32 302 30 c 1,30,31
 303 25 303 25 303 16 c 128,-1,32
 303 7 303 7 297 -5 c 1,33,34
 234 0 234 0 169.5 0 c 128,-1,35
 105 0 105 0 40 -5 c 1,36,37
 39 2 39 2 39 11 c 128,-1,38
 39 20 39 20 42 30 c 1,39,40
 97 36 97 36 105 40 c 128,-1,41
 113 44 113 44 117 50 c 1,42,-1
 117 650 l 1,43,44
 100 663 100 663 40 670 c 1,45,46
 39 675 39 675 39 684 c 128,-1,47
 39 693 39 693 45 705 c 1,48,49
 113 700 113 700 167 700 c 2,0,-1
EndSplineSet
EndChar

StartChar: G
Encoding: 71 71 42
Width: 716
Flags: W
LayerCount: 2
Fore
SplineSet
397.5 713 m 128,-1,1
 541 713 541 713 631 666 c 1,2,3
 627 565 627 565 600 493 c 1,4,5
 592 491 592 491 580.5 491 c 128,-1,6
 569 491 569 491 556 498 c 1,7,8
 545 554 545 554 545 589 c 2,9,-1
 545 634 l 1,10,11
 485 658 485 658 420 658 c 0,12,13
 298 658 298 658 229 573.5 c 128,-1,14
 160 489 160 489 160 358.5 c 128,-1,15
 160 228 160 228 223 134 c 128,-1,16
 286 40 286 40 397 40 c 0,17,18
 468 40 468 40 515 66 c 1,19,-1
 515 250 l 1,20,21
 498 263 498 263 438 270 c 1,22,23
 437 275 437 275 437 284 c 128,-1,24
 437 293 437 293 443 305 c 1,25,26
 511 300 511 300 567.5 300 c 128,-1,27
 624 300 624 300 692 305 c 1,28,29
 698 293 698 293 698 284 c 128,-1,30
 698 275 698 275 697 270 c 1,31,32
 633 263 633 263 620 250 c 1,33,-1
 620 51 l 1,34,35
 528 -15 528 -15 373 -15 c 0,36,37
 146 -15 146 -15 71 185 c 0,38,39
 45 254 45 254 45 344 c 0,40,41
 45 513 45 513 149.5 613 c 128,-1,0
 254 713 254 713 397.5 713 c 128,-1,1
EndSplineSet
EndChar

StartChar: H
Encoding: 72 72 43
Width: 779
Flags: W
LayerCount: 2
Fore
SplineSet
557 340 m 1,0,-1
 222 340 l 1,1,-1
 222 50 l 1,2,3
 241 33 241 33 299 30 c 1,4,5
 300 25 300 25 300 16 c 128,-1,6
 300 7 300 7 294 -5 c 1,7,8
 230 0 230 0 165.5 0 c 128,-1,9
 101 0 101 0 35 -5 c 1,10,11
 34 2 34 2 34 11 c 128,-1,12
 34 20 34 20 37 30 c 1,13,14
 100 37 100 37 117 50 c 1,15,-1
 117 650 l 1,16,17
 100 663 100 663 40 670 c 1,18,19
 39 675 39 675 39 684 c 128,-1,20
 39 693 39 693 45 705 c 1,21,22
 113 700 113 700 147 700 c 2,23,-1
 199 700 l 1,24,-1
 236 702 l 2,25,26
 266 703 266 703 304 705 c 1,27,28
 305 698 305 698 305 689 c 128,-1,29
 305 680 305 680 302 670 c 1,30,31
 239 663 239 663 222 650 c 1,32,-1
 222 395 l 1,33,-1
 557 395 l 1,34,-1
 557 650 l 1,35,36
 540 663 540 663 480 670 c 1,37,38
 479 675 479 675 479 684 c 128,-1,39
 479 693 479 693 485 705 c 1,40,41
 553 700 553 700 587 700 c 2,42,-1
 639 700 l 1,43,-1
 676 702 l 2,44,45
 706 703 706 703 744 705 c 1,46,47
 745 698 745 698 745 689 c 128,-1,48
 745 680 745 680 742 670 c 1,49,50
 679 663 679 663 662 650 c 1,51,-1
 662 50 l 1,52,53
 681 33 681 33 739 30 c 1,54,55
 740 25 740 25 740 16 c 128,-1,56
 740 7 740 7 734 -5 c 1,57,58
 670 0 670 0 605.5 0 c 128,-1,59
 541 0 541 0 475 -5 c 1,60,61
 474 2 474 2 474 11 c 128,-1,62
 474 20 474 20 477 30 c 1,63,64
 540 37 540 37 557 50 c 1,65,-1
 557 340 l 1,0,-1
EndSplineSet
EndChar

StartChar: I
Encoding: 73 73 44
Width: 339
Flags: W
LayerCount: 2
Fore
SplineSet
146 700 m 2,0,1
 146 700 146 700 199 700 c 1,2,-1
 236 702 l 2,3,4
 266 703 266 703 304 705 c 1,5,6
 305 698 305 698 305 689 c 128,-1,7
 305 680 305 680 302 670 c 1,8,9
 239 663 239 663 222 650 c 1,10,-1
 222 50 l 1,11,12
 241 33 241 33 299 30 c 1,13,14
 300 25 300 25 300 16 c 128,-1,15
 300 7 300 7 294 -5 c 1,16,17
 230 0 230 0 165.5 0 c 128,-1,18
 101 0 101 0 35 -5 c 1,19,20
 34 2 34 2 34 11 c 128,-1,21
 34 20 34 20 37 30 c 1,22,23
 100 37 100 37 117 50 c 1,24,-1
 117 650 l 1,25,26
 100 663 100 663 40 670 c 1,27,28
 39 675 39 675 39 684 c 128,-1,29
 39 693 39 693 45 705 c 1,30,31
 112 700 112 700 146 700 c 2,0,1
EndSplineSet
EndChar

StartChar: J
Encoding: 74 74 45
Width: 324
Flags: W
LayerCount: 2
Fore
SplineSet
140 700 m 2,0,1
 140 700 140 700 193 700 c 1,2,-1
 230 702 l 2,3,4
 260 703 260 703 298 705 c 1,5,6
 299 698 299 698 299 689 c 128,-1,7
 299 680 299 680 296 670 c 1,8,9
 233 663 233 663 216 650 c 1,10,-1
 216 139 l 2,11,12
 216 51 216 51 165 -7.5 c 128,-1,13
 114 -66 114 -66 11 -106 c 1,14,15
 4 -105 4 -105 -2.5 -97 c 128,-1,16
 -9 -89 -9 -89 -9 -81 c 1,17,18
 111 -19 111 -19 111 139 c 2,19,-1
 111 650 l 1,20,21
 94 663 94 663 34 670 c 1,22,23
 33 675 33 675 33 684 c 128,-1,24
 33 693 33 693 39 705 c 1,25,26
 106 700 106 700 140 700 c 2,0,1
EndSplineSet
EndChar

StartChar: K
Encoding: 75 75 46
Width: 666
Flags: W
LayerCount: 2
Fore
SplineSet
533 700 m 128,-1,1
 578 700 578 700 648 705 c 1,2,3
 649 698 649 698 649 689 c 128,-1,4
 649 680 649 680 646 670 c 1,5,6
 572 661 572 661 542 628 c 1,7,-1
 340 389 l 1,8,-1
 581 62 l 1,9,10
 602 31 602 31 655 31 c 0,11,12
 668 31 668 31 677 30 c 1,13,14
 678 25 678 25 678 16 c 128,-1,15
 678 7 678 7 672 -5 c 1,16,17
 605 0 605 0 536.5 0 c 128,-1,18
 468 0 468 0 398 -5 c 1,19,20
 397 2 397 2 397 11 c 128,-1,21
 397 20 397 20 400 30 c 1,22,23
 463 37 463 37 480 50 c 1,24,-1
 288 310 l 1,25,-1
 222 310 l 1,26,-1
 222 50 l 1,27,28
 241 33 241 33 299 30 c 1,29,30
 300 25 300 25 300 16 c 128,-1,31
 300 7 300 7 294 -5 c 1,32,33
 230 0 230 0 165.5 0 c 128,-1,34
 101 0 101 0 35 -5 c 1,35,36
 34 2 34 2 34 11 c 128,-1,37
 34 20 34 20 37 30 c 1,38,39
 100 37 100 37 117 50 c 1,40,-1
 117 650 l 1,41,42
 100 663 100 663 40 670 c 1,43,44
 39 675 39 675 39 684 c 128,-1,45
 39 693 39 693 45 705 c 1,46,47
 113 700 113 700 147 700 c 2,48,-1
 199 700 l 1,49,-1
 236 702 l 2,50,51
 266 703 266 703 304 705 c 1,52,53
 305 698 305 698 305 689 c 128,-1,54
 305 680 305 680 302 670 c 1,55,56
 239 663 239 663 222 650 c 1,57,-1
 222 365 l 1,58,-1
 260 365 l 1,59,-1
 492 650 l 1,60,61
 475 663 475 663 415 670 c 1,62,63
 414 675 414 675 414 684 c 128,-1,64
 414 693 414 693 420 705 c 1,65,0
 488 700 488 700 533 700 c 128,-1,1
EndSplineSet
EndChar

StartChar: L
Encoding: 76 76 47
Width: 538
Flags: W
LayerCount: 2
Fore
SplineSet
146 700 m 2,0,1
 146 700 146 700 199 700 c 1,2,-1
 236 702 l 2,3,4
 266 703 266 703 304 705 c 1,5,6
 305 698 305 698 305 689 c 128,-1,7
 305 680 305 680 302 670 c 1,8,9
 239 663 239 663 222 650 c 1,10,-1
 222 55 l 1,11,-1
 452 55 l 1,12,13
 466 141 466 141 479 178 c 1,14,15
 486 179 486 179 495 179 c 128,-1,16
 504 179 504 179 515 175 c 1,17,18
 525 112 525 112 525 0 c 1,19,-1
 172 0 l 2,20,21
 109 0 109 0 39 -5 c 1,22,23
 38 2 38 2 38 11 c 128,-1,24
 38 20 38 20 41 30 c 1,25,26
 99 37 99 37 117 50 c 1,27,-1
 117 650 l 1,28,29
 100 663 100 663 40 670 c 1,30,31
 39 675 39 675 39 684 c 128,-1,32
 39 693 39 693 45 705 c 1,33,34
 112 700 112 700 146 700 c 2,0,1
EndSplineSet
EndChar

StartChar: M
Encoding: 77 77 48
Width: 918
Flags: W
LayerCount: 2
Fore
SplineSet
191 700 m 2,0,-1
 256 700 l 1,1,-1
 256 680 l 1,2,-1
 461 205 l 1,3,-1
 657 680 l 1,4,-1
 657 700 l 1,5,6
 703 700 703 700 749 700 c 1,7,-1
 786 702 l 2,8,9
 816 703 816 703 854 705 c 1,10,11
 855 698 855 698 855 689 c 128,-1,12
 855 680 855 680 852 670 c 1,13,14
 789 663 789 663 772 650 c 1,15,-1
 822 50 l 1,16,17
 841 33 841 33 899 30 c 1,18,19
 900 25 900 25 900 16 c 128,-1,20
 900 7 900 7 894 -5 c 1,21,22
 830 0 830 0 765.5 0 c 128,-1,23
 701 0 701 0 635 -5 c 1,24,25
 634 2 634 2 634 11 c 128,-1,26
 634 20 634 20 637 30 c 1,27,28
 700 37 700 37 717 50 c 1,29,-1
 668 561 l 1,30,-1
 444 5 l 1,31,32
 436 -3 436 -3 426 0 c 1,33,-1
 191 570 l 1,34,-1
 161 49 l 1,35,36
 180 32 180 32 238 29 c 1,37,38
 239 24 239 24 239 15 c 128,-1,39
 239 6 239 6 233 -6 c 1,40,-1
 181 -2 l 2,41,42
 156 0 156 0 123.5 0 c 128,-1,43
 91 0 91 0 21 -5 c 1,44,45
 20 2 20 2 20 11 c 128,-1,46
 20 20 20 20 23 30 c 1,47,48
 85 37 85 37 101 50 c 1,49,-1
 141 650 l 1,50,51
 124 663 124 663 64 670 c 1,52,53
 63 675 63 675 63 684 c 128,-1,54
 63 693 63 693 69 705 c 1,55,56
 137 700 137 700 191 700 c 2,0,-1
EndSplineSet
EndChar

StartChar: N
Encoding: 78 78 49
Width: 757
Flags: W
LayerCount: 2
Fore
SplineSet
622 700 m 128,-1,1
 658 700 658 700 728 705 c 1,2,3
 729 698 729 698 729 689 c 128,-1,4
 729 680 729 680 726 670 c 1,5,6
 663 663 663 663 646 650 c 1,7,-1
 646 -20 l 1,8,9
 641 -30 641 -30 635 -30 c 2,10,-1
 626 -30 l 1,11,-1
 171 540 l 1,12,-1
 171 50 l 1,13,14
 185 36 185 36 248 29 c 1,15,16
 249 24 249 24 249 15 c 128,-1,17
 249 6 249 6 243 -6 c 1,18,-1
 191 -2 l 2,19,20
 166 0 166 0 137 0 c 128,-1,21
 108 0 108 0 86 -2 c 2,22,-1
 36 -5 l 1,23,24
 35 2 35 2 35 11 c 128,-1,25
 35 20 35 20 38 30 c 1,26,27
 100 37 100 37 116 50 c 1,28,-1
 116 650 l 1,29,30
 99 663 99 663 39 670 c 1,31,32
 38 675 38 675 38 684 c 128,-1,33
 38 693 38 693 44 705 c 1,34,35
 112 700 112 700 166 700 c 2,36,-1
 206 700 l 1,37,-1
 206 680 l 1,38,-1
 591 185 l 1,39,-1
 590 650 l 1,40,41
 573 663 573 663 513 670 c 1,42,43
 512 675 512 675 512 684 c 128,-1,44
 512 693 512 693 518 705 c 1,45,0
 586 700 586 700 622 700 c 128,-1,1
EndSplineSet
EndChar

StartChar: O
Encoding: 79 79 50
Width: 743
Flags: W
LayerCount: 2
Fore
SplineSet
525.5 579.5 m 128,-1,1
 467 674 467 674 364.5 674 c 128,-1,2
 262 674 262 674 210.5 579 c 128,-1,3
 159 484 159 484 159 348 c 128,-1,4
 159 212 159 212 216.5 119 c 128,-1,5
 274 26 274 26 378 26 c 128,-1,6
 482 26 482 26 533 121 c 128,-1,7
 584 216 584 216 584 350.5 c 128,-1,0
 584 485 584 485 525.5 579.5 c 128,-1,1
609 616.5 m 128,-1,9
 699 513 699 513 699 349 c 128,-1,10
 699 185 699 185 609.5 82.5 c 128,-1,11
 520 -20 520 -20 370.5 -20 c 128,-1,12
 221 -20 221 -20 132.5 82 c 128,-1,13
 44 184 44 184 44 348.5 c 128,-1,14
 44 513 44 513 132.5 616.5 c 128,-1,15
 221 720 221 720 370 720 c 128,-1,8
 519 720 519 720 609 616.5 c 128,-1,9
EndSplineSet
EndChar

StartChar: P
Encoding: 80 80 51
Width: 580
Flags: W
LayerCount: 2
Fore
SplineSet
285 664 m 0,0,1
 255 664 255 664 222 655 c 1,2,-1
 222 331 l 1,3,4
 249 325 249 325 280 325 c 0,5,6
 348 325 348 325 395 372 c 128,-1,7
 442 419 442 419 442 497 c 128,-1,8
 442 575 442 575 398 619.5 c 128,-1,9
 354 664 354 664 285 664 c 0,0,1
557 496 m 0,10,11
 557 388 557 388 471 334 c 128,-1,12
 385 280 385 280 266 280 c 0,13,14
 244 280 244 280 222 282 c 1,15,-1
 222 50 l 1,16,17
 233 39 233 39 271.5 35 c 128,-1,18
 310 31 310 31 319 30 c 1,19,20
 320 25 320 25 320 16 c 128,-1,21
 320 7 320 7 314 -5 c 1,22,23
 244 0 244 0 174 0 c 1,24,-1
 35 -5 l 1,25,26
 34 2 34 2 34 11 c 128,-1,27
 34 20 34 20 37 30 c 1,28,29
 100 37 100 37 117 50 c 1,30,-1
 117 650 l 1,31,32
 100 663 100 663 40 670 c 1,33,34
 39 675 39 675 39 684 c 128,-1,35
 39 693 39 693 45 705 c 1,36,37
 113 700 113 700 167 700 c 1,38,-1
 281 705 l 1,39,40
 475 705 475 705 537 588 c 0,41,42
 557 550 557 550 557 496 c 0,10,11
EndSplineSet
EndChar

StartChar: Q
Encoding: 81 81 52
Width: 743
Flags: W
LayerCount: 2
Fore
SplineSet
525.5 579.5 m 128,-1,1
 467 674 467 674 364.5 674 c 128,-1,2
 262 674 262 674 210.5 579 c 128,-1,3
 159 484 159 484 159 348 c 128,-1,4
 159 212 159 212 216.5 119 c 128,-1,5
 274 26 274 26 378 26 c 128,-1,6
 482 26 482 26 533 121 c 128,-1,7
 584 216 584 216 584 350.5 c 128,-1,0
 584 485 584 485 525.5 579.5 c 128,-1,1
344 -19 m 1,8,9
 206 -9 206 -9 125 91.5 c 128,-1,10
 44 192 44 192 44 352.5 c 128,-1,11
 44 513 44 513 132.5 616.5 c 128,-1,12
 221 720 221 720 370 720 c 128,-1,13
 519 720 519 720 609 616.5 c 128,-1,14
 699 513 699 513 699 351 c 0,15,16
 699 120 699 120 538 24 c 0,17,18
 487 -6 487 -6 424 -16 c 1,19,20
 562 -128 562 -128 721 -128 c 0,21,22
 770 -128 770 -128 804 -111 c 1,23,24
 806 -112 806 -112 811.5 -120.5 c 128,-1,25
 817 -129 817 -129 816 -133 c 1,26,-1
 785 -158 l 2,27,28
 719 -210 719 -210 673 -211 c 1,29,30
 536 -211 536 -211 344 -19 c 1,8,9
EndSplineSet
EndChar

StartChar: R
Encoding: 82 82 53
Width: 642
Flags: W
LayerCount: 2
Fore
SplineSet
442 509 m 128,-1,1
 442 582 442 582 401.5 621 c 128,-1,2
 361 660 361 660 312 660 c 128,-1,3
 263 660 263 660 222 649 c 1,4,-1
 222 365 l 1,5,6
 251 358 251 358 282 358 c 0,7,8
 353 358 353 358 397.5 397 c 128,-1,0
 442 436 442 436 442 509 c 128,-1,1
557 512 m 0,9,10
 557 380 557 380 419 335 c 1,11,-1
 494 176 l 1,12,13
 547 59 547 59 570.5 45 c 128,-1,14
 594 31 594 31 612 31 c 128,-1,15
 630 31 630 31 638 33 c 1,16,17
 640 26 640 26 640 18 c 128,-1,18
 640 10 640 10 637 0 c 1,19,20
 625 -15 625 -15 565 -15 c 0,21,22
 480 -15 480 -15 435 79 c 0,23,24
 422 104 422 104 408 138 c 2,25,-1
 375 216 l 2,26,27
 356 260 356 260 329 316 c 1,28,29
 296 313 296 313 269.5 313 c 128,-1,30
 243 313 243 313 222 315 c 1,31,-1
 222 50 l 1,32,33
 241 33 241 33 299 30 c 1,34,35
 300 25 300 25 300 16 c 128,-1,36
 300 7 300 7 294 -5 c 1,37,38
 230 0 230 0 165.5 0 c 128,-1,39
 101 0 101 0 35 -5 c 1,40,41
 34 2 34 2 34 11 c 128,-1,42
 34 20 34 20 37 30 c 1,43,44
 100 37 100 37 117 50 c 1,45,-1
 117 650 l 1,46,47
 100 663 100 663 40 670 c 1,48,49
 39 675 39 675 39 684 c 128,-1,50
 39 693 39 693 45 705 c 1,51,52
 80 702 80 702 114 702 c 1,53,-1
 152 700 l 1,54,-1
 187 700 l 1,55,-1
 281 705 l 1,56,57
 478 704 478 704 537 596 c 0,58,59
 557 560 557 560 557 512 c 0,9,10
EndSplineSet
EndChar

StartChar: S
Encoding: 83 83 54
Width: 545
Flags: W
LayerCount: 2
Fore
SplineSet
285 667 m 0,0,1
 147 667 147 667 147 578 c 0,2,3
 147 503 147 503 282 422 c 128,-1,4
 417 341 417 341 463 295 c 128,-1,5
 509 249 509 249 509 187 c 0,6,7
 509 82 509 82 434.5 31.5 c 128,-1,8
 360 -19 360 -19 280 -19 c 0,9,10
 122 -19 122 -19 49 16 c 1,11,12
 48 27 48 27 48 38 c 0,13,14
 48 119 48 119 75 190 c 1,15,16
 83 192 83 192 94.5 192 c 128,-1,17
 106 192 106 192 119 185 c 1,18,19
 136 132 136 132 136 75 c 0,20,21
 136 64 136 64 135 52 c 1,22,23
 192 37 192 37 231 37 c 0,24,25
 314 38 314 38 350 54 c 0,26,27
 402 77 402 77 402 130.5 c 128,-1,28
 402 184 402 184 363.5 222.5 c 128,-1,29
 325 261 325 261 243 309 c 0,30,31
 116 384 116 384 84 430.5 c 128,-1,32
 52 477 52 477 52 535 c 0,33,34
 52 634 52 634 116 675.5 c 128,-1,35
 180 717 180 717 293 717 c 128,-1,36
 406 717 406 717 479 682 c 1,37,38
 475 590 475 590 448 517 c 1,39,40
 440 515 440 515 428.5 515 c 128,-1,41
 417 515 417 515 404 522 c 1,42,43
 392 562 392 562 392 598.5 c 128,-1,44
 392 635 392 635 393 654 c 1,45,46
 344 667 344 667 285 667 c 0,0,1
EndSplineSet
EndChar

StartChar: T
Encoding: 84 84 55
Width: 623
Flags: W
LayerCount: 2
Fore
SplineSet
256 655 m 1,0,-1
 100 655 l 1,1,2
 93 572 93 572 71 512 c 1,3,4
 63 511 63 511 52.5 511 c 128,-1,5
 42 511 42 511 31 515 c 1,6,-1
 24 556 l 2,7,8
 17 601 17 601 17 636.5 c 128,-1,9
 17 672 17 672 21 700 c 1,10,-1
 606 700 l 1,11,12
 609 677 609 677 609 657 c 2,13,-1
 609 633 l 2,14,15
 609 599 609 599 602 556 c 2,16,-1
 595 515 l 1,17,18
 584 511 584 511 574 511 c 128,-1,19
 564 511 564 511 555 512 c 1,20,21
 529 577 529 577 526 655 c 1,22,-1
 361 655 l 1,23,-1
 361 50 l 1,24,25
 380 33 380 33 438 30 c 1,26,27
 439 25 439 25 439 16 c 128,-1,28
 439 7 439 7 433 -5 c 1,29,30
 369 0 369 0 304.5 0 c 128,-1,31
 240 0 240 0 174 -5 c 1,32,33
 173 2 173 2 173 11 c 128,-1,34
 173 20 173 20 176 30 c 1,35,36
 239 37 239 37 256 50 c 1,37,-1
 256 655 l 1,0,-1
EndSplineSet
EndChar

StartChar: U
Encoding: 85 85 56
Width: 745
Flags: W
LayerCount: 2
Fore
SplineSet
617.5 700 m 128,-1,1
 653 700 653 700 723 705 c 1,2,3
 724 698 724 698 724 689 c 128,-1,4
 724 680 724 680 721 670 c 1,5,6
 658 663 658 663 641 650 c 1,7,-1
 641 275 l 2,8,9
 641 103 641 103 579 41.5 c 128,-1,10
 517 -20 517 -20 377 -20 c 128,-1,11
 237 -20 237 -20 169 39.5 c 128,-1,12
 101 99 101 99 101 265 c 2,13,-1
 101 650 l 1,14,15
 84 663 84 663 24 670 c 1,16,17
 23 675 23 675 23 684 c 128,-1,18
 23 693 23 693 29 705 c 1,19,20
 97 700 97 700 131 700 c 2,21,-1
 183 700 l 1,22,-1
 220 702 l 2,23,24
 250 703 250 703 288 705 c 1,25,26
 289 698 289 698 289 689 c 128,-1,27
 289 680 289 680 286 670 c 1,28,29
 223 663 223 663 206 650 c 1,30,-1
 206 235 l 2,31,32
 206 30 206 30 407 30 c 0,33,34
 570 30 570 30 582 209 c 0,35,36
 586 258 586 258 586 305 c 2,37,-1
 586 650 l 1,38,39
 569 663 569 663 509 670 c 1,40,41
 508 675 508 675 508 684 c 128,-1,42
 508 693 508 693 514 705 c 1,43,0
 582 700 582 700 617.5 700 c 128,-1,1
EndSplineSet
EndChar

StartChar: V
Encoding: 86 86 57
Width: 673
Flags: W
LayerCount: 2
Fore
SplineSet
582.5 700 m 128,-1,1
 619 700 619 700 689 705 c 1,2,3
 690 698 690 698 690 689 c 128,-1,4
 690 680 690 680 687 670 c 1,5,6
 625 663 625 663 605 650 c 1,7,-1
 365 -20 l 1,8,9
 348 -30 348 -30 329 -30 c 1,10,-1
 62 650 l 1,11,12
 45 663 45 663 -15 670 c 1,13,14
 -16 675 -16 675 -16 684 c 128,-1,15
 -16 693 -16 693 -10 705 c 1,16,17
 24 702 24 702 58 702 c 1,18,-1
 95 700 l 1,19,20
 127 700 127 700 159 700 c 1,21,-1
 196 702 l 2,22,23
 226 703 226 703 264 705 c 1,24,25
 265 698 265 698 265 689 c 128,-1,26
 265 680 265 680 262 670 c 1,27,28
 199 663 199 663 182 650 c 1,29,-1
 353 194 l 2,30,31
 366 160 366 160 372 125 c 1,32,-1
 374 125 l 1,33,-1
 415 260 l 2,34,35
 436 328 436 328 458 390 c 2,36,-1
 550 650 l 1,37,38
 533 663 533 663 473 670 c 1,39,40
 472 675 472 675 472 684 c 128,-1,41
 472 693 472 693 478 705 c 1,42,0
 546 700 546 700 582.5 700 c 128,-1,1
EndSplineSet
EndChar

StartChar: W
Encoding: 87 87 58
Width: 992
Flags: W
LayerCount: 2
Fore
SplineSet
883 700 m 128,-1,1
 924 700 924 700 994 705 c 1,2,3
 995 698 995 698 995 689 c 128,-1,4
 995 680 995 680 992 670 c 1,5,6
 930 663 930 663 910 650 c 1,7,-1
 715 -20 l 1,8,9
 699 -30 699 -30 664 -30 c 1,10,-1
 492 436 l 1,11,-1
 355 -20 l 1,12,13
 339 -30 339 -30 308 -30 c 1,14,-1
 57 650 l 1,15,16
 40 663 40 663 -20 670 c 1,17,18
 -21 675 -21 675 -21 684 c 128,-1,19
 -21 693 -21 693 -15 705 c 1,20,21
 19 702 19 702 53 702 c 1,22,-1
 90 700 l 1,23,24
 122 700 122 700 154 700 c 1,25,-1
 191 702 l 2,26,27
 221 703 221 703 259 705 c 1,28,29
 260 698 260 698 260 689 c 128,-1,30
 260 680 260 680 257 670 c 1,31,32
 194 663 194 663 176 650 c 1,33,-1
 308 257 l 1,34,35
 339 174 339 174 348 120 c 1,36,-1
 350 120 l 1,37,-1
 403 304 l 2,38,39
 414 342 414 342 429 390 c 2,40,-1
 465 509 l 1,41,-1
 413 650 l 1,42,43
 396 663 396 663 336 670 c 1,44,45
 335 675 335 675 335 684 c 128,-1,46
 335 693 335 693 341 705 c 1,47,48
 375 702 375 702 409 702 c 1,49,-1
 446 700 l 1,50,51
 478 700 478 700 510 700 c 1,52,-1
 547 702 l 2,53,54
 577 703 577 703 615 705 c 1,55,56
 616 698 616 698 616 689 c 128,-1,57
 616 680 616 680 613 670 c 1,58,59
 550 663 550 663 532 650 c 1,60,-1
 662 262 l 1,61,62
 693 178 693 178 704 115 c 1,63,-1
 706 115 l 1,64,-1
 856 650 l 1,65,66
 842 662 842 662 792 668 c 1,67,-1
 769 670 l 1,68,69
 768 675 768 675 768 684 c 128,-1,70
 768 693 768 693 774 705 c 1,71,0
 842 700 842 700 883 700 c 128,-1,1
EndSplineSet
EndChar

StartChar: X
Encoding: 88 88 59
Width: 671
Flags: W
LayerCount: 2
Fore
SplineSet
551.5 700 m 128,-1,1
 589 700 589 700 659 705 c 1,2,3
 660 698 660 698 660 689 c 128,-1,4
 660 680 660 680 657 670 c 1,5,6
 595 663 595 663 575 650 c 1,7,-1
 382 381 l 1,8,-1
 585 58 l 1,9,10
 614 31 614 31 641.5 31 c 128,-1,11
 669 31 669 31 678 30 c 1,12,13
 679 25 679 25 679 16 c 128,-1,14
 679 7 679 7 673 -5 c 1,15,16
 602 0 602 0 530.5 0 c 128,-1,17
 459 0 459 0 388 -5 c 1,18,19
 387 2 387 2 387 11 c 128,-1,20
 387 20 387 20 390 30 c 1,21,22
 453 37 453 37 471 50 c 1,23,-1
 312 299 l 1,24,-1
 137 50 l 1,25,26
 156 33 156 33 214 30 c 1,27,28
 215 25 215 25 215 16 c 128,-1,29
 215 7 215 7 209 -5 c 1,30,31
 142 0 142 0 103 0 c 128,-1,32
 64 0 64 0 42 -2 c 2,33,-1
 -8 -5 l 1,34,35
 -9 2 -9 2 -9 11 c 128,-1,36
 -9 20 -9 20 -6 30 c 1,37,38
 57 37 57 37 74 50 c 1,39,-1
 285 343 l 1,40,-1
 90 650 l 1,41,42
 73 663 73 663 13 670 c 1,43,44
 12 675 12 675 12 684 c 128,-1,45
 12 693 12 693 18 705 c 1,46,47
 52 702 52 702 86 702 c 1,48,-1
 123 700 l 1,49,50
 156 700 156 700 188 700 c 1,51,-1
 226 702 l 2,52,53
 258 703 258 703 295 705 c 1,54,55
 296 698 296 698 296 689 c 128,-1,56
 296 680 296 680 293 670 c 1,57,58
 230 663 230 663 212 650 c 1,59,-1
 354 422 l 1,60,-1
 518 650 l 1,61,62
 501 663 501 663 441 670 c 1,63,64
 440 675 440 675 440 684 c 128,-1,65
 440 693 440 693 446 705 c 1,66,0
 514 700 514 700 551.5 700 c 128,-1,1
EndSplineSet
EndChar

StartChar: Y
Encoding: 89 89 60
Width: 655
Flags: W
LayerCount: 2
Fore
SplineSet
92 700 m 1,0,1
 124 700 124 700 156 700 c 1,2,-1
 194 702 l 2,3,4
 226 703 226 703 263 705 c 1,5,6
 264 698 264 698 264 689 c 128,-1,7
 264 680 264 680 261 670 c 1,8,9
 198 663 198 663 180 650 c 1,10,-1
 345 366 l 1,11,-1
 349 366 l 1,12,-1
 515 650 l 1,13,14
 498 663 498 663 438 670 c 1,15,16
 437 675 437 675 437 684 c 128,-1,17
 437 693 437 693 443 705 c 1,18,19
 511 700 511 700 552 700 c 128,-1,20
 593 700 593 700 663 705 c 1,21,22
 664 698 664 698 664 689 c 128,-1,23
 664 680 664 680 661 670 c 1,24,25
 595 662 595 662 576 650 c 1,26,-1
 384 321 l 1,27,-1
 384 50 l 1,28,29
 403 33 403 33 461 30 c 1,30,31
 462 25 462 25 462 16 c 128,-1,32
 462 7 462 7 456 -5 c 1,33,34
 392 0 392 0 327.5 0 c 128,-1,35
 263 0 263 0 197 -5 c 1,36,37
 196 2 196 2 196 11 c 128,-1,38
 196 20 196 20 199 30 c 1,39,40
 262 37 262 37 279 50 c 1,41,-1
 279 301 l 1,42,-1
 64 650 l 1,43,44
 47 663 47 663 -13 670 c 1,45,46
 -14 675 -14 675 -14 684 c 128,-1,47
 -14 693 -14 693 -8 705 c 1,48,49
 26 702 26 702 57 702 c 1,50,-1
 92 700 l 1,0,1
EndSplineSet
EndChar

StartChar: Z
Encoding: 90 90 61
Width: 565
Flags: W
LayerCount: 2
Fore
SplineSet
522 700 m 1,0,-1
 522 660 l 1,1,-1
 154 45 l 1,2,-1
 443 45 l 1,3,4
 447 114 447 114 472 188 c 1,5,6
 480 189 480 189 490.5 189 c 128,-1,7
 501 189 501 189 512 185 c 1,8,-1
 518 144 l 2,9,10
 531 60 531 60 522 0 c 1,11,-1
 34 0 l 1,12,-1
 33 45 l 1,13,-1
 406 655 l 1,14,-1
 130 655 l 1,15,16
 124 589 124 589 101 512 c 1,17,18
 93 511 93 511 82.5 511 c 128,-1,19
 72 511 72 511 61 515 c 1,20,-1
 54 556 l 2,21,22
 47 601 47 601 47 636.5 c 128,-1,23
 47 672 47 672 51 700 c 1,24,-1
 522 700 l 1,0,-1
EndSplineSet
EndChar

StartChar: bracketleft
Encoding: 91 91 62
Width: 290
Flags: W
LayerCount: 2
Fore
SplineSet
275 717 m 128,-1,1
 275 706 275 706 270 695 c 1,2,-1
 166 695 l 1,3,-1
 166 -93 l 1,4,-1
 270 -93 l 1,5,6
 274 -105 274 -105 274 -116 c 128,-1,7
 274 -127 274 -127 270 -136 c 1,8,-1
 83 -136 l 1,9,-1
 83 739 l 1,10,-1
 270 739 l 1,11,0
 275 728 275 728 275 717 c 128,-1,1
EndSplineSet
EndChar

StartChar: backslash
Encoding: 92 92 63
Width: 461
Flags: W
LayerCount: 2
Fore
SplineSet
30 700 m 1,0,1
 63 709 63 709 91 709 c 1,2,-1
 430 -92 l 1,3,4
 408 -101 408 -101 392 -101 c 128,-1,5
 376 -101 376 -101 369 -100 c 1,6,-1
 30 700 l 1,0,1
EndSplineSet
EndChar

StartChar: bracketright
Encoding: 93 93 64
Width: 290
Flags: W
LayerCount: 2
Fore
SplineSet
214 739 m 1,0,-1
 214 -136 l 1,1,-1
 27 -136 l 1,2,3
 23 -127 23 -127 23 -116 c 128,-1,4
 23 -105 23 -105 27 -93 c 1,5,-1
 131 -93 l 1,6,-1
 131 695 l 1,7,-1
 27 695 l 1,8,9
 22 706 22 706 22 717 c 128,-1,10
 22 728 22 728 27 739 c 1,11,-1
 214 739 l 1,0,-1
EndSplineSet
EndChar

StartChar: asciicircum
Encoding: 94 94 65
Width: 481
Flags: W
LayerCount: 2
Fore
SplineSet
240 748 m 1,0,-1
 246 748 l 1,1,-1
 475 520 l 1,2,3
 464 502 464 502 444 492 c 128,-1,4
 424 482 424 482 420 482 c 1,5,-1
 244 656 l 1,6,-1
 242 656 l 1,7,-1
 66 482 l 1,8,9
 52 482 52 482 33 498.5 c 128,-1,10
 14 515 14 515 11 520 c 1,11,-1
 240 748 l 1,0,-1
EndSplineSet
EndChar

StartChar: underscore
Encoding: 95 95 66
Width: 654
Flags: W
LayerCount: 2
Fore
SplineSet
591 -60 m 1,0,1
 591 -109 591 -109 580 -124 c 1,2,-1
 62 -124 l 1,3,4
 61 -119 61 -119 61 -110.5 c 128,-1,5
 61 -102 61 -102 65.5 -82.5 c 128,-1,6
 70 -63 70 -63 73 -60 c 1,7,-1
 591 -60 l 1,0,1
EndSplineSet
EndChar

StartChar: grave
Encoding: 96 96 67
Width: 187
Flags: W
LayerCount: 2
Fore
SplineSet
164 583 m 1,0,1
 152 571 152 571 128 566 c 1,2,3
 95 598 95 598 65 636 c 1,4,-1
 4 717 l 1,5,6
 31 748 31 748 84 757 c 1,7,-1
 164 583 l 1,0,1
EndSplineSet
EndChar

StartChar: a
Encoding: 97 97 68
Width: 496
Flags: W
LayerCount: 2
Fore
SplineSet
232.5 475 m 128,-1,1
 183 475 183 475 140 460 c 1,2,3
 140 411 140 411 123 354 c 1,4,5
 111 348 111 348 99.5 348 c 128,-1,6
 88 348 88 348 79 350 c 1,7,8
 59 398 59 398 59 480 c 1,9,10
 146 520 146 520 226.5 520 c 128,-1,11
 307 520 307 520 338 508.5 c 128,-1,12
 369 497 369 497 392 462.5 c 128,-1,13
 415 428 415 428 415 304 c 2,14,-1
 415 49 l 1,15,16
 435 29 435 29 485 29 c 1,17,18
 486 24 486 24 486 15 c 128,-1,19
 486 6 486 6 480 -6 c 1,20,21
 432 -13 432 -13 397 -13 c 128,-1,22
 362 -13 362 -13 339 -7 c 1,23,24
 324 16 324 16 320 45 c 1,25,-1
 315 45 l 1,26,27
 250 -20 250 -20 164 -20 c 128,-1,28
 78 -20 78 -20 41 58 c 0,29,30
 30 82 30 82 30 110 c 0,31,32
 30 270 30 270 299 270 c 0,33,34
 308 270 308 270 317 270 c 1,35,-1
 318 358 l 2,36,37
 318 361 318 361 318 364 c 0,38,39
 318 417 318 417 300 446 c 128,-1,0
 282 475 282 475 232.5 475 c 128,-1,1
199 35 m 0,40,41
 273 35 273 35 317 95 c 1,42,-1
 317 230 l 1,43,44
 214 230 214 230 168 205.5 c 128,-1,45
 122 181 122 181 122 129.5 c 128,-1,46
 122 78 122 78 148 56.5 c 128,-1,47
 174 35 174 35 199 35 c 0,40,41
EndSplineSet
EndChar

StartChar: b
Encoding: 98 98 69
Width: 566
Flags: W
LayerCount: 2
Fore
SplineSet
272 25 m 0,0,1
 417 25 417 25 417 249 c 0,2,3
 417 355 417 355 383.5 407.5 c 128,-1,4
 350 460 350 460 287.5 460 c 128,-1,5
 225 460 225 460 172 392 c 1,6,-1
 172 48 l 1,7,8
 218 25 218 25 272 25 c 0,0,1
307 510 m 0,9,10
 527 510 527 510 527 244 c 0,11,12
 527 117 527 117 456.5 51 c 128,-1,13
 386 -15 386 -15 271 -15 c 128,-1,14
 156 -15 156 -15 67 23 c 1,15,-1
 67 686 l 1,16,17
 67 686 67 686 52 686 c 0,18,19
 18 686 18 686 -16 694 c 1,20,21
 -17 699 -17 699 -17 709 c 128,-1,22
 -17 719 -17 719 -11 729 c 1,23,24
 78 740 78 740 127 756 c 1,25,26
 146 755 146 755 167 745 c 1,27,-1
 167 455 l 1,28,-1
 172 450 l 1,29,30
 241 510 241 510 307 510 c 0,9,10
EndSplineSet
EndChar

StartChar: c
Encoding: 99 99 70
Width: 484
Flags: W
LayerCount: 2
Fore
SplineSet
452 55 m 1,0,1
 381 -20 381 -20 276 -20 c 128,-1,2
 171 -20 171 -20 104 52.5 c 128,-1,3
 37 125 37 125 37 253.5 c 128,-1,4
 37 382 37 382 108 451 c 128,-1,5
 179 520 179 520 281.5 520 c 128,-1,6
 384 520 384 520 454 487 c 1,7,8
 455 476 455 476 455 464 c 0,9,10
 455 397 455 397 433 343 c 1,11,12
 426 341 426 341 415.5 341 c 128,-1,13
 405 341 405 341 391 348 c 1,14,15
 371 400 371 400 371 448 c 0,16,17
 371 456 371 456 372 463 c 1,18,19
 341 478 341 478 305 478 c 2,20,-1
 298 478 l 1,21,22
 222 475 222 475 183 412.5 c 128,-1,23
 144 350 144 350 144 272 c 0,24,25
 144 144 144 144 186 89.5 c 128,-1,26
 228 35 228 35 291.5 35 c 128,-1,27
 355 35 355 35 384.5 50.5 c 128,-1,28
 414 66 414 66 434 81 c 1,29,30
 448 72 448 72 452 55 c 1,0,1
EndSplineSet
EndChar

StartChar: d
Encoding: 100 100 71
Width: 595
Flags: W
LayerCount: 2
Fore
SplineSet
36 242 m 0,0,1
 36 366 36 366 115.5 443 c 128,-1,2
 195 520 195 520 301 520 c 0,3,4
 358 520 358 520 408 495 c 1,5,-1
 408 686 l 1,6,7
 408 686 408 686 393 686 c 0,8,9
 359 686 359 686 325 694 c 1,10,11
 324 699 324 699 324 709 c 128,-1,12
 324 719 324 719 330 729 c 1,13,14
 419 740 419 740 468 756 c 1,15,16
 487 755 487 755 508 745 c 1,17,-1
 508 48 l 1,18,19
 524 34 524 34 578 28 c 1,20,21
 579 23 579 23 579 14 c 128,-1,22
 579 5 579 5 573 -7 c 1,23,24
 525 -14 525 -14 490 -14 c 128,-1,25
 455 -14 455 -14 432 -8 c 1,26,27
 417 16 417 16 413 45 c 1,28,-1
 408 45 l 1,29,30
 332 -20 332 -20 253 -20 c 0,31,32
 102 -20 102 -20 52 128 c 0,33,34
 36 178 36 178 36 242 c 0,0,1
321 475 m 0,35,36
 240 475 240 475 193.5 412.5 c 128,-1,37
 147 350 147 350 147 251 c 0,38,39
 147 38 147 38 294 38 c 0,40,41
 358 38 358 38 408 91 c 1,42,-1
 408 440 l 1,43,44
 367 475 367 475 321 475 c 0,35,36
EndSplineSet
EndChar

StartChar: e
Encoding: 101 101 72
Width: 505
Flags: W
LayerCount: 2
Fore
SplineSet
283.5 480 m 128,-1,1
 229 480 229 480 195 436.5 c 128,-1,2
 161 393 161 393 153 311 c 1,3,-1
 376 323 l 1,4,5
 376 401 376 401 357 440.5 c 128,-1,0
 338 480 338 480 283.5 480 c 128,-1,1
286 520 m 0,6,7
 423 520 423 520 459 390 c 0,8,9
 470 350 470 350 470 304 c 2,10,-1
 470 291 l 2,11,12
 470 285 470 285 469 278 c 1,13,-1
 455 267 l 1,14,-1
 148 270 l 1,15,-1
 148 250 l 2,16,17
 148 148 148 148 186 91.5 c 128,-1,18
 224 35 224 35 292 35 c 128,-1,19
 360 35 360 35 389 50.5 c 128,-1,20
 418 66 418 66 438 80 c 1,21,22
 454 73 454 73 456 56 c 1,23,24
 395 -20 395 -20 285.5 -20 c 128,-1,25
 176 -20 176 -20 106 52 c 128,-1,26
 36 124 36 124 36 249.5 c 128,-1,27
 36 375 36 375 106.5 447.5 c 128,-1,28
 177 520 177 520 286 520 c 0,6,7
EndSplineSet
EndChar

StartChar: f
Encoding: 102 102 73
Width: 352
Flags: W
LayerCount: 2
Fore
SplineSet
284 755 m 0,0,1
 338 755 338 755 386 725 c 1,2,3
 383 651 383 651 367 616 c 1,4,5
 359 614 359 614 348.5 614 c 128,-1,6
 338 614 338 614 326 620 c 1,7,8
 315 664 315 664 315 708 c 1,9,10
 296 716 296 716 276 716 c 0,11,12
 198 716 198 716 198 560 c 2,13,-1
 198 475 l 1,14,-1
 338 475 l 1,15,16
 338 441 338 441 328 425 c 1,17,-1
 198 425 l 1,18,-1
 198 50 l 1,19,20
 209 39 209 39 247.5 35 c 128,-1,21
 286 31 286 31 295 30 c 1,22,23
 296 25 296 25 296 16 c 128,-1,24
 296 7 296 7 290 -5 c 1,25,26
 224 0 224 0 158 0 c 128,-1,27
 92 0 92 0 26 -5 c 1,28,29
 25 2 25 2 25 11 c 128,-1,30
 25 20 25 20 28 30 c 1,31,32
 79 36 79 36 98 50 c 1,33,-1
 98 425 l 1,34,-1
 33 425 l 1,35,36
 32 432 32 432 32 445 c 128,-1,37
 32 458 32 458 43 475 c 1,38,-1
 98 475 l 1,39,-1
 98 535 l 2,40,41
 98 690 98 690 198 740 c 0,42,43
 228 755 228 755 278 755 c 0,44,45
 281 755 281 755 284 755 c 0,0,1
EndSplineSet
EndChar

StartChar: g
Encoding: 103 103 74
Width: 548
Flags: W
LayerCount: 2
Fore
SplineSet
175 -14 m 1,0,1
 125 -54 125 -54 125.5 -108 c 128,-1,2
 126 -162 126 -162 154 -187 c 1,3,4
 205 -230 205 -230 258 -230 c 0,5,6
 346 -230 346 -230 392 -196 c 128,-1,7
 438 -162 438 -162 438 -128 c 128,-1,8
 438 -94 438 -94 419.5 -72.5 c 128,-1,9
 401 -51 401 -51 340 -40 c 2,10,-1
 282 -30 l 2,11,12
 262 -27 262 -27 233 -24 c 128,-1,13
 204 -21 204 -21 175 -14 c 1,0,1
387 322 m 0,14,15
 387 470 387 470 268 470 c 0,16,17
 206 470 206 470 175 429 c 128,-1,18
 144 388 144 388 144 341 c 0,19,20
 144 262 144 262 177 218.5 c 128,-1,21
 210 175 210 175 270 175 c 128,-1,22
 330 175 330 175 358.5 216.5 c 128,-1,23
 387 258 387 258 387 322 c 0,14,15
410 471 m 1,24,25
 483 435 483 435 483 330.5 c 128,-1,26
 483 226 483 226 418 180.5 c 128,-1,27
 353 135 353 135 275 135 c 128,-1,28
 197 135 197 135 155 156 c 1,29,30
 133 136 133 136 133 120.5 c 128,-1,31
 133 105 133 105 145.5 92 c 128,-1,32
 158 79 158 79 206 71.5 c 128,-1,33
 254 64 254 64 313 58 c 0,34,35
 434 44 434 44 483.5 15 c 128,-1,36
 533 -14 533 -14 533 -95.5 c 128,-1,37
 533 -177 533 -177 453 -223.5 c 128,-1,38
 373 -270 373 -270 290 -270 c 0,39,40
 155 -270 155 -270 97.5 -235 c 128,-1,41
 40 -200 40 -200 40 -132 c 128,-1,42
 40 -64 40 -64 136 -3 c 1,43,44
 69 22 69 22 69 75 c 128,-1,45
 69 128 69 128 110 153 c 0,46,47
 122 160 122 160 133 166 c 1,48,49
 48 219 48 219 48 318.5 c 128,-1,50
 48 418 48 418 113 464 c 128,-1,51
 178 510 178 510 257 510 c 128,-1,52
 336 510 336 510 384 494 c 1,53,-1
 514 569 l 1,54,55
 535 555 535 555 540 526 c 0,56,57
 546 485 546 485 544 481 c 1,58,59
 499 467 499 467 466 467 c 128,-1,60
 433 467 433 467 410 471 c 1,24,25
EndSplineSet
EndChar

StartChar: h
Encoding: 104 104 75
Width: 598
Flags: W
LayerCount: 2
Fore
SplineSet
353.5 510 m 128,-1,1
 438 510 438 510 477 467 c 128,-1,2
 516 424 516 424 516 354 c 2,3,-1
 516 50 l 1,4,5
 532 36 532 36 588 30 c 1,6,7
 589 25 589 25 589 16 c 128,-1,8
 589 7 589 7 583 -5 c 1,9,10
 524 -1 524 -1 464.5 -1 c 128,-1,11
 405 -1 405 -1 344 -5 c 1,12,13
 343 2 343 2 343 11 c 128,-1,14
 343 20 343 20 346 30 c 1,15,16
 397 36 397 36 416 50 c 1,17,-1
 416 339 l 2,18,19
 416 423 416 423 354 436 c 0,20,21
 336 440 336 440 310 440 c 128,-1,22
 284 440 284 440 248 424 c 128,-1,23
 212 408 212 408 189 382 c 1,24,-1
 189 50 l 1,25,26
 206 35 206 35 256 30 c 1,27,28
 257 25 257 25 257 16 c 128,-1,29
 257 7 257 7 251 -5 c 1,30,31
 194 -1 194 -1 135.5 -1 c 128,-1,32
 77 -1 77 -1 17 -5 c 1,33,34
 16 2 16 2 16 11 c 128,-1,35
 16 20 16 20 19 30 c 1,36,37
 70 36 70 36 89 50 c 1,38,-1
 89 686 l 1,39,-1
 74 686 l 2,40,41
 40 686 40 686 6 694 c 1,42,43
 5 699 5 699 5 709 c 128,-1,44
 5 719 5 719 11 729 c 1,45,46
 100 740 100 740 149 756 c 1,47,48
 168 755 168 755 189 745 c 1,49,-1
 184 435 l 1,50,-1
 189 435 l 1,51,0
 269 510 269 510 353.5 510 c 128,-1,1
EndSplineSet
EndChar

StartChar: i
Encoding: 105 105 76
Width: 290
Flags: W
LayerCount: 2
Fore
SplineSet
267 -5 m 1,0,1
 210 -1 210 -1 151.5 -1 c 128,-1,2
 93 -1 93 -1 33 -5 c 1,3,4
 32 2 32 2 32 11 c 128,-1,5
 32 20 32 20 35 30 c 1,6,7
 86 36 86 36 104 50 c 1,8,-1
 104 440 l 1,9,-1
 89 440 l 2,10,11
 55 440 55 440 21 448 c 1,12,13
 20 453 20 453 20 463 c 128,-1,14
 20 473 20 473 26 483 c 1,15,16
 115 494 115 494 164 510 c 1,17,18
 183 509 183 509 204 499 c 1,19,-1
 204 50 l 1,20,21
 220 35 220 35 272 30 c 1,22,23
 273 25 273 25 273 16 c 128,-1,24
 273 7 273 7 267 -5 c 1,0,1
177 617.5 m 128,-1,26
 152 597 152 597 127 597 c 128,-1,27
 102 597 102 597 82 621 c 128,-1,28
 62 645 62 645 62 667.5 c 128,-1,29
 62 690 62 690 86.5 711 c 128,-1,30
 111 732 111 732 137.5 732 c 128,-1,31
 164 732 164 732 183 708.5 c 128,-1,32
 202 685 202 685 202 661.5 c 128,-1,25
 202 638 202 638 177 617.5 c 128,-1,26
EndSplineSet
EndChar

StartChar: j
Encoding: 106 106 77
Width: 261
Flags: W
LayerCount: 2
Fore
SplineSet
166 617.5 m 128,-1,1
 141 597 141 597 116 597 c 128,-1,2
 91 597 91 597 71 621 c 128,-1,3
 51 645 51 645 51 667.5 c 128,-1,4
 51 690 51 690 75.5 711 c 128,-1,5
 100 732 100 732 126.5 732 c 128,-1,6
 153 732 153 732 172 708.5 c 128,-1,7
 191 685 191 685 191 661.5 c 128,-1,0
 191 638 191 638 166 617.5 c 128,-1,1
190 34 m 2,8,9
 190 -142 190 -142 -5 -246 c 1,10,11
 -24 -231 -24 -231 -24 -208 c 2,12,-1
 -24 -203 l 1,13,14
 74 -145 74 -145 86 -43 c 0,15,16
 90 -10 90 -10 90 30 c 2,17,-1
 90 437 l 1,18,19
 80 436 80 436 61 436 c 128,-1,20
 42 436 42 436 17 444 c 1,21,22
 16 449 16 449 16 459 c 128,-1,23
 16 469 16 469 22 479 c 1,24,25
 94 488 94 488 150 506 c 1,26,-1
 190 500 l 1,27,-1
 190 34 l 2,8,9
EndSplineSet
EndChar

StartChar: k
Encoding: 107 107 78
Width: 542
Flags: W
LayerCount: 2
Fore
SplineSet
410 500 m 128,-1,1
 454 500 454 500 524 505 c 1,2,3
 525 498 525 498 525 489 c 128,-1,4
 525 480 525 480 522 470 c 1,5,6
 445 460 445 460 427 445 c 1,7,-1
 272 294 l 1,8,-1
 473 50 l 1,9,10
 490 35 490 35 540 30 c 1,11,12
 541 25 541 25 541 16 c 128,-1,13
 541 7 541 7 535 -5 c 1,14,15
 479 -1 479 -1 422.5 -1 c 128,-1,16
 366 -1 366 -1 308 -5 c 1,17,18
 307 2 307 2 307 11 c 128,-1,19
 307 20 307 20 310 30 c 1,20,21
 353 35 353 35 373 50 c 1,22,-1
 213 237 l 1,23,-1
 189 215 l 1,24,-1
 189 50 l 1,25,26
 206 35 206 35 251 30 c 1,27,28
 252 25 252 25 252 16 c 128,-1,29
 252 7 252 7 246 -5 c 1,30,31
 190 -1 190 -1 132.5 -1 c 128,-1,32
 75 -1 75 -1 17 -5 c 1,33,34
 16 2 16 2 16 11 c 128,-1,35
 16 20 16 20 19 30 c 1,36,37
 70 36 70 36 89 50 c 1,38,-1
 89 686 l 1,39,-1
 74 686 l 2,40,41
 40 686 40 686 6 694 c 1,42,43
 5 699 5 699 5 709 c 128,-1,44
 5 719 5 719 11 729 c 1,45,46
 101 740 101 740 150 756 c 1,47,48
 168 755 168 755 189 745 c 1,49,-1
 189 277 l 1,50,-1
 360 450 l 1,51,52
 343 465 343 465 293 470 c 1,53,54
 292 475 292 475 292 484 c 128,-1,55
 292 493 292 493 298 505 c 1,56,0
 366 500 366 500 410 500 c 128,-1,1
EndSplineSet
EndChar

StartChar: l
Encoding: 108 108 79
Width: 279
Flags: W
LayerCount: 2
Fore
SplineSet
262 -5 m 1,0,1
 202 -1 202 -1 141 -1 c 128,-1,2
 80 -1 80 -1 18 -5 c 1,3,4
 17 2 17 2 17 11 c 128,-1,5
 17 20 17 20 20 30 c 1,6,7
 71 36 71 36 89 50 c 1,8,-1
 89 686 l 1,9,-1
 74 686 l 2,10,11
 40 686 40 686 6 694 c 1,12,13
 5 699 5 699 5 709 c 128,-1,14
 5 719 5 719 11 729 c 1,15,16
 100 740 100 740 149 756 c 1,17,18
 168 755 168 755 189 745 c 1,19,-1
 189 50 l 1,20,21
 202 37 202 37 267 30 c 1,22,23
 268 25 268 25 268 16 c 128,-1,24
 268 7 268 7 262 -5 c 1,0,1
EndSplineSet
EndChar

StartChar: m
Encoding: 109 109 80
Width: 906
Flags: W
LayerCount: 2
Fore
SplineSet
373 510 m 128,-1,1
 467 510 467 510 506 419 c 1,2,-1
 522 435 l 2,3,4
 597 510 597 510 670.5 510 c 128,-1,5
 744 510 744 510 785.5 460 c 128,-1,6
 827 410 827 410 827 335 c 2,7,-1
 827 50 l 1,8,9
 844 35 844 35 894 30 c 1,10,11
 895 25 895 25 895 16 c 128,-1,12
 895 7 895 7 889 -5 c 1,13,14
 832 -1 832 -1 773.5 -1 c 128,-1,15
 715 -1 715 -1 655 -5 c 1,16,17
 654 2 654 2 654 11 c 128,-1,18
 654 20 654 20 657 30 c 1,19,20
 708 36 708 36 727 50 c 1,21,-1
 727 320 l 2,22,23
 727 440 727 440 637 440 c 0,24,25
 575 440 575 440 522 375 c 1,26,-1
 522 50 l 1,27,28
 539 35 539 35 589 30 c 1,29,30
 590 25 590 25 590 16 c 128,-1,31
 590 7 590 7 584 -5 c 1,32,33
 527 -1 527 -1 468.5 -1 c 128,-1,34
 410 -1 410 -1 350 -5 c 1,35,36
 349 2 349 2 349 11 c 128,-1,37
 349 20 349 20 352 30 c 1,38,39
 403 36 403 36 422 50 c 1,40,-1
 422 320 l 2,41,42
 422 440 422 440 337 440 c 0,43,44
 305 440 305 440 265.5 425.5 c 128,-1,45
 226 411 226 411 200 380 c 1,46,-1
 200 50 l 1,47,48
 217 35 217 35 267 30 c 1,49,50
 268 25 268 25 268 16 c 128,-1,51
 268 7 268 7 262 -5 c 1,52,53
 205 -1 205 -1 146.5 -1 c 128,-1,54
 88 -1 88 -1 28 -5 c 1,55,56
 27 2 27 2 27 11 c 128,-1,57
 27 20 27 20 30 30 c 1,58,59
 81 36 81 36 100 50 c 1,60,-1
 100 434 l 1,61,-1
 89 434 l 2,62,63
 60 434 60 434 27 442 c 1,64,65
 26 447 26 447 26 457 c 128,-1,66
 26 467 26 467 32 477 c 1,67,68
 104 486 104 486 160 504 c 1,69,70
 175 502 175 502 194 493 c 1,71,-1
 192 427 l 1,72,-1
 193 426 l 1,73,0
 279 510 279 510 373 510 c 128,-1,1
EndSplineSet
EndChar

StartChar: n
Encoding: 110 110 81
Width: 606
Flags: W
LayerCount: 2
Fore
SplineSet
373 510 m 0,0,1
 436 510 436 510 468 482 c 0,2,3
 524 434 524 434 524 365 c 2,4,-1
 525 50 l 1,5,6
 541 36 541 36 595 30 c 1,7,8
 596 25 596 25 596 16 c 128,-1,9
 596 7 596 7 590 -5 c 1,10,11
 533 -1 533 -1 474.5 -1 c 128,-1,12
 416 -1 416 -1 357 -5 c 1,13,14
 356 2 356 2 356 11 c 128,-1,15
 356 20 356 20 359 30 c 1,16,17
 405 35 405 35 425 50 c 1,18,-1
 425 320 l 2,19,20
 425 388 425 388 404 414 c 128,-1,21
 383 440 383 440 337 440 c 0,22,23
 254 440 254 440 200 380 c 1,24,-1
 200 50 l 1,25,26
 217 35 217 35 267 30 c 1,27,28
 268 25 268 25 268 16 c 128,-1,29
 268 7 268 7 262 -5 c 1,30,31
 205 -1 205 -1 146.5 -1 c 128,-1,32
 88 -1 88 -1 28 -5 c 1,33,34
 27 2 27 2 27 11 c 128,-1,35
 27 20 27 20 30 30 c 1,36,37
 81 36 81 36 100 50 c 1,38,-1
 100 434 l 1,39,-1
 89 434 l 2,40,41
 60 434 60 434 27 442 c 1,42,43
 26 447 26 447 26 457 c 128,-1,44
 26 467 26 467 32 477 c 1,45,46
 104 486 104 486 160 504 c 1,47,48
 175 502 175 502 194 493 c 1,49,-1
 192 427 l 1,50,-1
 193 426 l 1,51,52
 279 510 279 510 373 510 c 0,0,1
EndSplineSet
EndChar

StartChar: o
Encoding: 111 111 82
Width: 582
Flags: W
LayerCount: 2
Fore
SplineSet
435 214 m 0,0,1
 435 474 435 474 291 474 c 128,-1,2
 147 474 147 474 147 239 c 0,3,4
 147 93 147 93 226 44 c 0,5,6
 254 26 254 26 294 26 c 0,7,8
 369 26 369 26 402 84 c 128,-1,9
 435 142 435 142 435 214 c 0,0,1
36 249 m 128,-1,11
 36 366 36 366 109 443 c 128,-1,12
 182 520 182 520 291 520 c 128,-1,13
 400 520 400 520 473 443 c 128,-1,14
 546 366 546 366 546 249 c 128,-1,15
 546 132 546 132 474 56 c 128,-1,16
 402 -20 402 -20 291 -20 c 128,-1,17
 180 -20 180 -20 108 56 c 128,-1,10
 36 132 36 132 36 249 c 128,-1,11
EndSplineSet
EndChar

StartChar: p
Encoding: 112 112 83
Width: 597
Flags: W
LayerCount: 2
Fore
SplineSet
449 250 m 0,0,1
 449 460 449 460 309 460 c 0,2,3
 242 460 242 460 189 392 c 1,4,-1
 189 60 l 1,5,6
 199 49 199 49 227 37 c 128,-1,7
 255 25 255 25 289 25 c 0,8,9
 364 25 364 25 406.5 83 c 128,-1,10
 449 141 449 141 449 250 c 0,0,1
328 510 m 0,11,12
 449 510 449 510 504 434.5 c 128,-1,13
 559 359 559 359 559 271 c 0,14,15
 559 121 559 121 482.5 53 c 128,-1,16
 406 -15 406 -15 279 -15 c 0,17,18
 237 -15 237 -15 189 -3 c 1,19,-1
 189 -200 l 1,20,21
 208 -217 208 -217 266 -220 c 1,22,23
 267 -225 267 -225 267 -234 c 128,-1,24
 267 -243 267 -243 261 -255 c 1,25,26
 193 -250 193 -250 140 -250 c 128,-1,27
 87 -250 87 -250 17 -255 c 1,28,29
 16 -248 16 -248 16 -239 c 128,-1,30
 16 -230 16 -230 19 -220 c 1,31,32
 70 -214 70 -214 89 -200 c 1,33,-1
 89 435 l 1,34,-1
 78 435 l 2,35,36
 49 435 49 435 16 443 c 1,37,38
 15 448 15 448 15 458 c 128,-1,39
 15 468 15 468 21 478 c 1,40,41
 93 487 93 487 149 505 c 1,42,43
 165 503 165 503 184 494 c 1,44,-1
 184 455 l 1,45,-1
 189 450 l 1,46,47
 258 510 258 510 328 510 c 0,11,12
EndSplineSet
EndChar

StartChar: q
Encoding: 113 113 84
Width: 575
Flags: W
LayerCount: 2
Fore
SplineSet
276 30 m 0,0,1
 356 30 356 30 408 98 c 1,2,-1
 408 430 l 1,3,4
 398 441 398 441 370 453 c 128,-1,5
 342 465 342 465 308 465 c 0,6,7
 233 465 233 465 190.5 407 c 128,-1,8
 148 349 148 349 148 225 c 128,-1,9
 148 101 148 101 217 50 c 0,10,11
 244 30 244 30 276 30 c 0,0,1
454 -250 m 128,-1,13
 406 -250 406 -250 336 -255 c 1,14,15
 335 -248 335 -248 335 -239 c 128,-1,16
 335 -230 335 -230 338 -220 c 1,17,18
 389 -214 389 -214 408 -200 c 1,19,-1
 408 40 l 1,20,21
 339 -20 339 -20 269 -20 c 0,22,23
 148 -20 148 -20 93 55.5 c 128,-1,24
 38 131 38 131 38 219 c 0,25,26
 38 369 38 369 114.5 437 c 128,-1,27
 191 505 191 505 303 505 c 128,-1,28
 415 505 415 505 508 450 c 1,29,-1
 508 -200 l 1,30,31
 525 -215 525 -215 575 -220 c 1,32,33
 576 -225 576 -225 576 -234 c 128,-1,34
 576 -243 576 -243 570 -255 c 1,35,12
 502 -250 502 -250 454 -250 c 128,-1,13
EndSplineSet
EndChar

StartChar: r
Encoding: 114 114 85
Width: 431
Flags: W
LayerCount: 2
Fore
SplineSet
348 509 m 0,0,1
 388 509 388 509 414 494 c 1,2,3
 415 477 415 477 415 462 c 0,4,5
 415 389 415 389 394 344 c 1,6,7
 385 342 385 342 373.5 342 c 128,-1,8
 362 342 362 342 349 348 c 1,9,10
 335 395 335 395 335 445 c 2,11,-1
 335 456 l 1,12,13
 252 456 252 456 200 334 c 1,14,-1
 200 50 l 1,15,16
 219 33 219 33 277 30 c 1,17,18
 278 25 278 25 278 16 c 128,-1,19
 278 7 278 7 272 -5 c 1,20,21
 212 -1 212 -1 151 -1 c 128,-1,22
 90 -1 90 -1 28 -5 c 1,23,24
 27 2 27 2 27 11 c 128,-1,25
 27 20 27 20 30 30 c 1,26,27
 81 36 81 36 100 50 c 1,28,-1
 100 434 l 1,29,-1
 89 434 l 2,30,31
 60 434 60 434 27 442 c 1,32,33
 26 447 26 447 26 457 c 128,-1,34
 26 467 26 467 32 477 c 1,35,36
 104 486 104 486 160 504 c 1,37,38
 176 502 176 502 195 493 c 1,39,-1
 195 405 l 1,40,-1
 196 404 l 1,41,42
 267 509 267 509 348 509 c 0,0,1
EndSplineSet
EndChar

StartChar: s
Encoding: 115 115 86
Width: 439
Flags: W
LayerCount: 2
Fore
SplineSet
212 -21 m 0,0,1
 104 -21 104 -21 38 20 c 1,2,-1
 38 35 l 2,3,4
 38 101 38 101 56 154 c 1,5,6
 66 155 66 155 79 155 c 128,-1,7
 92 155 92 155 106 150 c 1,8,9
 114 108 114 108 119 44 c 1,10,11
 153 26 153 26 202 26 c 128,-1,12
 251 26 251 26 282.5 45 c 128,-1,13
 314 64 314 64 314 91 c 0,14,15
 314 133 314 133 285 159 c 128,-1,16
 256 185 256 185 187 217 c 128,-1,17
 118 249 118 249 84 286 c 128,-1,18
 50 323 50 323 50 386.5 c 128,-1,19
 50 450 50 450 99 485 c 128,-1,20
 148 520 148 520 229.5 520 c 128,-1,21
 311 520 311 520 380 490 c 1,22,23
 381 478 381 478 381 466 c 0,24,25
 381 406 381 406 362 353 c 1,26,27
 355 352 355 352 344 352 c 128,-1,28
 333 352 333 352 317 357 c 1,29,-1
 306 409 l 2,30,31
 300 435 300 435 298 461 c 1,32,33
 262 474 262 474 229 474 c 0,34,35
 135 474 135 474 135 401 c 0,36,37
 135 358 135 358 196 320 c 0,38,39
 220 305 220 305 279 278 c 0,40,41
 404 219 404 219 404 132 c 0,42,43
 404 88 404 88 388 60 c 0,44,45
 341 -20 341 -20 212 -21 c 0,0,1
EndSplineSet
EndChar

StartChar: t
Encoding: 116 116 87
Width: 323
Flags: W
LayerCount: 2
Fore
SplineSet
88 119 m 2,0,-1
 88 440 l 1,1,-1
 18 440 l 1,2,3
 11 452 11 452 11 464 c 128,-1,4
 11 476 11 476 13 485 c 1,5,6
 74 485 74 485 95 508.5 c 128,-1,7
 116 532 116 532 137 605 c 1,8,-1
 188 605 l 1,9,-1
 188 495 l 1,10,-1
 293 495 l 1,11,12
 300 481 300 481 300 467 c 128,-1,13
 300 453 300 453 293 440 c 1,14,-1
 188 440 l 1,15,-1
 188 164 l 2,16,17
 188 57 188 57 214 40 c 0,18,19
 224 34 224 34 243.5 34 c 128,-1,20
 263 34 263 34 298 54 c 1,21,22
 311 45 311 45 313 24 c 1,23,24
 279 -16 279 -16 203 -16 c 0,25,26
 88 -16 88 -16 88 119 c 2,0,-1
EndSplineSet
EndChar

StartChar: u
Encoding: 117 117 88
Width: 590
Flags: W
LayerCount: 2
Fore
SplineSet
222 -16 m 0,0,1
 84 -16 84 -16 84 134 c 2,2,-1
 84 441 l 1,3,4
 84 441 84 441 73 441 c 0,5,6
 44 441 44 441 11 449 c 1,7,8
 10 454 10 454 10 464 c 128,-1,9
 10 474 10 474 16 484 c 1,10,11
 79 492 79 492 150 511 c 1,12,13
 165 509 165 509 184 500 c 1,14,-1
 184 149 l 2,15,16
 184 91 184 91 207 72.5 c 128,-1,17
 230 54 230 54 270 54 c 0,18,19
 346 54 346 54 403 118 c 1,20,-1
 403 441 l 1,21,-1
 392 441 l 2,22,23
 363 441 363 441 330 449 c 1,24,25
 329 454 329 454 329 464 c 128,-1,26
 329 474 329 474 335 484 c 1,27,28
 398 492 398 492 469 511 c 1,29,30
 484 509 484 509 503 500 c 1,31,-1
 503 48 l 1,32,33
 525 28 525 28 573 28 c 1,34,35
 574 23 574 23 574 14 c 128,-1,36
 574 5 574 5 568 -7 c 1,37,38
 522 -14 522 -14 488 -14 c 128,-1,39
 454 -14 454 -14 431 -8 c 1,40,41
 415 20 415 20 408 71 c 1,42,-1
 403 71 l 1,43,44
 334 2 334 2 277 -11 c 0,45,46
 256 -16 256 -16 222 -16 c 0,0,1
EndSplineSet
EndChar

StartChar: v
Encoding: 118 118 89
Width: 565
Flags: W
LayerCount: 2
Fore
SplineSet
123 500 m 128,-1,1
 180 500 180 500 250 505 c 1,2,3
 251 498 251 498 251 489 c 128,-1,4
 251 480 251 480 248 470 c 1,5,6
 198 464 198 464 179 450 c 1,7,-1
 262 235 l 1,8,-1
 304 99 l 1,9,-1
 307 99 l 1,10,-1
 336 196 l 1,11,-1
 426 450 l 1,12,13
 409 463 409 463 349 470 c 1,14,15
 348 475 348 475 348 484 c 128,-1,16
 348 493 348 493 354 505 c 1,17,18
 422 500 422 500 461.5 500 c 128,-1,19
 501 500 501 500 571 505 c 1,20,21
 572 498 572 498 572 489 c 128,-1,22
 572 480 572 480 569 470 c 1,23,24
 517 464 517 464 498 450 c 1,25,-1
 314 -17 l 1,26,27
 293 -30 293 -30 269 -30 c 1,28,-1
 71 450 l 1,29,30
 54 463 54 463 -6 470 c 1,31,32
 -7 475 -7 475 -7 484 c 128,-1,33
 -7 493 -7 493 -1 505 c 1,34,0
 66 500 66 500 123 500 c 128,-1,1
EndSplineSet
EndChar

StartChar: w
Encoding: 119 119 90
Width: 832
Flags: W
LayerCount: 2
Fore
SplineSet
125 500 m 128,-1,1
 182 500 182 500 252 505 c 1,2,3
 253 498 253 498 253 489 c 128,-1,4
 253 480 253 480 250 470 c 1,5,6
 200 464 200 464 181 450 c 1,7,-1
 254 235 l 1,8,-1
 296 99 l 1,9,-1
 299 99 l 1,10,-1
 328 196 l 1,11,-1
 401 404 l 1,12,-1
 385 450 l 1,13,14
 368 463 368 463 308 470 c 1,15,16
 307 475 307 475 307 484 c 128,-1,17
 307 493 307 493 313 505 c 1,18,19
 381 500 381 500 437.5 500 c 128,-1,20
 494 500 494 500 564 505 c 1,21,22
 565 498 565 498 565 489 c 128,-1,23
 565 480 565 480 562 470 c 1,24,25
 512 464 512 464 493 450 c 1,26,-1
 546 235 l 1,27,-1
 588 99 l 1,28,-1
 591 99 l 1,29,-1
 700 450 l 1,30,31
 683 463 683 463 623 470 c 1,32,33
 622 475 622 475 622 484 c 128,-1,34
 622 493 622 493 628 505 c 1,35,36
 696 500 696 500 730.5 500 c 128,-1,37
 765 500 765 500 835 505 c 1,38,39
 836 498 836 498 836 489 c 128,-1,40
 836 480 836 480 833 470 c 1,41,42
 781 464 781 464 762 450 c 1,43,-1
 600 -14 l 1,44,45
 579 -27 579 -27 556 -27 c 1,46,-1
 431 320 l 1,47,-1
 308 -14 l 1,48,49
 287 -27 287 -27 264 -27 c 1,50,-1
 73 450 l 1,51,52
 56 463 56 463 -4 470 c 1,53,54
 -5 475 -5 475 -5 484 c 128,-1,55
 -5 493 -5 493 1 505 c 1,56,0
 68 500 68 500 125 500 c 128,-1,1
EndSplineSet
EndChar

StartChar: x
Encoding: 120 120 91
Width: 550
Flags: W
LayerCount: 2
Fore
SplineSet
136.5 500 m 128,-1,1
 193 500 193 500 263 505 c 1,2,3
 264 498 264 498 264 489 c 128,-1,4
 264 480 264 480 261 470 c 1,5,6
 214 464 214 464 194 450 c 1,7,-1
 292 308 l 1,8,-1
 406 450 l 1,9,10
 390 463 390 463 327 470 c 1,11,12
 326 475 326 475 326 484 c 128,-1,13
 326 493 326 493 332 505 c 1,14,15
 400 500 400 500 438 500 c 128,-1,16
 476 500 476 500 546 505 c 1,17,18
 547 498 547 498 547 489 c 128,-1,19
 547 480 547 480 544 470 c 1,20,21
 492 464 492 464 472 450 c 1,22,-1
 322 265 l 1,23,-1
 470 50 l 1,24,25
 487 35 487 35 537 30 c 1,26,27
 538 25 538 25 538 16 c 128,-1,28
 538 7 538 7 532 -5 c 1,29,30
 475 -1 475 -1 416.5 -1 c 128,-1,31
 358 -1 358 -1 298 -5 c 1,32,33
 297 2 297 2 297 11 c 128,-1,34
 297 20 297 20 300 30 c 1,35,36
 338 34 338 34 359 50 c 1,37,-1
 261 191 l 1,38,-1
 149 50 l 1,39,40
 166 35 166 35 216 30 c 1,41,42
 217 25 217 25 217 16 c 128,-1,43
 217 7 217 7 211 -5 c 1,44,-1
 162 -2 l 2,45,46
 137 0 137 0 112.5 0 c 128,-1,47
 88 0 88 0 62 -2 c 2,48,-1
 11 -5 l 1,49,50
 10 2 10 2 10 11 c 128,-1,51
 10 20 10 20 13 30 c 1,52,53
 66 36 66 36 85 50 c 1,54,-1
 232 233 l 1,55,-1
 84 450 l 1,56,57
 67 463 67 463 7 470 c 1,58,59
 6 475 6 475 6 484 c 128,-1,60
 6 493 6 493 12 505 c 1,61,0
 80 500 80 500 136.5 500 c 128,-1,1
EndSplineSet
EndChar

StartChar: y
Encoding: 121 121 92
Width: 573
Flags: W
LayerCount: 2
Fore
SplineSet
126.5 500 m 128,-1,1
 183 500 183 500 253 505 c 1,2,3
 254 498 254 498 254 489 c 128,-1,4
 254 480 254 480 251 470 c 1,5,6
 204 465 204 465 182 450 c 1,7,-1
 317 92 l 1,8,-1
 320 92 l 1,9,-1
 434 450 l 1,10,11
 421 470 421 470 365 470 c 1,12,13
 364 475 364 475 364 484 c 128,-1,14
 364 493 364 493 370 505 c 1,15,16
 438 500 438 500 472 500 c 128,-1,17
 506 500 506 500 526 502 c 2,18,-1
 574 505 l 1,19,20
 575 498 575 498 575 489 c 128,-1,21
 575 480 575 480 572 470 c 1,22,23
 524 464 524 464 503 450 c 1,24,-1
 319 -87 l 1,25,26
 282 -189 282 -189 245 -225.5 c 128,-1,27
 208 -262 208 -262 150 -262 c 0,28,29
 142 -262 142 -262 135 -262 c 1,30,31
 109 -208 109 -208 98 -134 c 1,32,33
 115 -120 115 -120 136 -120 c 1,34,35
 154 -137 154 -137 166 -160 c 2,36,-1
 188 -203 l 1,37,38
 236 -174 236 -174 275 -40 c 1,39,-1
 74 450 l 1,40,41
 57 463 57 463 -3 470 c 1,42,43
 -4 475 -4 475 -4 484 c 128,-1,44
 -4 493 -4 493 2 505 c 1,45,0
 70 500 70 500 126.5 500 c 128,-1,1
EndSplineSet
EndChar

StartChar: z
Encoding: 122 122 93
Width: 463
Flags: W
LayerCount: 2
Fore
SplineSet
412 500 m 1,0,1
 421 487 421 487 426 463 c 1,2,-1
 127 45 l 1,3,-1
 343 45 l 1,4,5
 348 117 348 117 361 159 c 1,6,7
 374 165 374 165 385.5 165 c 128,-1,8
 397 165 397 165 406 163 c 1,9,10
 423 126 423 126 423 48 c 0,11,12
 423 26 423 26 422 0 c 1,13,-1
 36 0 l 1,14,15
 29 12 29 12 26 34 c 1,16,-1
 311 455 l 1,17,-1
 128 455 l 1,18,19
 126 404 126 404 110 351 c 1,20,21
 97 345 97 345 85.5 345 c 128,-1,22
 74 345 74 345 65 347 c 1,23,24
 47 386 47 386 47 430 c 2,25,-1
 47 435 l 1,26,27
 48 482 48 482 49 500 c 1,28,-1
 412 500 l 1,0,1
EndSplineSet
EndChar

StartChar: braceleft
Encoding: 123 123 94
Width: 309
Flags: W
LayerCount: 2
Fore
SplineSet
207 130 m 2,0,-1
 207 43 l 2,1,2
 207 -43 207 -43 220.5 -68.5 c 128,-1,3
 234 -94 234 -94 278 -94 c 1,4,5
 283 -105 283 -105 283 -115 c 128,-1,6
 283 -125 283 -125 278 -134 c 1,7,8
 181 -134 181 -134 152.5 -97 c 128,-1,9
 124 -60 124 -60 124 56 c 2,10,-1
 124 143 l 2,11,12
 124 222 124 222 99 251.5 c 128,-1,13
 74 281 74 281 3 281 c 1,14,15
 -2 295 -2 295 -2 308.5 c 128,-1,16
 -2 322 -2 322 3 334 c 1,17,18
 74 334 74 334 99 363.5 c 128,-1,19
 124 393 124 393 124 472 c 2,20,-1
 124 561 l 2,21,22
 124 674 124 674 146 703.5 c 128,-1,23
 168 733 168 733 198.5 741.5 c 128,-1,24
 229 750 229 750 278 750 c 1,25,26
 283 740 283 740 283 729.5 c 128,-1,27
 283 719 283 719 278 709 c 1,28,29
 234 709 234 709 220.5 683.5 c 128,-1,30
 207 658 207 658 207 572 c 2,31,-1
 207 486 l 2,32,33
 207 401 207 401 193 373 c 0,34,35
 168 324 168 324 102 311 c 1,36,-1
 102 305 l 1,37,38
 195 286 195 286 204 198 c 0,39,40
 207 168 207 168 207 130 c 2,0,-1
EndSplineSet
EndChar

StartChar: bar
Encoding: 124 124 95
Width: 224
Flags: W
LayerCount: 2
Fore
SplineSet
80 770 m 1,0,1
 129 770 129 770 144 759 c 1,2,-1
 144 -241 l 1,3,4
 139 -242 139 -242 130.5 -242 c 128,-1,5
 122 -242 122 -242 102.5 -237.5 c 128,-1,6
 83 -233 83 -233 80 -230 c 1,7,-1
 80 770 l 1,0,1
EndSplineSet
EndChar

StartChar: braceright
Encoding: 125 125 96
Width: 309
Flags: W
LayerCount: 2
Fore
SplineSet
102 486 m 2,0,-1
 102 572 l 2,1,2
 102 658 102 658 88.5 683.5 c 128,-1,3
 75 709 75 709 31 709 c 1,4,5
 26 719 26 719 26 729.5 c 128,-1,6
 26 740 26 740 31 750 c 1,7,8
 128 750 128 750 156.5 712 c 128,-1,9
 185 674 185 674 185 561 c 2,10,-1
 185 472 l 2,11,12
 185 393 185 393 210 363.5 c 128,-1,13
 235 334 235 334 306 334 c 1,14,15
 311 322 311 322 311 308.5 c 128,-1,16
 311 295 311 295 306 281 c 1,17,18
 235 281 235 281 210 251.5 c 128,-1,19
 185 222 185 222 185 143 c 2,20,-1
 185 56 l 2,21,22
 185 -60 185 -60 163 -88.5 c 128,-1,23
 141 -117 141 -117 110.5 -125.5 c 128,-1,24
 80 -134 80 -134 31 -134 c 1,25,26
 26 -125 26 -125 26 -115 c 128,-1,27
 26 -105 26 -105 31 -94 c 1,28,29
 75 -94 75 -94 88.5 -68.5 c 128,-1,30
 102 -43 102 -43 102 43 c 2,31,-1
 102 130 l 2,32,33
 102 215 102 215 116 243 c 0,34,35
 141 292 141 292 207 305 c 1,36,-1
 207 311 l 1,37,38
 114 330 114 330 105 418 c 0,39,40
 102 448 102 448 102 486 c 2,0,-1
EndSplineSet
EndChar

StartChar: asciitilde
Encoding: 126 126 97
Width: 491
Flags: W
LayerCount: 2
Fore
SplineSet
462 674 m 1,0,1
 446 542 446 542 344 542 c 0,2,3
 293 542 293 542 230 598 c 2,4,-1
 187 636 l 2,5,6
 168 653 168 653 148 653 c 0,7,8
 147 653 147 653 146 653 c 0,9,10
 101 653 101 653 84 587 c 1,11,12
 76 586 76 586 64 586 c 128,-1,13
 52 586 52 586 35 591 c 1,14,15
 49 710 49 710 145 710 c 0,16,17
 205 710 205 710 262 656 c 0,18,19
 284 636 284 636 304.5 619.5 c 128,-1,20
 325 603 325 603 351 603 c 128,-1,21
 377 603 377 603 390 621 c 128,-1,22
 403 639 403 639 413 684 c 1,23,24
 444 684 444 684 462 674 c 1,0,1
EndSplineSet
EndChar

StartChar: exclamdown
Encoding: 161 161 99
Width: 234
Flags: W
LayerCount: 2
Fore
SplineSet
178 484 m 128,-1,1
 178 463 178 463 160 441.5 c 128,-1,2
 142 420 142 420 118.5 420 c 128,-1,3
 95 420 95 420 73 438.5 c 128,-1,4
 51 457 51 457 51 477.5 c 128,-1,5
 51 498 51 498 69 519 c 128,-1,6
 87 540 87 540 104 540 c 0,7,8
 106 540 106 540 114 540 c 0,9,10
 133 542 133 542 155.5 523.5 c 128,-1,0
 178 505 178 505 178 484 c 128,-1,1
118 -191 m 128,-1,12
 76 -191 76 -191 64 -174 c 1,13,-1
 95 356 l 1,14,15
 107 360 107 360 118 360 c 1,16,-1
 141 356 l 1,17,-1
 171 -174 l 1,18,11
 160 -191 160 -191 118 -191 c 128,-1,12
EndSplineSet
EndChar

StartChar: cent
Encoding: 162 162 100
Width: 517
Flags: W
LayerCount: 2
Fore
SplineSet
198 178.5 m 128,-1,1
 240 124 240 124 303.5 124 c 128,-1,2
 367 124 367 124 396.5 139.5 c 128,-1,3
 426 155 426 155 446 170 c 1,4,5
 460 161 460 161 464 144 c 1,6,7
 401 79 401 79 322 70 c 1,8,-1
 333 -36 l 1,9,10
 313 -43 313 -43 294.5 -43 c 128,-1,11
 276 -43 276 -43 259 -38 c 1,12,-1
 266 70 l 1,13,14
 114 83 114 83 65 231 c 0,15,16
 49 279 49 279 49 341 c 0,17,18
 49 461 49 461 109.5 528.5 c 128,-1,19
 170 596 170 596 268 607 c 1,20,-1
 259 710 l 1,21,22
 280 715 280 715 298.5 715 c 128,-1,23
 317 715 317 715 334 710 c 1,24,-1
 322 609 l 1,25,26
 404 605 404 605 466 576 c 1,27,28
 467 565 467 565 467 553 c 0,29,30
 467 486 467 486 445 432 c 1,31,32
 438 430 438 430 427.5 430 c 128,-1,33
 417 430 417 430 403 437 c 1,34,35
 383 489 383 489 383 537 c 0,36,37
 383 545 383 545 384 552 c 1,38,39
 353 567 353 567 317 567 c 2,40,-1
 310 567 l 1,41,42
 234 564 234 564 195 501 c 128,-1,43
 156 438 156 438 156 335.5 c 128,-1,0
 156 233 156 233 198 178.5 c 128,-1,1
EndSplineSet
EndChar

StartChar: sterling
Encoding: 163 163 101
Width: 568
Flags: W
LayerCount: 2
Fore
SplineSet
389 354 m 1,0,1
 389 320 389 320 379 304 c 1,2,-1
 229 304 l 1,3,-1
 229 55 l 1,4,-1
 439 55 l 1,5,6
 443 119 443 119 466 178 c 1,7,8
 473 179 473 179 482 179 c 128,-1,9
 491 179 491 179 502 175 c 1,10,11
 514 116 514 116 514 72 c 128,-1,12
 514 28 514 28 512 0 c 1,13,-1
 179 0 l 2,14,15
 116 0 116 0 46 -5 c 1,16,17
 45 2 45 2 45 11 c 128,-1,18
 45 20 45 20 48 30 c 1,19,20
 106 37 106 37 124 50 c 1,21,-1
 124 304 l 1,22,-1
 74 304 l 1,23,24
 73 311 73 311 73 324 c 128,-1,25
 73 337 73 337 84 354 c 1,26,-1
 124 354 l 1,27,-1
 124 475 l 2,28,29
 124 582 124 582 182 643.5 c 128,-1,30
 240 705 240 705 333 705 c 128,-1,31
 426 705 426 705 497 673 c 1,32,33
 497 582 497 582 478 536 c 1,34,35
 470 534 470 534 459.5 534 c 128,-1,36
 449 534 449 534 437 540 c 1,37,38
 426 595 426 595 426 648 c 1,39,40
 388 666 388 666 337.5 666 c 128,-1,41
 287 666 287 666 258 625 c 128,-1,42
 229 584 229 584 229 500 c 2,43,-1
 229 354 l 1,44,-1
 389 354 l 1,0,1
EndSplineSet
EndChar

StartChar: currency
Encoding: 164 164 102
Width: 570
Flags: W
LayerCount: 2
Fore
SplineSet
158 359 m 128,-1,1
 158 306 158 306 194.5 268 c 128,-1,2
 231 230 231 230 272 230 c 0,3,4
 340 230 340 230 376.5 268 c 128,-1,5
 413 306 413 306 413 345 c 0,6,7
 413 411 413 411 376.5 449 c 128,-1,8
 340 487 340 487 300 487 c 0,9,10
 230 487 230 487 194 449.5 c 128,-1,0
 158 412 158 412 158 359 c 128,-1,1
104 358.5 m 128,-1,12
 104 417 104 417 137 464 c 1,13,-1
 68 520 l 1,14,15
 86 555 86 555 119 573 c 1,16,-1
 177 506 l 1,17,18
 224 542 224 542 285 542 c 128,-1,19
 346 542 346 542 396 505 c 1,20,-1
 450 572 l 1,21,22
 485 554 485 554 503 521 c 1,23,-1
 436 463 l 1,24,25
 468 414 468 414 468 355.5 c 128,-1,26
 468 297 468 297 431 247 c 1,27,-1
 502 190 l 1,28,29
 484 155 484 155 451 137 c 1,30,-1
 389 207 l 1,31,32
 342 175 342 175 283.5 175 c 128,-1,33
 225 175 225 175 178 210 c 1,34,-1
 120 138 l 1,35,36
 85 156 85 156 67 189 c 1,37,-1
 138 251 l 1,38,11
 104 300 104 300 104 358.5 c 128,-1,12
EndSplineSet
EndChar

StartChar: yen
Encoding: 165 165 103
Width: 739
Flags: W
LayerCount: 2
Fore
SplineSet
557 226 m 1,0,1
 557 192 557 192 547 176 c 1,2,-1
 427 176 l 1,3,-1
 427 50 l 1,4,5
 446 33 446 33 504 30 c 1,6,7
 505 25 505 25 505 16 c 128,-1,8
 505 7 505 7 499 -5 c 1,9,10
 435 0 435 0 370.5 0 c 128,-1,11
 306 0 306 0 240 -5 c 1,12,13
 239 2 239 2 239 11 c 128,-1,14
 239 20 239 20 242 30 c 1,15,16
 305 37 305 37 322 50 c 1,17,-1
 322 176 l 1,18,-1
 192 176 l 1,19,20
 191 183 191 183 191 196 c 128,-1,21
 191 209 191 209 202 226 c 1,22,-1
 322 226 l 1,23,-1
 322 286 l 1,24,-1
 192 286 l 1,25,26
 191 293 191 293 191 306 c 128,-1,27
 191 319 191 319 202 336 c 1,28,-1
 300 336 l 1,29,-1
 107 650 l 1,30,31
 90 663 90 663 30 670 c 1,32,33
 29 675 29 675 29 684 c 128,-1,34
 29 693 29 693 35 705 c 1,35,36
 69 702 69 702 100 702 c 1,37,-1
 135 700 l 1,38,39
 166 700 166 700 198 700 c 1,40,-1
 236 702 l 2,41,42
 268 703 268 703 306 705 c 1,43,44
 307 698 307 698 307 689 c 128,-1,45
 307 680 307 680 304 670 c 1,46,47
 241 663 241 663 223 650 c 1,48,-1
 388 366 l 1,49,-1
 392 366 l 1,50,-1
 558 650 l 1,51,52
 541 663 541 663 481 670 c 1,53,54
 480 675 480 675 480 684 c 128,-1,55
 480 693 480 693 486 705 c 1,56,57
 554 700 554 700 596.5 700 c 128,-1,58
 639 700 639 700 709 705 c 1,59,60
 710 698 710 698 710 689 c 128,-1,61
 710 680 710 680 707 670 c 1,62,63
 643 663 643 663 624 650 c 1,64,-1
 439 336 l 1,65,-1
 557 336 l 1,66,67
 557 302 557 302 547 286 c 1,68,-1
 427 286 l 1,69,-1
 427 226 l 1,70,-1
 557 226 l 1,0,1
EndSplineSet
EndChar

StartChar: brokenbar
Encoding: 166 166 104
Width: 230
Flags: W
LayerCount: 2
Fore
SplineSet
147 359 m 1,0,1
 98 359 98 359 83 370 c 1,2,-1
 83 770 l 1,3,4
 132 770 132 770 147 759 c 1,5,-1
 147 359 l 1,0,1
83 197 m 1,6,7
 132 197 132 197 147 186 c 1,8,-1
 147 -241 l 1,9,10
 142 -242 142 -242 133.5 -242 c 128,-1,11
 125 -242 125 -242 105.5 -237.5 c 128,-1,12
 86 -233 86 -233 83 -230 c 1,13,-1
 83 197 l 1,6,7
EndSplineSet
EndChar

StartChar: section
Encoding: 167 167 105
Width: 510
Flags: W
LayerCount: 2
Fore
SplineSet
183 446 m 1,0,1
 141 417 141 417 141 348.5 c 128,-1,2
 141 280 141 280 258 228 c 2,3,-1
 323 199 l 1,4,5
 368 228 368 228 368 293 c 0,6,7
 368 365 368 365 248 416 c 0,8,9
 215 430 215 430 183 446 c 1,0,1
372 173 m 1,10,11
 456 122 456 122 456 40 c 128,-1,12
 456 -42 456 -42 393.5 -92 c 128,-1,13
 331 -142 331 -142 238 -142 c 128,-1,14
 145 -142 145 -142 79 -82 c 1,15,16
 79 -74 79 -74 79 -66 c 0,17,18
 79 0 79 0 97 53 c 1,19,20
 105 54 105 54 116.5 54 c 128,-1,21
 128 54 128 54 141 49 c 1,22,23
 156 3 156 3 156 -58 c 0,24,25
 156 -72 156 -72 155 -87 c 1,26,27
 188 -101 188 -101 220 -101 c 0,28,29
 282 -101 282 -101 320.5 -70 c 128,-1,30
 359 -39 359 -39 359 16.5 c 128,-1,31
 359 72 359 72 279 116 c 0,32,33
 245 134 245 134 205 152 c 0,34,35
 51 221 51 221 51 335 c 0,36,37
 51 422 51 422 133 473 c 1,38,39
 62 519 62 519 62 598.5 c 128,-1,40
 62 678 62 678 123 726.5 c 128,-1,41
 184 775 184 775 248 775 c 0,42,43
 363 775 363 775 429 716 c 1,44,45
 430 705 430 705 430 694 c 0,46,47
 430 637 430 637 411 584 c 1,48,49
 404 583 404 583 393 583 c 128,-1,50
 382 583 382 583 366 588 c 1,51,52
 354 634 354 634 354 669 c 128,-1,53
 354 704 354 704 355 721 c 1,54,55
 320 735 320 735 290 735 c 0,56,57
 231 735 231 735 193.5 704.5 c 128,-1,58
 156 674 156 674 156 629.5 c 128,-1,59
 156 585 156 585 178 564 c 0,60,61
 210 532 210 532 306 488 c 0,62,63
 344 470 344 470 378 448 c 0,64,65
 456 395 456 395 456 308.5 c 128,-1,66
 456 222 456 222 372 173 c 1,10,11
EndSplineSet
EndChar

StartChar: dieresis
Encoding: 168 168 106
Width: 346
Flags: W
LayerCount: 2
Fore
SplineSet
202 689.5 m 128,-1,1
 224 708 224 708 241 708 c 128,-1,2
 258 708 258 708 269 701.5 c 128,-1,3
 280 695 280 695 288 686 c 1,4,5
 303 666 303 666 303 645.5 c 128,-1,6
 303 625 303 625 281 606.5 c 128,-1,7
 259 588 259 588 242 588 c 0,8,9
 214 588 214 588 197 609.5 c 128,-1,10
 180 631 180 631 180 651 c 128,-1,0
 180 671 180 671 202 689.5 c 128,-1,1
33 690 m 128,-1,12
 55 708 55 708 72 708 c 128,-1,13
 89 708 89 708 100 701.5 c 128,-1,14
 111 695 111 695 118 686 c 0,15,16
 134 666 134 666 134 645.5 c 128,-1,17
 134 625 134 625 112 606.5 c 128,-1,18
 90 588 90 588 73 588 c 0,19,20
 46 588 46 588 28 610 c 0,21,22
 11 632 11 632 11 652 c 128,-1,11
 11 672 11 672 33 690 c 128,-1,12
EndSplineSet
EndChar

StartChar: copyright
Encoding: 169 169 107
Width: 705
Flags: W
LayerCount: 2
Fore
SplineSet
258 318 m 0,0,1
 258 142 258 142 373 142 c 0,2,3
 427 142 427 142 472 176 c 1,4,5
 482 169 482 169 486 156 c 1,6,7
 433 101 433 101 355.5 101 c 128,-1,8
 278 101 278 101 228.5 154 c 128,-1,9
 179 207 179 207 179 301 c 0,10,11
 179 448 179 448 289 488 c 0,12,13
 322 500 322 500 374.5 500 c 128,-1,14
 427 500 427 500 482 474 c 1,15,16
 483 465 483 465 483 455 c 0,17,18
 483 410 483 410 467 369 c 1,19,20
 462 368 462 368 454 368 c 128,-1,21
 446 368 446 368 436 373 c 1,22,23
 421 410 421 410 421 445 c 0,24,25
 421 452 421 452 422 458 c 1,26,27
 391 470 391 470 366 470 c 0,28,29
 313 470 313 470 283 418 c 0,30,31
 258 376 258 376 258 318 c 0,0,1
171 500 m 128,-1,33
 98 423 98 423 98 308.5 c 128,-1,34
 98 194 98 194 170.5 116 c 128,-1,35
 243 38 243 38 353 38 c 128,-1,36
 463 38 463 38 535 115.5 c 128,-1,37
 607 193 607 193 607 308.5 c 128,-1,38
 607 424 607 424 534.5 500.5 c 128,-1,39
 462 577 462 577 353 577 c 128,-1,32
 244 577 244 577 171 500 c 128,-1,33
352.5 615 m 128,-1,41
 483 615 483 615 567.5 526.5 c 128,-1,42
 652 438 652 438 652 307 c 128,-1,43
 652 176 652 176 567.5 88 c 128,-1,44
 483 0 483 0 352.5 0 c 128,-1,45
 222 0 222 0 137.5 88 c 128,-1,46
 53 176 53 176 53 307 c 128,-1,47
 53 438 53 438 137.5 526.5 c 128,-1,40
 222 615 222 615 352.5 615 c 128,-1,41
EndSplineSet
EndChar

StartChar: ordfeminine
Encoding: 170 170 108
Width: 393
Flags: W
LayerCount: 2
Fore
SplineSet
154 380 m 0,0,1
 45 380 45 380 45 468 c 0,2,3
 45 529 45 529 100 555.5 c 128,-1,4
 155 582 155 582 224 582 c 2,5,-1
 235 582 l 1,6,7
 235 646 235 646 222.5 664.5 c 128,-1,8
 210 683 210 683 178 683 c 128,-1,9
 146 683 146 683 116 673 c 1,10,-1
 116 660 l 2,11,12
 116 638 116 638 111 615 c 1,13,14
 103 610 103 610 93.5 610 c 128,-1,15
 84 610 84 610 75 612 c 1,16,17
 68 628 68 628 66 654 c 2,18,-1
 64 678 l 2,19,20
 63 690 63 690 63 696 c 1,21,22
 118 720 118 720 174 720 c 128,-1,23
 230 720 230 720 251 712.5 c 128,-1,24
 272 705 272 705 287.5 684.5 c 128,-1,25
 303 664 303 664 307 584 c 1,26,-1
 307 428 l 1,27,28
 316 419 316 419 351 416 c 1,29,30
 352 409 352 409 352 400 c 128,-1,31
 352 391 352 391 348 383 c 1,32,33
 312 378 312 378 298 378 c 2,34,-1
 283 378 l 2,35,36
 261 378 261 378 249 383 c 1,37,38
 240 399 240 399 238 421 c 1,39,-1
 234 421 l 1,40,41
 193 380 193 380 154 380 c 0,0,1
113 484 m 0,42,43
 113 425 113 425 168 425 c 0,44,45
 185 425 185 425 205 437 c 128,-1,46
 225 449 225 449 235 463 c 1,47,-1
 235 541 l 1,48,49
 170 541 170 541 141.5 528.5 c 128,-1,50
 113 516 113 516 113 484 c 0,42,43
EndSplineSet
EndChar

StartChar: guillemotleft
Encoding: 171 171 109
Width: 574
Flags: W
LayerCount: 2
Fore
SplineSet
534 97 m 1,0,1
 517 73 517 73 492 70 c 1,2,-1
 250 270 l 1,3,-1
 250 310 l 1,4,-1
 492 510 l 1,5,6
 517 507 517 507 534 483 c 1,7,-1
 345 292 l 1,8,-1
 345 288 l 1,9,-1
 534 97 l 1,0,1
324 97 m 1,10,11
 307 73 307 73 282 70 c 1,12,-1
 40 270 l 1,13,-1
 40 310 l 1,14,-1
 282 510 l 1,15,16
 307 507 307 507 324 483 c 1,17,-1
 135 292 l 1,18,-1
 135 288 l 1,19,-1
 324 97 l 1,10,11
EndSplineSet
EndChar

StartChar: logicalnot
Encoding: 172 172 110
Width: 624
Flags: W
LayerCount: 2
Fore
SplineSet
483 292 m 1,0,-1
 70 292 l 1,1,2
 69 299 69 299 69 308.5 c 128,-1,3
 69 318 69 318 74 335 c 128,-1,4
 79 352 79 352 81 355 c 1,5,-1
 549 355 l 1,6,-1
 549 150 l 1,7,8
 543 149 543 149 534 149 c 128,-1,9
 525 149 525 149 505.5 153.5 c 128,-1,10
 486 158 486 158 483 161 c 1,11,-1
 483 292 l 1,0,-1
EndSplineSet
EndChar

StartChar: uni00AD
Encoding: 173 173 111
Width: 356
Flags: W
LayerCount: 2
Fore
SplineSet
294 349 m 1,0,1
 294 300 294 300 283 285 c 1,2,-1
 63 285 l 1,3,4
 62 290 62 290 62 298.5 c 128,-1,5
 62 307 62 307 66.5 326.5 c 128,-1,6
 71 346 71 346 74 349 c 1,7,-1
 294 349 l 1,0,1
EndSplineSet
EndChar

StartChar: registered
Encoding: 174 174 112
Width: 705
Flags: W
LayerCount: 2
Fore
SplineSet
345 450 m 0,0,1
 335 450 335 450 310 445 c 1,2,-1
 310 318 l 1,3,4
 326 315 326 315 352 315 c 0,5,6
 416 315 416 315 416 381 c 0,7,8
 415 450 415 450 345 450 c 0,0,1
281 139 m 128,-1,10
 245 139 245 139 219 137 c 1,11,12
 218 142 218 142 218 147.5 c 128,-1,13
 218 153 218 153 220 157 c 1,14,15
 228 159 228 159 239 160.5 c 128,-1,16
 250 162 250 162 260 167 c 1,17,-1
 260 445 l 1,18,19
 253 452 253 452 223 455 c 1,20,21
 221 464 221 464 225 477 c 1,22,23
 251 475 251 475 280 475 c 0,24,25
 333 475 333 475 354 478 c 1,26,27
 405 478 405 478 438 454.5 c 128,-1,28
 471 431 471 431 472 377 c 1,29,-1
 472 376 l 2,30,31
 472 323 472 323 403 300 c 1,32,-1
 440 224 l 2,33,34
 465 171 465 171 476.5 165 c 128,-1,35
 488 159 488 159 502 159 c 2,36,-1
 510 159 l 1,37,38
 512 151 512 151 509 139 c 1,39,40
 495 132 495 132 470.5 132 c 128,-1,41
 446 132 446 132 428.5 152.5 c 128,-1,42
 411 173 411 173 399.5 205 c 128,-1,43
 388 237 388 237 362 291 c 1,44,45
 349 289 349 289 336 289 c 128,-1,46
 323 289 323 289 310 290 c 1,47,-1
 310 167 l 1,48,49
 315 163 315 163 326.5 161 c 128,-1,50
 338 159 338 159 347 157 c 1,51,52
 349 148 349 148 345 137 c 1,53,9
 317 139 317 139 281 139 c 128,-1,10
171 500 m 128,-1,55
 98 423 98 423 98 308.5 c 128,-1,56
 98 194 98 194 170.5 116 c 128,-1,57
 243 38 243 38 353 38 c 128,-1,58
 463 38 463 38 535 115.5 c 128,-1,59
 607 193 607 193 607 308.5 c 128,-1,60
 607 424 607 424 534.5 500.5 c 128,-1,61
 462 577 462 577 353 577 c 128,-1,54
 244 577 244 577 171 500 c 128,-1,55
352.5 615 m 128,-1,63
 483 615 483 615 567.5 526.5 c 128,-1,64
 652 438 652 438 652 307 c 128,-1,65
 652 176 652 176 567.5 88 c 128,-1,66
 483 0 483 0 352.5 0 c 128,-1,67
 222 0 222 0 137.5 88 c 128,-1,68
 53 176 53 176 53 307 c 128,-1,69
 53 438 53 438 137.5 526.5 c 128,-1,62
 222 615 222 615 352.5 615 c 128,-1,63
EndSplineSet
EndChar

StartChar: macron
Encoding: 175 175 113
Width: 530
Flags: W
LayerCount: 2
Fore
SplineSet
530 630 m 1,0,1
 530 581 530 581 519 566 c 1,2,-1
 1 566 l 1,3,4
 0 571 0 571 0 579.5 c 128,-1,5
 0 588 0 588 4.5 607.5 c 128,-1,6
 9 627 9 627 12 630 c 1,7,-1
 530 630 l 1,0,1
EndSplineSet
EndChar

StartChar: degree
Encoding: 176 176 114
Width: 353
Flags: W
LayerCount: 2
Fore
SplineSet
177 660 m 128,-1,1
 136 660 136 660 112.5 631.5 c 128,-1,2
 89 603 89 603 89 561.5 c 128,-1,3
 89 520 89 520 112.5 491.5 c 128,-1,4
 136 463 136 463 177 463 c 128,-1,5
 218 463 218 463 241.5 491.5 c 128,-1,6
 265 520 265 520 265 562 c 128,-1,7
 265 604 265 604 241.5 632 c 128,-1,0
 218 660 218 660 177 660 c 128,-1,1
274.5 659.5 m 128,-1,9
 315 619 315 619 315 576 c 128,-1,10
 315 533 315 533 304 507.5 c 128,-1,11
 293 482 293 482 274 464 c 1,12,13
 234 423 234 423 175.5 423 c 128,-1,14
 117 423 117 423 78 463.5 c 128,-1,15
 39 504 39 504 39 547.5 c 128,-1,16
 39 591 39 591 50 616 c 0,17,18
 90 700 90 700 176 700 c 0,19,8
 234 700 234 700 274.5 659.5 c 128,-1,9
EndSplineSet
EndChar

StartChar: plusminus
Encoding: 177 177 115
Width: 514
Flags: W
LayerCount: 2
Fore
SplineSet
457 110 m 1,0,1
 457 61 457 61 446 46 c 1,2,-1
 56 46 l 1,3,4
 55 51 55 51 55 60 c 128,-1,5
 55 69 55 69 59.5 88 c 128,-1,6
 64 107 64 107 67 110 c 1,7,-1
 457 110 l 1,0,1
222 524 m 1,8,9
 266 524 266 524 288 513 c 1,10,-1
 288 352 l 1,11,-1
 457 352 l 1,12,13
 457 303 457 303 446 288 c 1,14,-1
 288 288 l 1,15,-1
 288 138 l 1,16,17
 279 136 279 136 269 136 c 128,-1,18
 259 136 259 136 242 141 c 128,-1,19
 225 146 225 146 222 149 c 1,20,-1
 222 288 l 1,21,-1
 56 288 l 1,22,23
 55 293 55 293 55 302 c 128,-1,24
 55 311 55 311 59.5 330 c 128,-1,25
 64 349 64 349 67 352 c 1,26,-1
 222 352 l 1,27,-1
 222 524 l 1,8,9
EndSplineSet
EndChar

StartChar: twosuperior
Encoding: 178 178 116
Width: 389
Flags: W
LayerCount: 2
Fore
SplineSet
243 615 m 0,0,1
 243 690 243 690 175 690 c 0,2,3
 141 690 141 690 117 677 c 1,4,5
 115 633 115 633 104 597 c 1,6,7
 96 595 96 595 87 595 c 128,-1,8
 78 595 78 595 70 597 c 1,9,10
 60 643 60 643 60 667 c 128,-1,11
 60 691 60 691 61 700 c 1,12,13
 115 727 115 727 186 727 c 128,-1,14
 257 727 257 727 292 699.5 c 128,-1,15
 327 672 327 672 327 630 c 128,-1,16
 327 588 327 588 305 547 c 128,-1,17
 283 506 283 506 201 442 c 2,18,-1
 123 380 l 1,19,-1
 123 377 l 1,20,-1
 275 377 l 1,21,22
 281 411 281 411 291 449 c 1,23,24
 296 450 296 450 305 450 c 2,25,-1
 321 449 l 1,26,27
 328 411 328 411 328 376.5 c 128,-1,28
 328 342 328 342 326 314 c 1,29,-1
 55 314 l 1,30,-1
 55 377 l 1,31,-1
 132 440 l 2,32,33
 205 500 205 500 224 540.5 c 128,-1,34
 243 581 243 581 243 615 c 0,0,1
EndSplineSet
EndChar

StartChar: threesuperior
Encoding: 179 179 117
Width: 385
Flags: W
LayerCount: 2
Fore
SplineSet
225 528 m 1,0,1
 340 510 340 510 340 434 c 0,2,3
 340 366 340 366 296.5 335 c 128,-1,4
 253 304 253 304 180.5 304 c 128,-1,5
 108 304 108 304 54 331 c 1,6,7
 53 340 53 340 53 364 c 128,-1,8
 53 388 53 388 63 434 c 1,9,10
 71 436 71 436 80 436 c 128,-1,11
 89 436 89 436 97 434 c 1,12,13
 108 395 108 395 110 356 c 1,14,15
 134 343 134 343 184 343 c 0,16,17
 262 343 262 343 262 420 c 0,18,19
 262 463 262 463 229.5 482 c 128,-1,20
 197 501 197 501 124 501 c 1,21,-1
 124 542 l 1,22,23
 183 542 183 542 214 562.5 c 128,-1,24
 245 583 245 583 245 618 c 0,25,26
 245 690 245 690 170 690 c 0,27,28
 140 690 140 690 115 677 c 1,29,30
 113 633 113 633 102 597 c 1,31,32
 94 595 94 595 85 595 c 128,-1,33
 76 595 76 595 68 597 c 1,34,35
 58 643 58 643 58 667 c 128,-1,36
 58 691 58 691 59 700 c 1,37,38
 113 727 113 727 184 727 c 0,39,40
 322 727 322 727 322 631 c 0,41,42
 322 557 322 557 225 530 c 1,43,-1
 225 528 l 1,0,1
EndSplineSet
EndChar

StartChar: acute
Encoding: 180 180 118
Width: 203
Flags: W
LayerCount: 2
Fore
SplineSet
84 757 m 1,0,1
 137 748 137 748 164 717 c 1,2,-1
 103 636 l 1,3,4
 73 598 73 598 40 566 c 1,5,6
 16 571 16 571 4 583 c 1,7,-1
 84 757 l 1,0,1
EndSplineSet
EndChar

StartChar: mu
Encoding: 181 181 119
Width: 623
Flags: W
LayerCount: 2
Fore
SplineSet
228 -16 m 128,-1,1
 190 -16 190 -16 160 -1 c 1,2,-1
 160 -165 l 1,3,4
 138 -168 138 -168 122 -168 c 128,-1,5
 106 -168 106 -168 95 -165 c 1,6,-1
 95 500 l 1,7,8
 109 504 109 504 134 504 c 128,-1,9
 159 504 159 504 195 500 c 1,10,-1
 195 149 l 2,11,12
 195 91 195 91 218.5 72.5 c 128,-1,13
 242 54 242 54 281 54 c 0,14,15
 357 54 357 54 414 118 c 1,16,-1
 414 500 l 1,17,18
 428 504 428 504 453 504 c 128,-1,19
 478 504 478 504 514 500 c 1,20,-1
 514 41 l 1,21,22
 530 27 530 27 584 21 c 1,23,24
 585 16 585 16 585 7 c 128,-1,25
 585 -2 585 -2 579 -14 c 1,26,27
 533 -21 533 -21 499 -21 c 128,-1,28
 465 -21 465 -21 442 -15 c 1,29,30
 426 14 426 14 419 71 c 1,31,-1
 414 71 l 1,32,33
 345 2 345 2 288 -11 c 0,34,0
 266 -16 266 -16 228 -16 c 128,-1,1
EndSplineSet
EndChar

StartChar: paragraph
Encoding: 182 182 120
Width: 551
Flags: W
LayerCount: 2
Fore
SplineSet
258 700 m 0,0,1
 328 700 328 700 397 700 c 1,2,-1
 434 702 l 2,3,4
 464 703 464 703 502 705 c 1,5,6
 503 698 503 698 503 689 c 128,-1,7
 503 680 503 680 500 670 c 1,8,9
 437 663 437 663 420 650 c 1,10,-1
 420 -90 l 1,11,-1
 355 -90 l 1,12,-1
 355 650 l 1,13,-1
 307 650 l 1,14,-1
 307 -90 l 1,15,-1
 242 -90 l 1,16,-1
 242 281 l 1,17,18
 173 284 173 284 127 318 c 0,19,20
 40 384 40 384 40 493 c 2,21,-1
 40 502 l 1,22,23
 42 556 42 556 69 602 c 0,24,25
 128 700 128 700 258 700 c 0,0,1
EndSplineSet
EndChar

StartChar: periodcentered
Encoding: 183 183 121
Width: 244
Flags: W
LayerCount: 2
Fore
SplineSet
122 371 m 128,-1,1
 185 371 185 371 185 303 c 128,-1,2
 185 235 185 235 122 235 c 128,-1,3
 59 235 59 235 59 303 c 128,-1,0
 59 371 59 371 122 371 c 128,-1,1
EndSplineSet
EndChar

StartChar: cedilla
Encoding: 184 184 122
Width: 255
Flags: W
LayerCount: 2
Fore
SplineSet
172 -154 m 0,0,1
 172 -96 172 -96 82 -96 c 1,2,-1
 80 7 l 1,3,-1
 116 2 l 1,4,-1
 123 -47 l 1,5,6
 240 -47 240 -47 240 -132 c 0,7,8
 240 -175 240 -175 204.5 -204.5 c 128,-1,9
 169 -234 169 -234 113.5 -234 c 128,-1,10
 58 -234 58 -234 23 -221 c 1,11,12
 24 -203 24 -203 38 -192 c 1,13,14
 67 -204 67 -204 99 -204 c 128,-1,15
 131 -204 131 -204 151.5 -188.5 c 128,-1,16
 172 -173 172 -173 172 -154 c 0,0,1
EndSplineSet
EndChar

StartChar: onesuperior
Encoding: 185 185 123
Width: 325
Flags: W
LayerCount: 2
Fore
SplineSet
169.5 314 m 128,-1,1
 119 314 119 314 49 309 c 1,2,3
 48 316 48 316 48 325 c 128,-1,4
 48 334 48 334 51 344 c 1,5,6
 69 348 69 348 91.5 352 c 128,-1,7
 114 356 114 356 130 364 c 1,8,-1
 130 642 l 1,9,10
 121 641 121 641 104.5 641 c 128,-1,11
 88 641 88 641 60 646 c 1,12,13
 54 659 54 659 55 675 c 1,14,15
 127 690 127 690 180 720 c 1,16,-1
 210 720 l 1,17,-1
 210 364 l 1,18,19
 227 357 227 357 251.5 353 c 128,-1,20
 276 349 276 349 293 344 c 1,21,22
 294 339 294 339 294 330 c 128,-1,23
 294 321 294 321 288 309 c 1,24,0
 220 314 220 314 169.5 314 c 128,-1,1
EndSplineSet
EndChar

StartChar: ordmasculine
Encoding: 186 186 124
Width: 413
Flags: W
LayerCount: 2
Fore
SplineSet
207 686 m 128,-1,1
 183 686 183 686 164.5 675 c 128,-1,2
 146 664 146 664 134 646 c 0,3,4
 109 611 109 611 109 552.5 c 128,-1,5
 109 494 109 494 135 453.5 c 128,-1,6
 161 413 161 413 206.5 413 c 128,-1,7
 252 413 252 413 278.5 454 c 128,-1,8
 305 495 305 495 305 537 c 128,-1,9
 305 579 305 579 298.5 603.5 c 128,-1,10
 292 628 292 628 279.5 646 c 128,-1,11
 267 664 267 664 249 675 c 128,-1,0
 231 686 231 686 207 686 c 128,-1,1
210 723 m 0,12,13
 288 723 288 723 330.5 673.5 c 128,-1,14
 373 624 373 624 373 571 c 0,15,16
 373 479 373 479 328 427 c 128,-1,17
 283 375 283 375 205.5 375 c 128,-1,18
 128 375 128 375 84 425.5 c 128,-1,19
 40 476 40 476 40 547 c 0,20,21
 40 663 40 663 136 708 c 0,22,23
 168 723 168 723 210 723 c 0,12,13
EndSplineSet
EndChar

StartChar: guillemotright
Encoding: 187 187 125
Width: 574
Flags: W
LayerCount: 2
Fore
SplineSet
40 483 m 1,0,1
 57 507 57 507 82 510 c 1,2,-1
 324 310 l 1,3,-1
 324 270 l 1,4,-1
 82 70 l 1,5,6
 57 73 57 73 40 97 c 1,7,-1
 229 288 l 1,8,-1
 229 292 l 1,9,-1
 40 483 l 1,0,1
250 483 m 1,10,11
 267 507 267 507 292 510 c 1,12,-1
 534 310 l 1,13,-1
 534 270 l 1,14,-1
 292 70 l 1,15,16
 267 73 267 73 250 97 c 1,17,-1
 439 288 l 1,18,-1
 439 292 l 1,19,-1
 250 483 l 1,10,11
EndSplineSet
EndChar

StartChar: onequarter
Encoding: 188 188 126
Width: 835
Flags: W
LayerCount: 2
Fore
SplineSet
288 0 m 1,0,1
 267 -9 267 -9 249.5 -9 c 128,-1,2
 232 -9 232 -9 221 -7 c 1,3,-1
 511 700 l 1,4,5
 536 708 536 708 552 708 c 128,-1,6
 568 708 568 708 578 706 c 1,7,-1
 288 0 l 1,0,1
639 185 m 1,8,-1
 639 345 l 1,9,-1
 637 347 l 1,10,-1
 603 284 l 1,11,-1
 539 185 l 1,12,-1
 639 185 l 1,8,-1
679 31 m 128,-1,14
 638 31 638 31 568 26 c 1,15,16
 567 33 567 33 567 42 c 128,-1,17
 567 51 567 51 570 61 c 1,18,-1
 606 69 l 2,19,20
 624 73 624 73 639 81 c 1,21,-1
 639 136 l 1,22,-1
 473 136 l 1,23,-1
 467 154 l 1,24,-1
 653 446 l 1,25,26
 689 446 689 446 719 432 c 1,27,-1
 719 185 l 1,28,-1
 786 185 l 1,29,30
 787 179 787 179 787 166.5 c 128,-1,31
 787 154 787 154 777 136 c 1,32,-1
 719 136 l 1,33,-1
 719 81 l 1,34,35
 736 74 736 74 755.5 70 c 128,-1,36
 775 66 775 66 792 61 c 1,37,38
 793 56 793 56 793 47 c 128,-1,39
 793 38 793 38 787 26 c 1,40,13
 720 31 720 31 679 31 c 128,-1,14
169.5 314 m 128,-1,42
 119 314 119 314 49 309 c 1,43,44
 48 316 48 316 48 325 c 128,-1,45
 48 334 48 334 51 344 c 1,46,47
 69 348 69 348 91.5 352 c 128,-1,48
 114 356 114 356 130 364 c 1,49,-1
 130 642 l 1,50,51
 121 641 121 641 104.5 641 c 128,-1,52
 88 641 88 641 60 646 c 1,53,54
 54 659 54 659 55 675 c 1,55,56
 127 690 127 690 180 720 c 1,57,-1
 210 720 l 1,58,-1
 210 364 l 1,59,60
 227 357 227 357 251.5 353 c 128,-1,61
 276 349 276 349 293 344 c 1,62,63
 294 339 294 339 294 330 c 128,-1,64
 294 321 294 321 288 309 c 1,65,41
 220 314 220 314 169.5 314 c 128,-1,42
EndSplineSet
EndChar

StartChar: onehalf
Encoding: 189 189 127
Width: 936
Flags: W
LayerCount: 2
Fore
SplineSet
285 0 m 1,0,1
 264 -9 264 -9 246.5 -9 c 128,-1,2
 229 -9 229 -9 218 -7 c 1,3,-1
 508 700 l 1,4,5
 533 708 533 708 549 708 c 128,-1,6
 565 708 565 708 575 706 c 1,7,-1
 285 0 l 1,0,1
167.5 314 m 128,-1,9
 117 314 117 314 47 309 c 1,10,11
 46 316 46 316 46 325 c 128,-1,12
 46 334 46 334 49 344 c 1,13,14
 67 348 67 348 89.5 352 c 128,-1,15
 112 356 112 356 128 364 c 1,16,-1
 128 642 l 1,17,18
 119 641 119 641 102.5 641 c 128,-1,19
 86 641 86 641 58 646 c 1,20,21
 52 659 52 659 53 675 c 1,22,23
 125 690 125 690 178 720 c 1,24,-1
 208 720 l 1,25,-1
 208 364 l 1,26,27
 225 357 225 357 249.5 353 c 128,-1,28
 274 349 274 349 291 344 c 1,29,30
 292 339 292 339 292 330 c 128,-1,31
 292 321 292 321 286 309 c 1,32,8
 218 314 218 314 167.5 314 c 128,-1,9
798 332 m 0,33,34
 798 407 798 407 730 407 c 0,35,36
 696 407 696 407 672 394 c 1,37,38
 670 350 670 350 659 314 c 1,39,40
 651 312 651 312 642 312 c 128,-1,41
 633 312 633 312 625 314 c 1,42,43
 615 360 615 360 615 384 c 128,-1,44
 615 408 615 408 616 417 c 1,45,46
 670 444 670 444 741 444 c 128,-1,47
 812 444 812 444 847 416.5 c 128,-1,48
 882 389 882 389 882 347 c 128,-1,49
 882 305 882 305 860 264 c 128,-1,50
 838 223 838 223 756 159 c 2,51,-1
 678 97 l 1,52,-1
 678 94 l 1,53,-1
 830 94 l 1,54,55
 836 128 836 128 846 166 c 1,56,57
 851 167 851 167 860 167 c 2,58,-1
 876 166 l 1,59,60
 883 128 883 128 883 93.5 c 128,-1,61
 883 59 883 59 881 31 c 1,62,-1
 610 31 l 1,63,-1
 610 94 l 1,64,-1
 687 157 l 2,65,66
 760 217 760 217 779 257.5 c 128,-1,67
 798 298 798 298 798 332 c 0,33,34
EndSplineSet
EndChar

StartChar: threequarters
Encoding: 190 190 128
Width: 868
Flags: W
LayerCount: 2
Fore
SplineSet
321 0 m 1,0,1
 300 -9 300 -9 282.5 -9 c 128,-1,2
 265 -9 265 -9 254 -7 c 1,3,-1
 544 700 l 1,4,5
 569 708 569 708 585 708 c 128,-1,6
 601 708 601 708 611 706 c 1,7,-1
 321 0 l 1,0,1
672 185 m 1,8,-1
 672 345 l 1,9,-1
 670 347 l 1,10,-1
 636 284 l 1,11,-1
 572 185 l 1,12,-1
 672 185 l 1,8,-1
711.5 31 m 128,-1,14
 671 31 671 31 601 26 c 1,15,16
 600 33 600 33 600 42 c 128,-1,17
 600 51 600 51 603 61 c 1,18,-1
 638 69 l 2,19,20
 656 73 656 73 672 81 c 1,21,-1
 672 136 l 1,22,-1
 506 136 l 1,23,-1
 500 154 l 1,24,-1
 686 446 l 1,25,26
 722 446 722 446 752 432 c 1,27,-1
 752 185 l 1,28,-1
 819 185 l 1,29,30
 820 179 820 179 820 166.5 c 128,-1,31
 820 154 820 154 810 136 c 1,32,-1
 752 136 l 1,33,-1
 752 81 l 1,34,35
 769 74 769 74 788.5 70 c 128,-1,36
 808 66 808 66 825 61 c 1,37,38
 826 56 826 56 826 47 c 128,-1,39
 826 38 826 38 820 26 c 1,40,13
 752 31 752 31 711.5 31 c 128,-1,14
225 528 m 1,41,42
 340 510 340 510 340 434 c 0,43,44
 340 366 340 366 296.5 335 c 128,-1,45
 253 304 253 304 180.5 304 c 128,-1,46
 108 304 108 304 54 331 c 1,47,48
 53 340 53 340 53 364 c 128,-1,49
 53 388 53 388 63 434 c 1,50,51
 71 436 71 436 80 436 c 128,-1,52
 89 436 89 436 97 434 c 1,53,54
 108 395 108 395 110 356 c 1,55,56
 134 343 134 343 184 343 c 0,57,58
 262 343 262 343 262 420 c 0,59,60
 262 463 262 463 229.5 482 c 128,-1,61
 197 501 197 501 124 501 c 1,62,-1
 124 542 l 1,63,64
 183 542 183 542 214 562.5 c 128,-1,65
 245 583 245 583 245 618 c 0,66,67
 245 690 245 690 170 690 c 0,68,69
 140 690 140 690 115 677 c 1,70,71
 113 633 113 633 102 597 c 1,72,73
 94 595 94 595 85 595 c 128,-1,74
 76 595 76 595 68 597 c 1,75,76
 58 643 58 643 58 667 c 128,-1,77
 58 691 58 691 59 700 c 1,78,79
 113 727 113 727 184 727 c 0,80,81
 322 727 322 727 322 631 c 0,82,83
 322 557 322 557 225 530 c 1,84,-1
 225 528 l 1,41,42
EndSplineSet
EndChar

StartChar: questiondown
Encoding: 191 191 129
Width: 423
Flags: W
LayerCount: 2
Fore
SplineSet
135 -59 m 0,0,1
 135 -155 135 -155 230 -155 c 0,2,3
 277 -155 277 -155 307 -131 c 1,4,5
 316 -56 316 -56 329 -14 c 1,6,7
 337 -10 337 -10 345.5 -10 c 128,-1,8
 354 -10 354 -10 363 -13 c 1,9,10
 377 -65 377 -65 377 -98.5 c 128,-1,11
 377 -132 377 -132 376 -148 c 1,12,13
 297 -190 297 -190 196 -190 c 128,-1,14
 95 -190 95 -190 52 -118 c 0,15,16
 38 -94 38 -94 38 -58 c 128,-1,17
 38 -22 38 -22 52.5 7 c 128,-1,18
 67 36 67 36 89.5 59 c 128,-1,19
 112 82 112 82 138 103 c 128,-1,20
 164 124 164 124 186 147 c 0,21,22
 237 199 237 199 237 264 c 0,23,24
 237 279 237 279 232 301 c 2,25,-1
 222 341 l 1,26,27
 224 348 224 348 238 348 c 128,-1,28
 252 348 252 348 264 342 c 1,29,30
 299 284 299 284 299 247 c 128,-1,31
 299 210 299 210 287 184 c 128,-1,32
 275 158 275 158 256.5 134 c 128,-1,33
 238 110 238 110 217 88 c 128,-1,34
 196 66 196 66 165.5 27.5 c 128,-1,35
 135 -11 135 -11 135 -59 c 0,0,1
282 427.5 m 128,-1,37
 260 409 260 409 241.5 409 c 128,-1,38
 223 409 223 409 212.5 415.5 c 128,-1,39
 202 422 202 422 194 431.5 c 128,-1,40
 186 441 186 441 182 452.5 c 128,-1,41
 178 464 178 464 178 474 c 128,-1,42
 178 484 178 484 184 494 c 128,-1,43
 190 504 190 504 199.5 512 c 128,-1,44
 209 520 209 520 221.5 525 c 128,-1,45
 234 530 234 530 246 530 c 0,46,47
 267 530 267 530 285.5 509 c 128,-1,48
 304 488 304 488 304 467 c 128,-1,36
 304 446 304 446 282 427.5 c 128,-1,37
EndSplineSet
EndChar

StartChar: Agrave
Encoding: 192 192 130
Width: 684
Flags: W
LayerCount: 2
Fore
SplineSet
221 295 m 1,0,-1
 412 295 l 1,1,-1
 312 560 l 1,2,-1
 221 295 l 1,0,-1
694 -5 m 1,3,4
 627 0 627 0 558.5 0 c 128,-1,5
 490 0 490 0 420 -5 c 1,6,7
 419 2 419 2 419 11 c 128,-1,8
 419 20 419 20 422 30 c 1,9,10
 485 37 485 37 502 50 c 1,11,-1
 432 240 l 1,12,-1
 203 240 l 1,13,-1
 138 50 l 1,14,15
 157 33 157 33 215 30 c 1,16,17
 216 25 216 25 216 16 c 128,-1,18
 216 7 216 7 210 -5 c 1,19,20
 157 -1 157 -1 103.5 -1 c 128,-1,21
 50 -1 50 -1 -4 -5 c 1,22,23
 -5 2 -5 2 -5 11 c 128,-1,24
 -5 20 -5 20 -2 30 c 1,25,26
 61 37 61 37 78 50 c 1,27,-1
 312 701 l 1,28,29
 325 709 325 709 351 709 c 1,30,-1
 622 50 l 1,31,32
 641 33 641 33 699 30 c 1,33,34
 700 25 700 25 700 16 c 128,-1,35
 700 7 700 7 694 -5 c 1,3,4
403 775 m 1,36,37
 391 756 391 756 380 746 c 1,38,-1
 211 843 l 1,39,40
 225 893 225 893 265 919 c 1,41,-1
 403 775 l 1,36,37
EndSplineSet
EndChar

StartChar: Aacute
Encoding: 193 193 131
Width: 684
Flags: W
LayerCount: 2
Fore
SplineSet
221 295 m 1,0,-1
 412 295 l 1,1,-1
 312 560 l 1,2,-1
 221 295 l 1,0,-1
694 -5 m 1,3,4
 627 0 627 0 558.5 0 c 128,-1,5
 490 0 490 0 420 -5 c 1,6,7
 419 2 419 2 419 11 c 128,-1,8
 419 20 419 20 422 30 c 1,9,10
 485 37 485 37 502 50 c 1,11,-1
 432 240 l 1,12,-1
 203 240 l 1,13,-1
 138 50 l 1,14,15
 157 33 157 33 215 30 c 1,16,17
 216 25 216 25 216 16 c 128,-1,18
 216 7 216 7 210 -5 c 1,19,20
 157 -1 157 -1 103.5 -1 c 128,-1,21
 50 -1 50 -1 -4 -5 c 1,22,23
 -5 2 -5 2 -5 11 c 128,-1,24
 -5 20 -5 20 -2 30 c 1,25,26
 61 37 61 37 78 50 c 1,27,-1
 312 701 l 1,28,29
 325 709 325 709 351 709 c 1,30,-1
 622 50 l 1,31,32
 641 33 641 33 699 30 c 1,33,34
 700 25 700 25 700 16 c 128,-1,35
 700 7 700 7 694 -5 c 1,3,4
281 746 m 1,36,37
 270 756 270 756 258 775 c 1,38,-1
 396 919 l 1,39,40
 436 893 436 893 450 843 c 1,41,-1
 281 746 l 1,36,37
EndSplineSet
EndChar

StartChar: Acircumflex
Encoding: 194 194 132
Width: 684
Flags: W
LayerCount: 2
Fore
SplineSet
221 295 m 1,0,-1
 412 295 l 1,1,-1
 312 560 l 1,2,-1
 221 295 l 1,0,-1
694 -5 m 1,3,4
 627 0 627 0 558.5 0 c 128,-1,5
 490 0 490 0 420 -5 c 1,6,7
 419 2 419 2 419 11 c 128,-1,8
 419 20 419 20 422 30 c 1,9,10
 485 37 485 37 502 50 c 1,11,-1
 432 240 l 1,12,-1
 203 240 l 1,13,-1
 138 50 l 1,14,15
 157 33 157 33 215 30 c 1,16,17
 216 25 216 25 216 16 c 128,-1,18
 216 7 216 7 210 -5 c 1,19,20
 157 -1 157 -1 103.5 -1 c 128,-1,21
 50 -1 50 -1 -4 -5 c 1,22,23
 -5 2 -5 2 -5 11 c 128,-1,24
 -5 20 -5 20 -2 30 c 1,25,26
 61 37 61 37 78 50 c 1,27,-1
 312 701 l 1,28,29
 325 709 325 709 351 709 c 1,30,-1
 622 50 l 1,31,32
 641 33 641 33 699 30 c 1,33,34
 700 25 700 25 700 16 c 128,-1,35
 700 7 700 7 694 -5 c 1,3,4
341 853 m 1,36,37
 288 802 288 802 221 755 c 1,38,39
 202 762 202 762 189 779 c 1,40,-1
 314 917 l 1,41,42
 331 919 331 919 346.5 919 c 128,-1,43
 362 919 362 919 377 917 c 1,44,-1
 499 779 l 1,45,46
 487 763 487 763 461 755 c 1,47,48
 430 776 430 776 400 802 c 2,49,-1
 341 853 l 1,36,37
EndSplineSet
EndChar

StartChar: Atilde
Encoding: 195 195 133
Width: 684
Flags: W
LayerCount: 2
Fore
SplineSet
221 295 m 1,0,-1
 412 295 l 1,1,-1
 312 560 l 1,2,-1
 221 295 l 1,0,-1
694 -5 m 1,3,4
 627 0 627 0 558.5 0 c 128,-1,5
 490 0 490 0 420 -5 c 1,6,7
 419 2 419 2 419 11 c 128,-1,8
 419 20 419 20 422 30 c 1,9,10
 485 37 485 37 502 50 c 1,11,-1
 432 240 l 1,12,-1
 203 240 l 1,13,-1
 138 50 l 1,14,15
 157 33 157 33 215 30 c 1,16,17
 216 25 216 25 216 16 c 128,-1,18
 216 7 216 7 210 -5 c 1,19,20
 157 -1 157 -1 103.5 -1 c 128,-1,21
 50 -1 50 -1 -4 -5 c 1,22,23
 -5 2 -5 2 -5 11 c 128,-1,24
 -5 20 -5 20 -2 30 c 1,25,26
 61 37 61 37 78 50 c 1,27,-1
 312 701 l 1,28,29
 325 709 325 709 351 709 c 1,30,-1
 622 50 l 1,31,32
 641 33 641 33 699 30 c 1,33,34
 700 25 700 25 700 16 c 128,-1,35
 700 7 700 7 694 -5 c 1,3,4
506 867 m 1,36,37
 483 786 483 786 421 786 c 0,38,39
 393 786 393 786 358 802 c 1,40,-1
 331 816 l 2,41,42
 312 826 312 826 302 826 c 2,43,-1
 292 826 l 2,44,45
 280 826 280 826 263 817 c 128,-1,46
 246 808 246 808 235 792 c 1,47,48
 224 796 224 796 218 804 c 2,49,-1
 206 818 l 1,50,51
 248 894 248 894 306 894 c 0,52,53
 331 894 331 894 359 880 c 2,54,-1
 383 868 l 1,55,56
 406 855 406 855 420 855 c 0,57,58
 458 855 458 855 477 884 c 1,59,60
 485 884 485 884 492 878 c 2,61,-1
 506 867 l 1,36,37
EndSplineSet
EndChar

StartChar: Adieresis
Encoding: 196 196 134
Width: 684
Flags: W
LayerCount: 2
Fore
SplineSet
221 295 m 1,0,-1
 412 295 l 1,1,-1
 312 560 l 1,2,-1
 221 295 l 1,0,-1
694 -5 m 1,3,4
 627 0 627 0 558.5 0 c 128,-1,5
 490 0 490 0 420 -5 c 1,6,7
 419 2 419 2 419 11 c 128,-1,8
 419 20 419 20 422 30 c 1,9,10
 485 37 485 37 502 50 c 1,11,-1
 432 240 l 1,12,-1
 203 240 l 1,13,-1
 138 50 l 1,14,15
 157 33 157 33 215 30 c 1,16,17
 216 25 216 25 216 16 c 128,-1,18
 216 7 216 7 210 -5 c 1,19,20
 157 -1 157 -1 103.5 -1 c 128,-1,21
 50 -1 50 -1 -4 -5 c 1,22,23
 -5 2 -5 2 -5 11 c 128,-1,24
 -5 20 -5 20 -2 30 c 1,25,26
 61 37 61 37 78 50 c 1,27,-1
 312 701 l 1,28,29
 325 709 325 709 351 709 c 1,30,-1
 622 50 l 1,31,32
 641 33 641 33 699 30 c 1,33,34
 700 25 700 25 700 16 c 128,-1,35
 700 7 700 7 694 -5 c 1,3,4
390 879.5 m 128,-1,37
 412 898 412 898 429 898 c 128,-1,38
 446 898 446 898 457 891.5 c 128,-1,39
 468 885 468 885 476 876 c 1,40,41
 491 856 491 856 491 835.5 c 128,-1,42
 491 815 491 815 469 796.5 c 128,-1,43
 447 778 447 778 430 778 c 0,44,45
 402 778 402 778 385 799.5 c 128,-1,46
 368 821 368 821 368 841 c 128,-1,36
 368 861 368 861 390 879.5 c 128,-1,37
201 880 m 128,-1,48
 223 898 223 898 240 898 c 128,-1,49
 257 898 257 898 268 891.5 c 128,-1,50
 279 885 279 885 286 876 c 0,51,52
 302 856 302 856 302 835.5 c 128,-1,53
 302 815 302 815 280 796.5 c 128,-1,54
 258 778 258 778 241 778 c 0,55,56
 214 778 214 778 196 800 c 0,57,58
 179 822 179 822 179 842 c 128,-1,47
 179 862 179 862 201 880 c 128,-1,48
EndSplineSet
EndChar

StartChar: Aring
Encoding: 197 197 135
Width: 684
Flags: W
LayerCount: 2
Fore
SplineSet
221 295 m 1,0,-1
 412 295 l 1,1,-1
 312 560 l 1,2,-1
 221 295 l 1,0,-1
694 -5 m 1,3,4
 627 0 627 0 558.5 0 c 128,-1,5
 490 0 490 0 420 -5 c 1,6,7
 419 2 419 2 419 11 c 128,-1,8
 419 20 419 20 422 30 c 1,9,10
 485 37 485 37 502 50 c 1,11,-1
 432 240 l 1,12,-1
 203 240 l 1,13,-1
 138 50 l 1,14,15
 157 33 157 33 215 30 c 1,16,17
 216 25 216 25 216 16 c 128,-1,18
 216 7 216 7 210 -5 c 1,19,20
 157 -1 157 -1 103.5 -1 c 128,-1,21
 50 -1 50 -1 -4 -5 c 1,22,23
 -5 2 -5 2 -5 11 c 128,-1,24
 -5 20 -5 20 -2 30 c 1,25,26
 61 37 61 37 78 50 c 1,27,-1
 312 701 l 1,28,29
 325 709 325 709 351 709 c 1,30,-1
 622 50 l 1,31,32
 641 33 641 33 699 30 c 1,33,34
 700 25 700 25 700 16 c 128,-1,35
 700 7 700 7 694 -5 c 1,3,4
232 841 m 0,36,37
 232 876 232 876 272.5 910.5 c 128,-1,38
 313 945 313 945 344 945 c 0,39,40
 345 945 345 945 346 945 c 0,41,42
 399 945 399 945 430.5 906 c 128,-1,43
 462 867 462 867 462 840 c 128,-1,44
 462 813 462 813 451 794.5 c 128,-1,45
 440 776 440 776 422 761 c 0,46,47
 383 727 383 727 340 727 c 0,48,49
 299 727 299 727 265.5 766 c 128,-1,50
 232 805 232 805 232 839 c 0,51,52
 232 840 232 840 232 841 c 0,36,37
308 802 m 128,-1,54
 325 783 325 783 346 783 c 128,-1,55
 367 783 367 783 386 800 c 128,-1,56
 405 817 405 817 405 834.5 c 128,-1,57
 405 852 405 852 389 871.5 c 128,-1,58
 373 891 373 891 357 891 c 0,59,60
 330 891 330 891 310.5 874 c 128,-1,61
 291 857 291 857 291 839 c 128,-1,53
 291 821 291 821 308 802 c 128,-1,54
EndSplineSet
EndChar

StartChar: AE
Encoding: 198 198 136
Width: 884
Flags: W
LayerCount: 2
Fore
SplineSet
521 655 m 1,0,-1
 521 385 l 1,1,-1
 667 385 l 1,2,3
 679 408 679 408 686 473 c 1,4,5
 695 476 695 476 705.5 476 c 128,-1,6
 716 476 716 476 726 468 c 1,7,8
 722 422 722 422 722 355.5 c 128,-1,9
 722 289 722 289 726 243 c 1,10,11
 717 239 717 239 706 239 c 128,-1,12
 695 239 695 239 686 241 c 1,13,14
 679 307 679 307 667 330 c 1,15,-1
 521 330 l 1,16,-1
 521 45 l 1,17,-1
 763 45 l 1,18,19
 769 113 769 113 792 178 c 1,20,21
 799 179 799 179 808 179 c 128,-1,22
 817 179 817 179 827 175 c 1,23,24
 841 108 841 108 841 65 c 128,-1,25
 841 22 841 22 839 0 c 1,26,-1
 471 0 l 2,27,28
 408 0 408 0 338 -5 c 1,29,30
 337 2 337 2 337 11 c 128,-1,31
 337 20 337 20 340 30 c 1,32,33
 398 37 398 37 416 50 c 1,34,-1
 416 240 l 1,35,-1
 217 240 l 1,36,-1
 132 50 l 1,37,38
 151 33 151 33 209 30 c 1,39,40
 210 25 210 25 210 16 c 128,-1,41
 210 7 210 7 204 -5 c 1,42,43
 148 -1 148 -1 92 -1 c 1,44,-1
 -20 -5 l 1,45,46
 -21 2 -21 2 -21 11 c 128,-1,47
 -21 20 -21 20 -18 30 c 1,48,49
 45 37 45 37 62 50 c 1,50,-1
 360 700 l 1,51,-1
 831 700 l 1,52,53
 834 679 834 679 834 639.5 c 128,-1,54
 834 600 834 600 820 525 c 1,55,56
 810 521 810 521 800.5 521 c 128,-1,57
 791 521 791 521 784 522 c 1,58,59
 761 601 761 601 758 655 c 1,60,-1
 521 655 l 1,0,-1
416 295 m 1,61,-1
 416 655 l 1,62,63
 408 655 408 655 399 648 c 1,64,-1
 241 295 l 1,65,-1
 416 295 l 1,61,-1
EndSplineSet
EndChar

StartChar: Ccedilla
Encoding: 199 199 137
Width: 647
Flags: W
LayerCount: 2
Fore
SplineSet
490 -121 m 0,0,1
 490 -164 490 -164 454.5 -193.5 c 128,-1,2
 419 -223 419 -223 363.5 -223 c 128,-1,3
 308 -223 308 -223 273 -210 c 1,4,5
 274 -192 274 -192 288 -181 c 1,6,7
 317 -193 317 -193 349 -193 c 128,-1,8
 381 -193 381 -193 401.5 -177.5 c 128,-1,9
 422 -162 422 -162 422 -143 c 0,10,11
 422 -85 422 -85 332 -85 c 1,12,-1
 331 -16 l 1,13,14
 222 0 222 0 162 58 c 0,15,16
 45 170 45 170 45 349 c 128,-1,17
 45 528 45 528 145.5 624.5 c 128,-1,18
 246 721 246 721 382 721 c 128,-1,19
 518 721 518 721 612 672 c 1,20,21
 608 581 608 581 581 508 c 1,22,23
 573 506 573 506 561.5 506 c 128,-1,24
 550 506 550 506 537 513 c 1,25,26
 525 564 525 564 525 596.5 c 128,-1,27
 525 629 525 629 526 642 c 1,28,29
 472 667 472 667 407 667 c 0,30,31
 294 667 294 667 233.5 575.5 c 128,-1,32
 173 484 173 484 173 350 c 0,33,34
 174 123 174 123 298 56 c 0,35,36
 340 33 340 33 399 33 c 0,37,38
 503 33 503 33 593 109 c 1,39,40
 614 103 614 103 616 76 c 1,41,42
 518 -20 518 -20 388 -20 c 2,43,-1
 371 -20 l 1,44,-1
 373 -36 l 1,45,46
 490 -36 490 -36 490 -121 c 0,0,1
EndSplineSet
EndChar

StartChar: Egrave
Encoding: 200 200 138
Width: 585
Flags: W
LayerCount: 2
Fore
SplineSet
423 355.5 m 128,-1,1
 423 289 423 289 427 243 c 1,2,3
 418 239 418 239 407 239 c 128,-1,4
 396 239 396 239 387 241 c 1,5,6
 380 307 380 307 368 330 c 1,7,-1
 222 330 l 1,8,-1
 222 45 l 1,9,-1
 464 45 l 1,10,11
 470 113 470 113 493 178 c 1,12,13
 500 179 500 179 509 179 c 128,-1,14
 518 179 518 179 528 175 c 1,15,16
 542 108 542 108 542 65 c 128,-1,17
 542 22 542 22 540 0 c 1,18,-1
 172 0 l 2,19,20
 109 0 109 0 39 -5 c 1,21,22
 38 2 38 2 38 11 c 128,-1,23
 38 20 38 20 41 30 c 1,24,25
 99 37 99 37 117 50 c 1,26,-1
 117 650 l 1,27,28
 100 663 100 663 40 670 c 1,29,30
 39 675 39 675 39 684 c 128,-1,31
 39 693 39 693 45 705 c 1,32,33
 113 700 113 700 167 700 c 2,34,-1
 532 700 l 1,35,36
 535 679 535 679 535 639.5 c 128,-1,37
 535 600 535 600 521 525 c 1,38,39
 511 521 511 521 501.5 521 c 128,-1,40
 492 521 492 521 485 522 c 1,41,42
 462 601 462 601 459 655 c 1,43,-1
 222 655 l 1,44,-1
 222 385 l 1,45,-1
 368 385 l 1,46,47
 380 408 380 408 387 473 c 1,48,49
 396 476 396 476 406.5 476 c 128,-1,50
 417 476 417 476 427 468 c 1,51,0
 423 422 423 422 423 355.5 c 128,-1,1
392 775 m 1,52,53
 380 756 380 756 369 746 c 1,54,-1
 200 843 l 1,55,56
 214 893 214 893 254 919 c 1,57,-1
 392 775 l 1,52,53
EndSplineSet
EndChar

StartChar: Eacute
Encoding: 201 201 139
Width: 585
Flags: W
LayerCount: 2
Fore
SplineSet
423 355.5 m 128,-1,1
 423 289 423 289 427 243 c 1,2,3
 418 239 418 239 407 239 c 128,-1,4
 396 239 396 239 387 241 c 1,5,6
 380 307 380 307 368 330 c 1,7,-1
 222 330 l 1,8,-1
 222 45 l 1,9,-1
 464 45 l 1,10,11
 470 113 470 113 493 178 c 1,12,13
 500 179 500 179 509 179 c 128,-1,14
 518 179 518 179 528 175 c 1,15,16
 542 108 542 108 542 65 c 128,-1,17
 542 22 542 22 540 0 c 1,18,-1
 172 0 l 2,19,20
 109 0 109 0 39 -5 c 1,21,22
 38 2 38 2 38 11 c 128,-1,23
 38 20 38 20 41 30 c 1,24,25
 99 37 99 37 117 50 c 1,26,-1
 117 650 l 1,27,28
 100 663 100 663 40 670 c 1,29,30
 39 675 39 675 39 684 c 128,-1,31
 39 693 39 693 45 705 c 1,32,33
 113 700 113 700 167 700 c 2,34,-1
 532 700 l 1,35,36
 535 679 535 679 535 639.5 c 128,-1,37
 535 600 535 600 521 525 c 1,38,39
 511 521 511 521 501.5 521 c 128,-1,40
 492 521 492 521 485 522 c 1,41,42
 462 601 462 601 459 655 c 1,43,-1
 222 655 l 1,44,-1
 222 385 l 1,45,-1
 368 385 l 1,46,47
 380 408 380 408 387 473 c 1,48,49
 396 476 396 476 406.5 476 c 128,-1,50
 417 476 417 476 427 468 c 1,51,0
 423 422 423 422 423 355.5 c 128,-1,1
270 746 m 1,52,53
 259 756 259 756 247 775 c 1,54,-1
 385 919 l 1,55,56
 425 893 425 893 439 843 c 1,57,-1
 270 746 l 1,52,53
EndSplineSet
EndChar

StartChar: Ecircumflex
Encoding: 202 202 140
Width: 585
Flags: W
LayerCount: 2
Fore
SplineSet
423 355.5 m 128,-1,1
 423 289 423 289 427 243 c 1,2,3
 418 239 418 239 407 239 c 128,-1,4
 396 239 396 239 387 241 c 1,5,6
 380 307 380 307 368 330 c 1,7,-1
 222 330 l 1,8,-1
 222 45 l 1,9,-1
 464 45 l 1,10,11
 470 113 470 113 493 178 c 1,12,13
 500 179 500 179 509 179 c 128,-1,14
 518 179 518 179 528 175 c 1,15,16
 542 108 542 108 542 65 c 128,-1,17
 542 22 542 22 540 0 c 1,18,-1
 172 0 l 2,19,20
 109 0 109 0 39 -5 c 1,21,22
 38 2 38 2 38 11 c 128,-1,23
 38 20 38 20 41 30 c 1,24,25
 99 37 99 37 117 50 c 1,26,-1
 117 650 l 1,27,28
 100 663 100 663 40 670 c 1,29,30
 39 675 39 675 39 684 c 128,-1,31
 39 693 39 693 45 705 c 1,32,33
 113 700 113 700 167 700 c 2,34,-1
 532 700 l 1,35,36
 535 679 535 679 535 639.5 c 128,-1,37
 535 600 535 600 521 525 c 1,38,39
 511 521 511 521 501.5 521 c 128,-1,40
 492 521 492 521 485 522 c 1,41,42
 462 601 462 601 459 655 c 1,43,-1
 222 655 l 1,44,-1
 222 385 l 1,45,-1
 368 385 l 1,46,47
 380 408 380 408 387 473 c 1,48,49
 396 476 396 476 406.5 476 c 128,-1,50
 417 476 417 476 427 468 c 1,51,0
 423 422 423 422 423 355.5 c 128,-1,1
330 853 m 1,52,53
 277 802 277 802 210 755 c 1,54,55
 191 762 191 762 178 779 c 1,56,-1
 303 917 l 1,57,58
 320 919 320 919 335.5 919 c 128,-1,59
 351 919 351 919 366 917 c 1,60,-1
 488 779 l 1,61,62
 476 763 476 763 450 755 c 1,63,64
 418 776 418 776 388 802 c 2,65,-1
 330 853 l 1,52,53
EndSplineSet
EndChar

StartChar: Edieresis
Encoding: 203 203 141
Width: 585
Flags: W
LayerCount: 2
Fore
SplineSet
423 355.5 m 128,-1,1
 423 289 423 289 427 243 c 1,2,3
 418 239 418 239 407 239 c 128,-1,4
 396 239 396 239 387 241 c 1,5,6
 380 307 380 307 368 330 c 1,7,-1
 222 330 l 1,8,-1
 222 45 l 1,9,-1
 464 45 l 1,10,11
 470 113 470 113 493 178 c 1,12,13
 500 179 500 179 509 179 c 128,-1,14
 518 179 518 179 528 175 c 1,15,16
 542 108 542 108 542 65 c 128,-1,17
 542 22 542 22 540 0 c 1,18,-1
 172 0 l 2,19,20
 109 0 109 0 39 -5 c 1,21,22
 38 2 38 2 38 11 c 128,-1,23
 38 20 38 20 41 30 c 1,24,25
 99 37 99 37 117 50 c 1,26,-1
 117 650 l 1,27,28
 100 663 100 663 40 670 c 1,29,30
 39 675 39 675 39 684 c 128,-1,31
 39 693 39 693 45 705 c 1,32,33
 113 700 113 700 167 700 c 2,34,-1
 532 700 l 1,35,36
 535 679 535 679 535 639.5 c 128,-1,37
 535 600 535 600 521 525 c 1,38,39
 511 521 511 521 501.5 521 c 128,-1,40
 492 521 492 521 485 522 c 1,41,42
 462 601 462 601 459 655 c 1,43,-1
 222 655 l 1,44,-1
 222 385 l 1,45,-1
 368 385 l 1,46,47
 380 408 380 408 387 473 c 1,48,49
 396 476 396 476 406.5 476 c 128,-1,50
 417 476 417 476 427 468 c 1,51,0
 423 422 423 422 423 355.5 c 128,-1,1
379 880 m 128,-1,53
 401 898 401 898 418 898 c 128,-1,54
 435 898 435 898 446 891.5 c 128,-1,55
 457 885 457 885 464 876 c 0,56,57
 480 856 480 856 480 835.5 c 128,-1,58
 480 815 480 815 458 796.5 c 128,-1,59
 436 778 436 778 419 778 c 0,60,61
 392 778 392 778 374 800 c 0,62,63
 357 822 357 822 357 842 c 128,-1,52
 357 862 357 862 379 880 c 128,-1,53
190 879.5 m 128,-1,65
 212 898 212 898 229 898 c 128,-1,66
 246 898 246 898 257 891.5 c 128,-1,67
 268 885 268 885 276 876 c 1,68,69
 291 856 291 856 291 835.5 c 128,-1,70
 291 815 291 815 269 796.5 c 128,-1,71
 247 778 247 778 230 778 c 0,72,73
 202 778 202 778 185 799.5 c 128,-1,74
 168 821 168 821 168 841 c 128,-1,64
 168 861 168 861 190 879.5 c 128,-1,65
EndSplineSet
EndChar

StartChar: Igrave
Encoding: 204 204 142
Width: 339
Flags: W
LayerCount: 2
Fore
SplineSet
146 700 m 2,0,1
 146 700 146 700 199 700 c 1,2,-1
 236 702 l 2,3,4
 266 703 266 703 304 705 c 1,5,6
 305 698 305 698 305 689 c 128,-1,7
 305 680 305 680 302 670 c 1,8,9
 239 663 239 663 222 650 c 1,10,-1
 222 50 l 1,11,12
 241 33 241 33 299 30 c 1,13,14
 300 25 300 25 300 16 c 128,-1,15
 300 7 300 7 294 -5 c 1,16,17
 230 0 230 0 165.5 0 c 128,-1,18
 101 0 101 0 35 -5 c 1,19,20
 34 2 34 2 34 11 c 128,-1,21
 34 20 34 20 37 30 c 1,22,23
 100 37 100 37 117 50 c 1,24,-1
 117 650 l 1,25,26
 100 663 100 663 40 670 c 1,27,28
 39 675 39 675 39 684 c 128,-1,29
 39 693 39 693 45 705 c 1,30,31
 112 700 112 700 146 700 c 2,0,1
239 776 m 1,32,33
 227 757 227 757 216 747 c 1,34,-1
 47 844 l 1,35,36
 61 894 61 894 101 920 c 1,37,-1
 239 776 l 1,32,33
EndSplineSet
EndChar

StartChar: Iacute
Encoding: 205 205 143
Width: 339
Flags: W
LayerCount: 2
Fore
SplineSet
146 700 m 2,0,1
 146 700 146 700 199 700 c 1,2,-1
 236 702 l 2,3,4
 266 703 266 703 304 705 c 1,5,6
 305 698 305 698 305 689 c 128,-1,7
 305 680 305 680 302 670 c 1,8,9
 239 663 239 663 222 650 c 1,10,-1
 222 50 l 1,11,12
 241 33 241 33 299 30 c 1,13,14
 300 25 300 25 300 16 c 128,-1,15
 300 7 300 7 294 -5 c 1,16,17
 230 0 230 0 165.5 0 c 128,-1,18
 101 0 101 0 35 -5 c 1,19,20
 34 2 34 2 34 11 c 128,-1,21
 34 20 34 20 37 30 c 1,22,23
 100 37 100 37 117 50 c 1,24,-1
 117 650 l 1,25,26
 100 663 100 663 40 670 c 1,27,28
 39 675 39 675 39 684 c 128,-1,29
 39 693 39 693 45 705 c 1,30,31
 112 700 112 700 146 700 c 2,0,1
117 747 m 1,32,33
 106 757 106 757 94 776 c 1,34,-1
 232 920 l 1,35,36
 272 894 272 894 286 844 c 1,37,-1
 117 747 l 1,32,33
EndSplineSet
EndChar

StartChar: Icircumflex
Encoding: 206 206 144
Width: 339
Flags: W
LayerCount: 2
Fore
SplineSet
146 700 m 2,0,1
 146 700 146 700 199 700 c 1,2,-1
 236 702 l 2,3,4
 266 703 266 703 304 705 c 1,5,6
 305 698 305 698 305 689 c 128,-1,7
 305 680 305 680 302 670 c 1,8,9
 239 663 239 663 222 650 c 1,10,-1
 222 50 l 1,11,12
 241 33 241 33 299 30 c 1,13,14
 300 25 300 25 300 16 c 128,-1,15
 300 7 300 7 294 -5 c 1,16,17
 230 0 230 0 165.5 0 c 128,-1,18
 101 0 101 0 35 -5 c 1,19,20
 34 2 34 2 34 11 c 128,-1,21
 34 20 34 20 37 30 c 1,22,23
 100 37 100 37 117 50 c 1,24,-1
 117 650 l 1,25,26
 100 663 100 663 40 670 c 1,27,28
 39 675 39 675 39 684 c 128,-1,29
 39 693 39 693 45 705 c 1,30,31
 112 700 112 700 146 700 c 2,0,1
177 854 m 1,32,33
 124 803 124 803 57 756 c 1,34,35
 38 763 38 763 25 780 c 1,36,-1
 150 918 l 1,37,38
 167 920 167 920 182.5 920 c 128,-1,39
 198 920 198 920 213 918 c 1,40,-1
 335 780 l 1,41,42
 323 764 323 764 297 756 c 1,43,44
 266 776 266 776 236 802 c 2,45,-1
 177 854 l 1,32,33
EndSplineSet
EndChar

StartChar: Idieresis
Encoding: 207 207 145
Width: 339
Flags: W
LayerCount: 2
Fore
SplineSet
146 700 m 2,0,1
 146 700 146 700 199 700 c 1,2,-1
 236 702 l 2,3,4
 266 703 266 703 304 705 c 1,5,6
 305 698 305 698 305 689 c 128,-1,7
 305 680 305 680 302 670 c 1,8,9
 239 663 239 663 222 650 c 1,10,-1
 222 50 l 1,11,12
 241 33 241 33 299 30 c 1,13,14
 300 25 300 25 300 16 c 128,-1,15
 300 7 300 7 294 -5 c 1,16,17
 230 0 230 0 165.5 0 c 128,-1,18
 101 0 101 0 35 -5 c 1,19,20
 34 2 34 2 34 11 c 128,-1,21
 34 20 34 20 37 30 c 1,22,23
 100 37 100 37 117 50 c 1,24,-1
 117 650 l 1,25,26
 100 663 100 663 40 670 c 1,27,28
 39 675 39 675 39 684 c 128,-1,29
 39 693 39 693 45 705 c 1,30,31
 112 700 112 700 146 700 c 2,0,1
227 880 m 128,-1,33
 249 898 249 898 266 898.5 c 128,-1,34
 283 899 283 899 294 892.5 c 128,-1,35
 305 886 305 886 312 876 c 1,36,37
 328 857 328 857 328 836.5 c 128,-1,38
 328 816 328 816 306 797.5 c 128,-1,39
 284 779 284 779 267 780 c 1,40,41
 239 780 239 780 222 802 c 256,42,43
 205 824 205 824 205 843 c 128,-1,32
 205 862 205 862 227 880 c 128,-1,33
38 880.5 m 128,-1,45
 60 899 60 899 77 899 c 128,-1,46
 94 899 94 899 105 892.5 c 128,-1,47
 116 886 116 886 124 876 c 0,48,49
 139 857 139 857 139 836.5 c 128,-1,50
 139 816 139 816 117 797.5 c 128,-1,51
 95 779 95 779 78 779 c 0,52,53
 50 779 50 779 33 801 c 128,-1,54
 16 823 16 823 16 842.5 c 128,-1,44
 16 862 16 862 38 880.5 c 128,-1,45
EndSplineSet
EndChar

StartChar: Eth
Encoding: 208 208 146
Width: 740
Flags: W
LayerCount: 2
Fore
SplineSet
411 395 m 1,0,1
 411 358 411 358 400 340 c 1,2,-1
 223 340 l 1,3,-1
 223 45 l 1,4,-1
 268 45 l 1,5,6
 506 46 506 46 560 224 c 0,7,8
 578 282 578 282 578 350 c 0,9,10
 578 486 578 486 505.5 570.5 c 128,-1,11
 433 655 433 655 293 655 c 2,12,-1
 223 655 l 1,13,-1
 223 395 l 1,14,-1
 411 395 l 1,0,1
168 700 m 2,15,-1
 298 700 l 2,16,17
 599 700 599 700 671 496 c 0,18,19
 693 434 693 434 693 346 c 0,20,21
 693 171 693 171 571 77 c 0,22,23
 470 0 470 0 298 0 c 2,24,-1
 173 0 l 2,25,26
 106 0 106 0 36 -5 c 1,27,28
 35 2 35 2 35 11 c 128,-1,29
 35 20 35 20 38 30 c 1,30,31
 101 37 101 37 118 50 c 1,32,-1
 118 340 l 1,33,-1
 37 340 l 1,34,35
 36 345 36 345 36 352.5 c 128,-1,36
 36 360 36 360 40.5 376 c 128,-1,37
 45 392 45 392 48 395 c 1,38,-1
 118 395 l 1,39,-1
 118 650 l 1,40,41
 101 663 101 663 41 670 c 1,42,43
 40 675 40 675 40 684 c 128,-1,44
 40 693 40 693 46 705 c 1,45,46
 114 700 114 700 168 700 c 2,15,-1
EndSplineSet
EndChar

StartChar: Ntilde
Encoding: 209 209 147
Width: 757
Flags: W
LayerCount: 2
Fore
SplineSet
622 700 m 128,-1,1
 658 700 658 700 728 705 c 1,2,3
 729 698 729 698 729 689 c 128,-1,4
 729 680 729 680 726 670 c 1,5,6
 663 663 663 663 646 650 c 1,7,-1
 646 -20 l 1,8,9
 641 -30 641 -30 635 -30 c 2,10,-1
 626 -30 l 1,11,-1
 171 540 l 1,12,-1
 171 50 l 1,13,14
 185 36 185 36 248 29 c 1,15,16
 249 24 249 24 249 15 c 128,-1,17
 249 6 249 6 243 -6 c 1,18,-1
 191 -2 l 2,19,20
 166 0 166 0 137 0 c 128,-1,21
 108 0 108 0 86 -2 c 2,22,-1
 36 -5 l 1,23,24
 35 2 35 2 35 11 c 128,-1,25
 35 20 35 20 38 30 c 1,26,27
 100 37 100 37 116 50 c 1,28,-1
 116 650 l 1,29,30
 99 663 99 663 39 670 c 1,31,32
 38 675 38 675 38 684 c 128,-1,33
 38 693 38 693 44 705 c 1,34,35
 112 700 112 700 166 700 c 2,36,-1
 206 700 l 1,37,-1
 206 680 l 1,38,-1
 591 185 l 1,39,-1
 590 650 l 1,40,41
 573 663 573 663 513 670 c 1,42,43
 512 675 512 675 512 684 c 128,-1,44
 512 693 512 693 518 705 c 1,45,0
 586 700 586 700 622 700 c 128,-1,1
546 867 m 1,46,47
 523 786 523 786 461 786 c 0,48,49
 433 786 433 786 398 802 c 1,50,-1
 371 816 l 2,51,52
 352 826 352 826 342 826 c 2,53,-1
 332 826 l 2,54,55
 320 826 320 826 303 817 c 128,-1,56
 286 808 286 808 275 792 c 1,57,58
 264 796 264 796 258 804 c 2,59,-1
 246 818 l 1,60,61
 288 894 288 894 346 894 c 0,62,63
 371 894 371 894 399 880 c 2,64,-1
 423 868 l 1,65,66
 446 855 446 855 460 855 c 0,67,68
 498 855 498 855 517 884 c 1,69,70
 525 884 525 884 532 878 c 2,71,-1
 546 867 l 1,46,47
EndSplineSet
EndChar

StartChar: Ograve
Encoding: 210 210 148
Width: 743
Flags: W
LayerCount: 2
Fore
SplineSet
525.5 579.5 m 128,-1,1
 467 674 467 674 364.5 674 c 128,-1,2
 262 674 262 674 210.5 579 c 128,-1,3
 159 484 159 484 159 348 c 128,-1,4
 159 212 159 212 216.5 119 c 128,-1,5
 274 26 274 26 378 26 c 128,-1,6
 482 26 482 26 533 121 c 128,-1,7
 584 216 584 216 584 350.5 c 128,-1,0
 584 485 584 485 525.5 579.5 c 128,-1,1
609 616.5 m 128,-1,9
 699 513 699 513 699 349 c 128,-1,10
 699 185 699 185 609.5 82.5 c 128,-1,11
 520 -20 520 -20 370.5 -20 c 128,-1,12
 221 -20 221 -20 132.5 82 c 128,-1,13
 44 184 44 184 44 348.5 c 128,-1,14
 44 513 44 513 132.5 616.5 c 128,-1,15
 221 720 221 720 370 720 c 128,-1,8
 519 720 519 720 609 616.5 c 128,-1,9
438 775 m 1,16,17
 426 756 426 756 415 746 c 1,18,-1
 246 843 l 1,19,20
 260 893 260 893 300 919 c 1,21,-1
 438 775 l 1,16,17
EndSplineSet
EndChar

StartChar: Oacute
Encoding: 211 211 149
Width: 743
Flags: W
LayerCount: 2
Fore
SplineSet
525.5 579.5 m 128,-1,1
 467 674 467 674 364.5 674 c 128,-1,2
 262 674 262 674 210.5 579 c 128,-1,3
 159 484 159 484 159 348 c 128,-1,4
 159 212 159 212 216.5 119 c 128,-1,5
 274 26 274 26 378 26 c 128,-1,6
 482 26 482 26 533 121 c 128,-1,7
 584 216 584 216 584 350.5 c 128,-1,0
 584 485 584 485 525.5 579.5 c 128,-1,1
609 616.5 m 128,-1,9
 699 513 699 513 699 349 c 128,-1,10
 699 185 699 185 609.5 82.5 c 128,-1,11
 520 -20 520 -20 370.5 -20 c 128,-1,12
 221 -20 221 -20 132.5 82 c 128,-1,13
 44 184 44 184 44 348.5 c 128,-1,14
 44 513 44 513 132.5 616.5 c 128,-1,15
 221 720 221 720 370 720 c 128,-1,8
 519 720 519 720 609 616.5 c 128,-1,9
316 746 m 1,16,17
 305 756 305 756 293 775 c 1,18,-1
 431 919 l 1,19,20
 471 893 471 893 485 843 c 1,21,-1
 316 746 l 1,16,17
EndSplineSet
EndChar

StartChar: Ocircumflex
Encoding: 212 212 150
Width: 743
Flags: W
LayerCount: 2
Fore
SplineSet
525.5 579.5 m 128,-1,1
 467 674 467 674 364.5 674 c 128,-1,2
 262 674 262 674 210.5 579 c 128,-1,3
 159 484 159 484 159 348 c 128,-1,4
 159 212 159 212 216.5 119 c 128,-1,5
 274 26 274 26 378 26 c 128,-1,6
 482 26 482 26 533 121 c 128,-1,7
 584 216 584 216 584 350.5 c 128,-1,0
 584 485 584 485 525.5 579.5 c 128,-1,1
609 616.5 m 128,-1,9
 699 513 699 513 699 349 c 128,-1,10
 699 185 699 185 609.5 82.5 c 128,-1,11
 520 -20 520 -20 370.5 -20 c 128,-1,12
 221 -20 221 -20 132.5 82 c 128,-1,13
 44 184 44 184 44 348.5 c 128,-1,14
 44 513 44 513 132.5 616.5 c 128,-1,15
 221 720 221 720 370 720 c 128,-1,8
 519 720 519 720 609 616.5 c 128,-1,9
376 853 m 1,16,17
 323 802 323 802 256 755 c 1,18,19
 237 762 237 762 224 779 c 1,20,-1
 349 917 l 1,21,22
 366 919 366 919 381.5 919 c 128,-1,23
 397 919 397 919 412 917 c 1,24,-1
 534 779 l 1,25,26
 522 763 522 763 496 755 c 1,27,28
 464 776 464 776 434 802 c 2,29,-1
 376 853 l 1,16,17
EndSplineSet
EndChar

StartChar: Otilde
Encoding: 213 213 151
Width: 743
Flags: W
LayerCount: 2
Fore
SplineSet
525.5 579.5 m 128,-1,1
 467 674 467 674 364.5 674 c 128,-1,2
 262 674 262 674 210.5 579 c 128,-1,3
 159 484 159 484 159 348 c 128,-1,4
 159 212 159 212 216.5 119 c 128,-1,5
 274 26 274 26 378 26 c 128,-1,6
 482 26 482 26 533 121 c 128,-1,7
 584 216 584 216 584 350.5 c 128,-1,0
 584 485 584 485 525.5 579.5 c 128,-1,1
609 616.5 m 128,-1,9
 699 513 699 513 699 349 c 128,-1,10
 699 185 699 185 609.5 82.5 c 128,-1,11
 520 -20 520 -20 370.5 -20 c 128,-1,12
 221 -20 221 -20 132.5 82 c 128,-1,13
 44 184 44 184 44 348.5 c 128,-1,14
 44 513 44 513 132.5 616.5 c 128,-1,15
 221 720 221 720 370 720 c 128,-1,8
 519 720 519 720 609 616.5 c 128,-1,9
541 867 m 1,16,17
 518 786 518 786 456 786 c 0,18,19
 428 786 428 786 393 802 c 1,20,-1
 366 816 l 2,21,22
 347 826 347 826 338 826 c 2,23,24
 338 826 338 826 327 826 c 0,25,26
 315 826 315 826 298 817 c 128,-1,27
 281 808 281 808 270 792 c 1,28,29
 258 796 258 796 252 804 c 2,30,-1
 241 818 l 1,31,32
 283 894 283 894 341 894 c 0,33,34
 366 894 366 894 394 880 c 2,35,-1
 418 868 l 1,36,37
 441 855 441 855 455 855 c 0,38,39
 493 855 493 855 512 884 c 1,40,41
 520 884 520 884 527 878 c 2,42,-1
 541 867 l 1,16,17
EndSplineSet
EndChar

StartChar: Odieresis
Encoding: 214 214 152
Width: 743
Flags: W
LayerCount: 2
Fore
SplineSet
525.5 579.5 m 128,-1,1
 467 674 467 674 364.5 674 c 128,-1,2
 262 674 262 674 210.5 579 c 128,-1,3
 159 484 159 484 159 348 c 128,-1,4
 159 212 159 212 216.5 119 c 128,-1,5
 274 26 274 26 378 26 c 128,-1,6
 482 26 482 26 533 121 c 128,-1,7
 584 216 584 216 584 350.5 c 128,-1,0
 584 485 584 485 525.5 579.5 c 128,-1,1
609 616.5 m 128,-1,9
 699 513 699 513 699 349 c 128,-1,10
 699 185 699 185 609.5 82.5 c 128,-1,11
 520 -20 520 -20 370.5 -20 c 128,-1,12
 221 -20 221 -20 132.5 82 c 128,-1,13
 44 184 44 184 44 348.5 c 128,-1,14
 44 513 44 513 132.5 616.5 c 128,-1,15
 221 720 221 720 370 720 c 128,-1,8
 519 720 519 720 609 616.5 c 128,-1,9
425 880 m 128,-1,17
 447 898 447 898 464 898 c 128,-1,18
 481 898 481 898 492 891.5 c 128,-1,19
 503 885 503 885 510 876 c 0,20,21
 526 856 526 856 526 835.5 c 128,-1,22
 526 815 526 815 504 796.5 c 128,-1,23
 482 778 482 778 465 778 c 0,24,25
 438 778 438 778 420 800 c 0,26,27
 403 822 403 822 403 842 c 128,-1,16
 403 862 403 862 425 880 c 128,-1,17
236 879.5 m 128,-1,29
 258 898 258 898 275 898 c 128,-1,30
 292 898 292 898 303 891.5 c 128,-1,31
 314 885 314 885 322 876 c 1,32,33
 337 856 337 856 337 835.5 c 128,-1,34
 337 815 337 815 315 796.5 c 128,-1,35
 293 778 293 778 276 778 c 0,36,37
 248 778 248 778 231 799.5 c 128,-1,38
 214 821 214 821 214 841 c 128,-1,28
 214 861 214 861 236 879.5 c 128,-1,29
EndSplineSet
EndChar

StartChar: multiply
Encoding: 215 215 153
Width: 445
Flags: W
LayerCount: 2
Fore
SplineSet
55 440 m 1,0,1
 83 468 83 468 110 479 c 1,2,-1
 223 364 l 1,3,-1
 341 482 l 1,4,-1
 351 470 l 2,5,6
 375 442 375 442 378 429 c 1,7,-1
 268 319 l 1,8,-1
 390 198 l 1,9,10
 379 180 379 180 359 170 c 128,-1,11
 339 160 339 160 335 160 c 1,12,-1
 222 273 l 1,13,-1
 102 153 l 1,14,15
 86 163 86 163 75.5 182.5 c 128,-1,16
 65 202 65 202 65 206 c 1,17,-1
 177 318 l 1,18,-1
 55 440 l 1,0,1
EndSplineSet
EndChar

StartChar: Oslash
Encoding: 216 216 154
Width: 743
Flags: W
LayerCount: 2
Fore
SplineSet
584 349 m 128,-1,1
 584 482 584 482 529 574 c 1,2,-1
 254 74 l 1,3,4
 308 26 308 26 371 26 c 0,5,6
 482 26 482 26 533 121 c 128,-1,0
 584 216 584 216 584 349 c 128,-1,1
375 674 m 0,7,8
 262 674 262 674 210.5 579 c 128,-1,9
 159 484 159 484 159 346 c 128,-1,10
 159 208 159 208 216 120 c 1,11,-1
 492 621 l 1,12,13
 439 674 439 674 375 674 c 0,7,8
370 720 m 0,14,15
 459 720 459 720 531 679 c 1,16,-1
 582 765 l 1,17,18
 590 766 590 766 609 766 c 128,-1,19
 628 766 628 766 641 755 c 1,20,-1
 577 647 l 1,21,22
 699 542 699 542 699 363.5 c 128,-1,23
 699 185 699 185 609.5 82.5 c 128,-1,24
 520 -20 520 -20 370 -20 c 0,25,26
 285 -20 285 -20 215 16 c 1,27,-1
 179 -50 l 1,28,29
 144 -50 144 -50 118 -40 c 1,30,-1
 168 48 l 1,31,32
 44 147 44 147 44 351 c 0,33,34
 44 513 44 513 132.5 616.5 c 128,-1,35
 221 720 221 720 370 720 c 0,14,15
EndSplineSet
EndChar

StartChar: Ugrave
Encoding: 217 217 155
Width: 745
Flags: W
LayerCount: 2
Fore
SplineSet
617.5 700 m 128,-1,1
 653 700 653 700 723 705 c 1,2,3
 724 698 724 698 724 689 c 128,-1,4
 724 680 724 680 721 670 c 1,5,6
 658 663 658 663 641 650 c 1,7,-1
 641 275 l 2,8,9
 641 103 641 103 579 41.5 c 128,-1,10
 517 -20 517 -20 377 -20 c 128,-1,11
 237 -20 237 -20 169 39.5 c 128,-1,12
 101 99 101 99 101 265 c 2,13,-1
 101 650 l 1,14,15
 84 663 84 663 24 670 c 1,16,17
 23 675 23 675 23 684 c 128,-1,18
 23 693 23 693 29 705 c 1,19,20
 97 700 97 700 131 700 c 2,21,-1
 183 700 l 1,22,-1
 220 702 l 2,23,24
 250 703 250 703 288 705 c 1,25,26
 289 698 289 698 289 689 c 128,-1,27
 289 680 289 680 286 670 c 1,28,29
 223 663 223 663 206 650 c 1,30,-1
 206 235 l 2,31,32
 206 30 206 30 407 30 c 0,33,34
 570 30 570 30 582 209 c 0,35,36
 586 258 586 258 586 305 c 2,37,-1
 586 650 l 1,38,39
 569 663 569 663 509 670 c 1,40,41
 508 675 508 675 508 684 c 128,-1,42
 508 693 508 693 514 705 c 1,43,0
 582 700 582 700 617.5 700 c 128,-1,1
467 774 m 1,44,45
 455 755 455 755 444 745 c 1,46,-1
 275 842 l 1,47,48
 289 892 289 892 329 918 c 1,49,-1
 467 774 l 1,44,45
EndSplineSet
EndChar

StartChar: Uacute
Encoding: 218 218 156
Width: 745
Flags: W
LayerCount: 2
Fore
SplineSet
617.5 700 m 128,-1,1
 653 700 653 700 723 705 c 1,2,3
 724 698 724 698 724 689 c 128,-1,4
 724 680 724 680 721 670 c 1,5,6
 658 663 658 663 641 650 c 1,7,-1
 641 275 l 2,8,9
 641 103 641 103 579 41.5 c 128,-1,10
 517 -20 517 -20 377 -20 c 128,-1,11
 237 -20 237 -20 169 39.5 c 128,-1,12
 101 99 101 99 101 265 c 2,13,-1
 101 650 l 1,14,15
 84 663 84 663 24 670 c 1,16,17
 23 675 23 675 23 684 c 128,-1,18
 23 693 23 693 29 705 c 1,19,20
 97 700 97 700 131 700 c 2,21,-1
 183 700 l 1,22,-1
 220 702 l 2,23,24
 250 703 250 703 288 705 c 1,25,26
 289 698 289 698 289 689 c 128,-1,27
 289 680 289 680 286 670 c 1,28,29
 223 663 223 663 206 650 c 1,30,-1
 206 235 l 2,31,32
 206 30 206 30 407 30 c 0,33,34
 570 30 570 30 582 209 c 0,35,36
 586 258 586 258 586 305 c 2,37,-1
 586 650 l 1,38,39
 569 663 569 663 509 670 c 1,40,41
 508 675 508 675 508 684 c 128,-1,42
 508 693 508 693 514 705 c 1,43,0
 582 700 582 700 617.5 700 c 128,-1,1
355 745 m 1,44,45
 344 755 344 755 332 774 c 1,46,-1
 470 918 l 1,47,48
 510 892 510 892 524 842 c 1,49,-1
 355 745 l 1,44,45
EndSplineSet
EndChar

StartChar: Ucircumflex
Encoding: 219 219 157
Width: 745
Flags: W
LayerCount: 2
Fore
SplineSet
617.5 700 m 128,-1,1
 653 700 653 700 723 705 c 1,2,3
 724 698 724 698 724 689 c 128,-1,4
 724 680 724 680 721 670 c 1,5,6
 658 663 658 663 641 650 c 1,7,-1
 641 275 l 2,8,9
 641 103 641 103 579 41.5 c 128,-1,10
 517 -20 517 -20 377 -20 c 128,-1,11
 237 -20 237 -20 169 39.5 c 128,-1,12
 101 99 101 99 101 265 c 2,13,-1
 101 650 l 1,14,15
 84 663 84 663 24 670 c 1,16,17
 23 675 23 675 23 684 c 128,-1,18
 23 693 23 693 29 705 c 1,19,20
 97 700 97 700 131 700 c 2,21,-1
 183 700 l 1,22,-1
 220 702 l 2,23,24
 250 703 250 703 288 705 c 1,25,26
 289 698 289 698 289 689 c 128,-1,27
 289 680 289 680 286 670 c 1,28,29
 223 663 223 663 206 650 c 1,30,-1
 206 235 l 2,31,32
 206 30 206 30 407 30 c 0,33,34
 570 30 570 30 582 209 c 0,35,36
 586 258 586 258 586 305 c 2,37,-1
 586 650 l 1,38,39
 569 663 569 663 509 670 c 1,40,41
 508 675 508 675 508 684 c 128,-1,42
 508 693 508 693 514 705 c 1,43,0
 582 700 582 700 617.5 700 c 128,-1,1
395 852 m 1,44,45
 342 801 342 801 275 754 c 1,46,47
 256 761 256 761 243 778 c 1,48,-1
 368 916 l 1,49,50
 385 918 385 918 400.5 918 c 128,-1,51
 416 918 416 918 431 916 c 1,52,-1
 553 778 l 1,53,54
 541 762 541 762 515 754 c 1,55,56
 484 774 484 774 454 800 c 2,57,-1
 395 852 l 1,44,45
EndSplineSet
EndChar

StartChar: Udieresis
Encoding: 220 220 158
Width: 745
Flags: W
LayerCount: 2
Fore
SplineSet
617.5 700 m 128,-1,1
 653 700 653 700 723 705 c 1,2,3
 724 698 724 698 724 689 c 128,-1,4
 724 680 724 680 721 670 c 1,5,6
 658 663 658 663 641 650 c 1,7,-1
 641 275 l 2,8,9
 641 103 641 103 579 41.5 c 128,-1,10
 517 -20 517 -20 377 -20 c 128,-1,11
 237 -20 237 -20 169 39.5 c 128,-1,12
 101 99 101 99 101 265 c 2,13,-1
 101 650 l 1,14,15
 84 663 84 663 24 670 c 1,16,17
 23 675 23 675 23 684 c 128,-1,18
 23 693 23 693 29 705 c 1,19,20
 97 700 97 700 131 700 c 2,21,-1
 183 700 l 1,22,-1
 220 702 l 2,23,24
 250 703 250 703 288 705 c 1,25,26
 289 698 289 698 289 689 c 128,-1,27
 289 680 289 680 286 670 c 1,28,29
 223 663 223 663 206 650 c 1,30,-1
 206 235 l 2,31,32
 206 30 206 30 407 30 c 0,33,34
 570 30 570 30 582 209 c 0,35,36
 586 258 586 258 586 305 c 2,37,-1
 586 650 l 1,38,39
 569 663 569 663 509 670 c 1,40,41
 508 675 508 675 508 684 c 128,-1,42
 508 693 508 693 514 705 c 1,43,0
 582 700 582 700 617.5 700 c 128,-1,1
454 878.5 m 128,-1,45
 476 897 476 897 493 897 c 128,-1,46
 510 897 510 897 521 890.5 c 128,-1,47
 532 884 532 884 540 874 c 0,48,49
 555 855 555 855 555 834.5 c 128,-1,50
 555 814 555 814 533 795.5 c 128,-1,51
 511 777 511 777 494 777 c 0,52,53
 466 777 466 777 449 799 c 128,-1,54
 432 821 432 821 432 840.5 c 128,-1,44
 432 860 432 860 454 878.5 c 128,-1,45
265 878 m 128,-1,56
 287 896 287 896 304 896.5 c 128,-1,57
 321 897 321 897 332 890.5 c 128,-1,58
 343 884 343 884 350 874 c 1,59,60
 366 855 366 855 366 834.5 c 128,-1,61
 366 814 366 814 344 795.5 c 128,-1,62
 322 777 322 777 305 778 c 1,63,64
 277 778 277 778 260 800 c 256,65,66
 243 822 243 822 243 841 c 128,-1,55
 243 860 243 860 265 878 c 128,-1,56
EndSplineSet
EndChar

StartChar: Yacute
Encoding: 221 221 159
Width: 655
Flags: W
LayerCount: 2
Fore
SplineSet
92 700 m 1,0,1
 124 700 124 700 156 700 c 1,2,-1
 194 702 l 2,3,4
 226 703 226 703 263 705 c 1,5,6
 264 698 264 698 264 689 c 128,-1,7
 264 680 264 680 261 670 c 1,8,9
 198 663 198 663 180 650 c 1,10,-1
 345 366 l 1,11,-1
 349 366 l 1,12,-1
 515 650 l 1,13,14
 498 663 498 663 438 670 c 1,15,16
 437 675 437 675 437 684 c 128,-1,17
 437 693 437 693 443 705 c 1,18,19
 511 700 511 700 552 700 c 128,-1,20
 593 700 593 700 663 705 c 1,21,22
 664 698 664 698 664 689 c 128,-1,23
 664 680 664 680 661 670 c 1,24,25
 595 662 595 662 576 650 c 1,26,-1
 384 321 l 1,27,-1
 384 50 l 1,28,29
 403 33 403 33 461 30 c 1,30,31
 462 25 462 25 462 16 c 128,-1,32
 462 7 462 7 456 -5 c 1,33,34
 392 0 392 0 327.5 0 c 128,-1,35
 263 0 263 0 197 -5 c 1,36,37
 196 2 196 2 196 11 c 128,-1,38
 196 20 196 20 199 30 c 1,39,40
 262 37 262 37 279 50 c 1,41,-1
 279 301 l 1,42,-1
 64 650 l 1,43,44
 47 663 47 663 -13 670 c 1,45,46
 -14 675 -14 675 -14 684 c 128,-1,47
 -14 693 -14 693 -8 705 c 1,48,49
 26 702 26 702 57 702 c 1,50,-1
 92 700 l 1,0,1
282 746 m 1,51,52
 271 756 271 756 259 775 c 1,53,-1
 397 919 l 1,54,55
 437 893 437 893 451 843 c 1,56,-1
 282 746 l 1,51,52
EndSplineSet
EndChar

StartChar: Thorn
Encoding: 222 222 160
Width: 574
Flags: W
LayerCount: 2
Fore
SplineSet
274 194 m 0,0,1
 340 194 340 194 387 241 c 128,-1,2
 434 288 434 288 434 366 c 128,-1,3
 434 444 434 444 390 488.5 c 128,-1,4
 346 533 346 533 277 533 c 0,5,6
 255 533 255 533 222 526 c 1,7,-1
 222 198 l 1,8,9
 244 194 244 194 274 194 c 0,0,1
146 700 m 2,10,11
 146 700 146 700 199 700 c 1,12,-1
 236 702 l 2,13,14
 266 703 266 703 304 705 c 1,15,16
 305 698 305 698 305 689 c 128,-1,17
 305 680 305 680 302 670 c 1,18,19
 239 663 239 663 222 650 c 1,20,-1
 222 571 l 1,21,-1
 273 574 l 1,22,23
 467 574 467 574 529 457 c 0,24,25
 549 418 549 418 549 364 c 0,26,27
 549 256 549 256 463 202.5 c 128,-1,28
 377 149 377 149 258 149 c 2,29,-1
 240 149 l 2,30,31
 230 149 230 149 222 150 c 1,32,-1
 222 50 l 1,33,34
 241 33 241 33 299 30 c 1,35,36
 300 25 300 25 300 16 c 128,-1,37
 300 7 300 7 294 -5 c 1,38,39
 230 0 230 0 165.5 0 c 128,-1,40
 101 0 101 0 35 -5 c 1,41,42
 34 2 34 2 34 11 c 128,-1,43
 34 20 34 20 37 30 c 1,44,45
 100 37 100 37 117 50 c 1,46,-1
 117 650 l 1,47,48
 100 663 100 663 40 670 c 1,49,50
 39 675 39 675 39 684 c 128,-1,51
 39 693 39 693 45 705 c 1,52,53
 112 700 112 700 146 700 c 2,10,11
EndSplineSet
EndChar

StartChar: germandbls
Encoding: 223 223 161
Width: 630
Flags: W
LayerCount: 2
Fore
SplineSet
95 535 m 1,0,1
 96 698 96 698 224 748 c 0,2,3
 268 765 268 765 320 765 c 0,4,5
 416 765 416 765 474 717 c 128,-1,6
 532 669 532 669 532 612.5 c 128,-1,7
 532 556 532 556 515.5 529 c 128,-1,8
 499 502 499 502 458 483.5 c 128,-1,9
 417 465 417 465 404.5 457 c 128,-1,10
 392 449 392 449 384.5 441 c 128,-1,11
 377 433 377 433 374.5 423 c 128,-1,12
 372 413 372 413 372 400 c 128,-1,13
 372 387 372 387 376 375 c 0,14,15
 388 334 388 334 475 292.5 c 128,-1,16
 562 251 562 251 587 217 c 128,-1,17
 612 183 612 183 612 135 c 0,18,19
 612 53 612 53 561 16.5 c 128,-1,20
 510 -20 510 -20 434.5 -20 c 128,-1,21
 359 -20 359 -20 328 -7 c 128,-1,22
 297 6 297 6 276 19 c 1,23,24
 276 27 276 27 276 35 c 0,25,26
 276 101 276 101 294 154 c 1,27,28
 304 155 304 155 317 155 c 128,-1,29
 330 155 330 155 344 150 c 1,30,-1
 357 43 l 1,31,32
 384 26 384 26 425 26 c 0,33,34
 522 26 522 26 522 102 c 0,35,36
 522 138 522 138 501.5 162 c 128,-1,37
 481 186 481 186 415 217 c 128,-1,38
 349 248 349 248 317.5 283.5 c 128,-1,39
 286 319 286 319 286 374.5 c 128,-1,40
 286 430 286 430 310 457 c 128,-1,41
 334 484 334 484 386 504 c 128,-1,42
 438 524 438 524 447.5 544.5 c 128,-1,43
 457 565 457 565 457 598 c 0,44,45
 457 653 457 653 420 684.5 c 128,-1,46
 383 716 383 716 333 716 c 0,47,48
 248 716 248 716 221.5 676 c 128,-1,49
 195 636 195 636 195 560 c 2,50,-1
 195 0 l 1,51,52
 93 0 93 0 23 -5 c 1,53,54
 22 -2 22 -2 22 2 c 2,55,-1
 22 9 l 2,56,57
 22 19 22 19 25 30 c 1,58,59
 70 35 70 35 95 50 c 1,60,-1
 95 485 l 1,61,-1
 30 485 l 1,62,-1
 29 491 l 1,63,64
 29 521 29 521 40 535 c 1,65,-1
 95 535 l 1,0,1
EndSplineSet
EndChar

StartChar: agrave
Encoding: 224 224 162
Width: 496
Flags: W
LayerCount: 2
Fore
SplineSet
232.5 475 m 128,-1,1
 183 475 183 475 140 460 c 1,2,3
 140 411 140 411 123 354 c 1,4,5
 111 348 111 348 99.5 348 c 128,-1,6
 88 348 88 348 79 350 c 1,7,8
 59 398 59 398 59 480 c 1,9,10
 146 520 146 520 226.5 520 c 128,-1,11
 307 520 307 520 338 508.5 c 128,-1,12
 369 497 369 497 392 462.5 c 128,-1,13
 415 428 415 428 415 304 c 2,14,-1
 415 49 l 1,15,16
 435 29 435 29 485 29 c 1,17,18
 486 24 486 24 486 15 c 128,-1,19
 486 6 486 6 480 -6 c 1,20,21
 432 -13 432 -13 397 -13 c 128,-1,22
 362 -13 362 -13 339 -7 c 1,23,24
 324 16 324 16 320 45 c 1,25,-1
 315 45 l 1,26,27
 250 -20 250 -20 164 -20 c 128,-1,28
 78 -20 78 -20 41 58 c 0,29,30
 30 82 30 82 30 110 c 0,31,32
 30 270 30 270 299 270 c 0,33,34
 308 270 308 270 317 270 c 1,35,-1
 318 358 l 2,36,37
 318 361 318 361 318 364 c 0,38,39
 318 417 318 417 300 446 c 128,-1,0
 282 475 282 475 232.5 475 c 128,-1,1
199 35 m 0,40,41
 273 35 273 35 317 95 c 1,42,-1
 317 230 l 1,43,44
 214 230 214 230 168 205.5 c 128,-1,45
 122 181 122 181 122 129.5 c 128,-1,46
 122 78 122 78 148 56.5 c 128,-1,47
 174 35 174 35 199 35 c 0,40,41
286 583 m 1,48,49
 274 571 274 571 250 566 c 1,50,51
 217 598 217 598 187 636 c 1,52,-1
 126 717 l 1,53,54
 153 748 153 748 206 757 c 1,55,-1
 286 583 l 1,48,49
EndSplineSet
EndChar

StartChar: aacute
Encoding: 225 225 163
Width: 496
Flags: W
LayerCount: 2
Fore
SplineSet
232.5 475 m 128,-1,1
 183 475 183 475 140 460 c 1,2,3
 140 411 140 411 123 354 c 1,4,5
 111 348 111 348 99.5 348 c 128,-1,6
 88 348 88 348 79 350 c 1,7,8
 59 398 59 398 59 480 c 1,9,10
 146 520 146 520 226.5 520 c 128,-1,11
 307 520 307 520 338 508.5 c 128,-1,12
 369 497 369 497 392 462.5 c 128,-1,13
 415 428 415 428 415 304 c 2,14,-1
 415 49 l 1,15,16
 435 29 435 29 485 29 c 1,17,18
 486 24 486 24 486 15 c 128,-1,19
 486 6 486 6 480 -6 c 1,20,21
 432 -13 432 -13 397 -13 c 128,-1,22
 362 -13 362 -13 339 -7 c 1,23,24
 324 16 324 16 320 45 c 1,25,-1
 315 45 l 1,26,27
 250 -20 250 -20 164 -20 c 128,-1,28
 78 -20 78 -20 41 58 c 0,29,30
 30 82 30 82 30 110 c 0,31,32
 30 270 30 270 299 270 c 0,33,34
 308 270 308 270 317 270 c 1,35,-1
 318 358 l 2,36,37
 318 361 318 361 318 364 c 0,38,39
 318 417 318 417 300 446 c 128,-1,0
 282 475 282 475 232.5 475 c 128,-1,1
199 35 m 0,40,41
 273 35 273 35 317 95 c 1,42,-1
 317 230 l 1,43,44
 214 230 214 230 168 205.5 c 128,-1,45
 122 181 122 181 122 129.5 c 128,-1,46
 122 78 122 78 148 56.5 c 128,-1,47
 174 35 174 35 199 35 c 0,40,41
277 757 m 1,48,49
 330 748 330 748 357 717 c 1,50,-1
 296 636 l 1,51,52
 266 598 266 598 233 566 c 1,53,54
 209 571 209 571 197 583 c 1,55,-1
 277 757 l 1,48,49
EndSplineSet
EndChar

StartChar: acircumflex
Encoding: 226 226 164
Width: 496
Flags: W
LayerCount: 2
Fore
SplineSet
232.5 475 m 128,-1,1
 183 475 183 475 140 460 c 1,2,3
 140 411 140 411 123 354 c 1,4,5
 111 348 111 348 99.5 348 c 128,-1,6
 88 348 88 348 79 350 c 1,7,8
 59 398 59 398 59 480 c 1,9,10
 146 520 146 520 226.5 520 c 128,-1,11
 307 520 307 520 338 508.5 c 128,-1,12
 369 497 369 497 392 462.5 c 128,-1,13
 415 428 415 428 415 304 c 2,14,-1
 415 49 l 1,15,16
 435 29 435 29 485 29 c 1,17,18
 486 24 486 24 486 15 c 128,-1,19
 486 6 486 6 480 -6 c 1,20,21
 432 -13 432 -13 397 -13 c 128,-1,22
 362 -13 362 -13 339 -7 c 1,23,24
 324 16 324 16 320 45 c 1,25,-1
 315 45 l 1,26,27
 250 -20 250 -20 164 -20 c 128,-1,28
 78 -20 78 -20 41 58 c 0,29,30
 30 82 30 82 30 110 c 0,31,32
 30 270 30 270 299 270 c 0,33,34
 308 270 308 270 317 270 c 1,35,-1
 318 358 l 2,36,37
 318 361 318 361 318 364 c 0,38,39
 318 417 318 417 300 446 c 128,-1,0
 282 475 282 475 232.5 475 c 128,-1,1
199 35 m 0,40,41
 273 35 273 35 317 95 c 1,42,-1
 317 230 l 1,43,44
 214 230 214 230 168 205.5 c 128,-1,45
 122 181 122 181 122 129.5 c 128,-1,46
 122 78 122 78 148 56.5 c 128,-1,47
 174 35 174 35 199 35 c 0,40,41
239 684 m 1,48,49
 193 596 193 596 160 556 c 1,50,-1
 111 579 l 1,51,-1
 163 660 l 2,52,53
 191 704 191 704 214 753 c 1,54,55
 226 755 226 755 241.5 755 c 128,-1,56
 257 755 257 755 275 751 c 1,57,58
 296 707 296 707 320 667 c 2,59,-1
 368 588 l 1,60,-1
 305 559 l 1,61,-1
 278 604 l 1,62,63
 260 636 260 636 239 684 c 1,48,49
EndSplineSet
EndChar

StartChar: atilde
Encoding: 227 227 165
Width: 496
Flags: W
LayerCount: 2
Fore
SplineSet
232.5 475 m 128,-1,1
 183 475 183 475 140 460 c 1,2,3
 140 411 140 411 123 354 c 1,4,5
 111 348 111 348 99.5 348 c 128,-1,6
 88 348 88 348 79 350 c 1,7,8
 59 398 59 398 59 480 c 1,9,10
 146 520 146 520 226.5 520 c 128,-1,11
 307 520 307 520 338 508.5 c 128,-1,12
 369 497 369 497 392 462.5 c 128,-1,13
 415 428 415 428 415 304 c 2,14,-1
 415 49 l 1,15,16
 435 29 435 29 485 29 c 1,17,18
 486 24 486 24 486 15 c 128,-1,19
 486 6 486 6 480 -6 c 1,20,21
 432 -13 432 -13 397 -13 c 128,-1,22
 362 -13 362 -13 339 -7 c 1,23,24
 324 16 324 16 320 45 c 1,25,-1
 315 45 l 1,26,27
 250 -20 250 -20 164 -20 c 128,-1,28
 78 -20 78 -20 41 58 c 0,29,30
 30 82 30 82 30 110 c 0,31,32
 30 270 30 270 299 270 c 0,33,34
 308 270 308 270 317 270 c 1,35,-1
 318 358 l 2,36,37
 318 361 318 361 318 364 c 0,38,39
 318 417 318 417 300 446 c 128,-1,0
 282 475 282 475 232.5 475 c 128,-1,1
199 35 m 0,40,41
 273 35 273 35 317 95 c 1,42,-1
 317 230 l 1,43,44
 214 230 214 230 168 205.5 c 128,-1,45
 122 181 122 181 122 129.5 c 128,-1,46
 122 78 122 78 148 56.5 c 128,-1,47
 174 35 174 35 199 35 c 0,40,41
381 675 m 1,48,49
 357 590 357 590 294 590 c 0,50,51
 267 590 267 590 233 606 c 2,52,-1
 206 618 l 1,53,54
 185 629 185 629 170.5 629 c 128,-1,55
 156 629 156 629 139 620.5 c 128,-1,56
 122 612 122 612 110 596 c 1,57,58
 96 603 96 603 81 620 c 1,59,60
 123 696 123 696 181 696 c 0,61,62
 206 696 206 696 234 682 c 2,63,-1
 258 670 l 1,64,65
 281 657 281 657 295 657 c 0,66,67
 333 657 333 657 352 686 c 1,68,69
 369 686 369 686 381 675 c 1,48,49
EndSplineSet
EndChar

StartChar: adieresis
Encoding: 228 228 166
Width: 496
Flags: W
LayerCount: 2
Fore
SplineSet
232.5 475 m 128,-1,1
 183 475 183 475 140 460 c 1,2,3
 140 411 140 411 123 354 c 1,4,5
 111 348 111 348 99.5 348 c 128,-1,6
 88 348 88 348 79 350 c 1,7,8
 59 398 59 398 59 480 c 1,9,10
 146 520 146 520 226.5 520 c 128,-1,11
 307 520 307 520 338 508.5 c 128,-1,12
 369 497 369 497 392 462.5 c 128,-1,13
 415 428 415 428 415 304 c 2,14,-1
 415 49 l 1,15,16
 435 29 435 29 485 29 c 1,17,18
 486 24 486 24 486 15 c 128,-1,19
 486 6 486 6 480 -6 c 1,20,21
 432 -13 432 -13 397 -13 c 128,-1,22
 362 -13 362 -13 339 -7 c 1,23,24
 324 16 324 16 320 45 c 1,25,-1
 315 45 l 1,26,27
 250 -20 250 -20 164 -20 c 128,-1,28
 78 -20 78 -20 41 58 c 0,29,30
 30 82 30 82 30 110 c 0,31,32
 30 270 30 270 299 270 c 0,33,34
 308 270 308 270 317 270 c 1,35,-1
 318 358 l 2,36,37
 318 361 318 361 318 364 c 0,38,39
 318 417 318 417 300 446 c 128,-1,0
 282 475 282 475 232.5 475 c 128,-1,1
199 35 m 0,40,41
 273 35 273 35 317 95 c 1,42,-1
 317 230 l 1,43,44
 214 230 214 230 168 205.5 c 128,-1,45
 122 181 122 181 122 129.5 c 128,-1,46
 122 78 122 78 148 56.5 c 128,-1,47
 174 35 174 35 199 35 c 0,40,41
286 689.5 m 128,-1,49
 308 708 308 708 325 708 c 128,-1,50
 342 708 342 708 353 701.5 c 128,-1,51
 364 695 364 695 372 686 c 1,52,53
 387 666 387 666 387 645.5 c 128,-1,54
 387 625 387 625 365 606.5 c 128,-1,55
 343 588 343 588 326 588 c 0,56,57
 298 588 298 588 281 609.5 c 128,-1,58
 264 631 264 631 264 651 c 128,-1,48
 264 671 264 671 286 689.5 c 128,-1,49
117 690 m 128,-1,60
 139 708 139 708 156 708 c 128,-1,61
 173 708 173 708 184 701.5 c 128,-1,62
 195 695 195 695 202 686 c 0,63,64
 218 666 218 666 218 645.5 c 128,-1,65
 218 625 218 625 196 606.5 c 128,-1,66
 174 588 174 588 157 588 c 0,67,68
 130 588 130 588 112 610 c 0,69,70
 95 632 95 632 95 652 c 128,-1,59
 95 672 95 672 117 690 c 128,-1,60
EndSplineSet
EndChar

StartChar: aring
Encoding: 229 229 167
Width: 496
Flags: W
LayerCount: 2
Fore
SplineSet
232.5 475 m 128,-1,1
 183 475 183 475 140 460 c 1,2,3
 140 411 140 411 123 354 c 1,4,5
 111 348 111 348 99.5 348 c 128,-1,6
 88 348 88 348 79 350 c 1,7,8
 59 398 59 398 59 480 c 1,9,10
 146 520 146 520 226.5 520 c 128,-1,11
 307 520 307 520 338 508.5 c 128,-1,12
 369 497 369 497 392 462.5 c 128,-1,13
 415 428 415 428 415 304 c 2,14,-1
 415 49 l 1,15,16
 435 29 435 29 485 29 c 1,17,18
 486 24 486 24 486 15 c 128,-1,19
 486 6 486 6 480 -6 c 1,20,21
 432 -13 432 -13 397 -13 c 128,-1,22
 362 -13 362 -13 339 -7 c 1,23,24
 324 16 324 16 320 45 c 1,25,-1
 315 45 l 1,26,27
 250 -20 250 -20 164 -20 c 128,-1,28
 78 -20 78 -20 41 58 c 0,29,30
 30 82 30 82 30 110 c 0,31,32
 30 270 30 270 299 270 c 0,33,34
 308 270 308 270 317 270 c 1,35,-1
 318 358 l 2,36,37
 318 361 318 361 318 364 c 0,38,39
 318 417 318 417 300 446 c 128,-1,0
 282 475 282 475 232.5 475 c 128,-1,1
199 35 m 0,40,41
 273 35 273 35 317 95 c 1,42,-1
 317 230 l 1,43,44
 214 230 214 230 168 205.5 c 128,-1,45
 122 181 122 181 122 129.5 c 128,-1,46
 122 78 122 78 148 56.5 c 128,-1,47
 174 35 174 35 199 35 c 0,40,41
173.5 727.5 m 128,-1,49
 211 758 211 758 240 758 c 0,50,51
 288 758 288 758 317 722.5 c 128,-1,52
 346 687 346 687 346 661 c 0,53,54
 346 620 346 620 310 589.5 c 128,-1,55
 274 559 274 559 244 559.5 c 128,-1,56
 214 560 214 560 197 570 c 128,-1,57
 180 580 180 580 166 596 c 0,58,59
 136 631 136 631 136 664 c 128,-1,48
 136 697 136 697 173.5 727.5 c 128,-1,49
194 663 m 128,-1,61
 194 648 194 648 207.5 631.5 c 128,-1,62
 221 615 221 615 239 615 c 128,-1,63
 257 615 257 615 273 628.5 c 128,-1,64
 289 642 289 642 289 656.5 c 128,-1,65
 289 671 289 671 277 687.5 c 128,-1,66
 265 704 265 704 246.5 704 c 128,-1,67
 228 704 228 704 211 691 c 128,-1,60
 194 678 194 678 194 663 c 128,-1,61
EndSplineSet
EndChar

StartChar: ae
Encoding: 230 230 168
Width: 786
Flags: W
LayerCount: 2
Fore
SplineSet
564.5 480 m 128,-1,1
 510 480 510 480 476 436.5 c 128,-1,2
 442 393 442 393 434 311 c 1,3,-1
 657 323 l 1,4,5
 657 401 657 401 638 440.5 c 128,-1,0
 619 480 619 480 564.5 480 c 128,-1,1
122 128 m 0,6,7
 122 34 122 34 218 33 c 1,8,9
 262 34 262 34 289.5 79 c 128,-1,10
 317 124 317 124 317 215 c 2,11,-1
 317 228 l 1,12,13
 214 228 214 228 168 204 c 128,-1,14
 122 180 122 180 122 128 c 0,6,7
390 427 m 1,15,16
 444 520 444 520 574 520 c 128,-1,17
 704 520 704 520 740 390 c 0,18,19
 751 350 751 350 751 304 c 2,20,-1
 751 291 l 2,21,22
 751 285 751 285 750 278 c 1,23,-1
 736 267 l 1,24,-1
 429 270 l 1,25,-1
 429 250 l 2,26,27
 429 148 429 148 467 91.5 c 128,-1,28
 505 35 505 35 573 35 c 128,-1,29
 641 35 641 35 670 50.5 c 128,-1,30
 699 66 699 66 719 80 c 1,31,32
 735 73 735 73 737 56 c 1,33,34
 676 -20 676 -20 572 -20 c 0,35,36
 431 -20 431 -20 363 81 c 1,37,38
 303 -22 303 -22 177 -22 c 0,39,40
 117 -22 117 -22 73.5 15.5 c 128,-1,41
 30 53 30 53 30 108 c 0,42,43
 30 268 30 268 299 268 c 0,44,45
 308 268 308 268 317 268 c 1,46,-1
 318 356 l 2,47,48
 318 359 318 359 318 362 c 0,49,50
 318 415 318 415 300 444 c 128,-1,51
 282 473 282 473 232.5 473 c 128,-1,52
 183 473 183 473 140 458 c 1,53,54
 140 409 140 409 123 352 c 1,55,56
 111 346 111 346 99.5 346 c 128,-1,57
 88 346 88 346 79 348 c 1,58,59
 59 396 59 396 59 478 c 1,60,61
 146 518 146 518 254 518 c 128,-1,62
 362 518 362 518 390 427 c 1,15,16
EndSplineSet
EndChar

StartChar: ccedilla
Encoding: 231 231 169
Width: 484
Flags: W
LayerCount: 2
Fore
SplineSet
322 -162 m 0,0,1
 322 -104 322 -104 232 -104 c 1,2,-1
 230 -16 l 1,3,4
 154 -2 154 -2 114 42 c 0,5,6
 37 125 37 125 37 253.5 c 128,-1,7
 37 382 37 382 108 451 c 128,-1,8
 179 520 179 520 281.5 520 c 128,-1,9
 384 520 384 520 454 487 c 1,10,11
 455 476 455 476 455 464 c 0,12,13
 455 397 455 397 433 343 c 1,14,15
 426 341 426 341 415.5 341 c 128,-1,16
 405 341 405 341 391 348 c 1,17,18
 371 400 371 400 371 448 c 0,19,20
 371 456 371 456 372 463 c 1,21,22
 341 478 341 478 305 478 c 2,23,-1
 298 478 l 1,24,25
 222 475 222 475 183 412.5 c 128,-1,26
 144 350 144 350 144 272 c 0,27,28
 144 144 144 144 186 89.5 c 128,-1,29
 228 35 228 35 291.5 35 c 128,-1,30
 355 35 355 35 384.5 50.5 c 128,-1,31
 414 66 414 66 434 81 c 1,32,33
 448 72 448 72 452 55 c 1,34,35
 381 -20 381 -20 279 -20 c 2,36,-1
 268 -20 l 1,37,-1
 273 -55 l 1,38,39
 390 -55 390 -55 390 -140 c 0,40,41
 390 -183 390 -183 354.5 -212.5 c 128,-1,42
 319 -242 319 -242 263.5 -242 c 128,-1,43
 208 -242 208 -242 173 -229 c 1,44,45
 174 -211 174 -211 188 -200 c 1,46,47
 217 -212 217 -212 249 -212 c 128,-1,48
 281 -212 281 -212 301.5 -196.5 c 128,-1,49
 322 -181 322 -181 322 -162 c 0,0,1
EndSplineSet
EndChar

StartChar: egrave
Encoding: 232 232 170
Width: 505
Flags: W
LayerCount: 2
Fore
SplineSet
283.5 480 m 128,-1,1
 229 480 229 480 195 436.5 c 128,-1,2
 161 393 161 393 153 311 c 1,3,-1
 376 323 l 1,4,5
 376 401 376 401 357 440.5 c 128,-1,0
 338 480 338 480 283.5 480 c 128,-1,1
286 520 m 0,6,7
 423 520 423 520 459 390 c 0,8,9
 470 350 470 350 470 304 c 2,10,-1
 470 291 l 2,11,12
 470 285 470 285 469 278 c 1,13,-1
 455 267 l 1,14,-1
 148 270 l 1,15,-1
 148 250 l 2,16,17
 148 148 148 148 186 91.5 c 128,-1,18
 224 35 224 35 292 35 c 128,-1,19
 360 35 360 35 389 50.5 c 128,-1,20
 418 66 418 66 438 80 c 1,21,22
 454 73 454 73 456 56 c 1,23,24
 395 -20 395 -20 285.5 -20 c 128,-1,25
 176 -20 176 -20 106 52 c 128,-1,26
 36 124 36 124 36 249.5 c 128,-1,27
 36 375 36 375 106.5 447.5 c 128,-1,28
 177 520 177 520 286 520 c 0,6,7
340 582 m 1,29,30
 328 570 328 570 304 565 c 1,31,32
 271 598 271 598 241 636 c 2,33,-1
 180 716 l 1,34,35
 207 747 207 747 260 756 c 1,36,-1
 340 582 l 1,29,30
EndSplineSet
EndChar

StartChar: eacute
Encoding: 233 233 171
Width: 505
Flags: W
LayerCount: 2
Fore
SplineSet
283.5 480 m 128,-1,1
 229 480 229 480 195 436.5 c 128,-1,2
 161 393 161 393 153 311 c 1,3,-1
 376 323 l 1,4,5
 376 401 376 401 357 440.5 c 128,-1,0
 338 480 338 480 283.5 480 c 128,-1,1
286 520 m 0,6,7
 423 520 423 520 459 390 c 0,8,9
 470 350 470 350 470 304 c 2,10,-1
 470 291 l 2,11,12
 470 285 470 285 469 278 c 1,13,-1
 455 267 l 1,14,-1
 148 270 l 1,15,-1
 148 250 l 2,16,17
 148 148 148 148 186 91.5 c 128,-1,18
 224 35 224 35 292 35 c 128,-1,19
 360 35 360 35 389 50.5 c 128,-1,20
 418 66 418 66 438 80 c 1,21,22
 454 73 454 73 456 56 c 1,23,24
 395 -20 395 -20 285.5 -20 c 128,-1,25
 176 -20 176 -20 106 52 c 128,-1,26
 36 124 36 124 36 249.5 c 128,-1,27
 36 375 36 375 106.5 447.5 c 128,-1,28
 177 520 177 520 286 520 c 0,6,7
311 756 m 1,29,30
 364 747 364 747 391 716 c 1,31,-1
 330 636 l 2,32,33
 300 598 300 598 267 565 c 1,34,35
 243 570 243 570 231 582 c 1,36,-1
 311 756 l 1,29,30
EndSplineSet
EndChar

StartChar: ecircumflex
Encoding: 234 234 172
Width: 505
Flags: W
LayerCount: 2
Fore
SplineSet
283.5 480 m 128,-1,1
 229 480 229 480 195 436.5 c 128,-1,2
 161 393 161 393 153 311 c 1,3,-1
 376 323 l 1,4,5
 376 401 376 401 357 440.5 c 128,-1,0
 338 480 338 480 283.5 480 c 128,-1,1
286 520 m 0,6,7
 423 520 423 520 459 390 c 0,8,9
 470 350 470 350 470 304 c 2,10,-1
 470 291 l 2,11,12
 470 285 470 285 469 278 c 1,13,-1
 455 267 l 1,14,-1
 148 270 l 1,15,-1
 148 250 l 2,16,17
 148 148 148 148 186 91.5 c 128,-1,18
 224 35 224 35 292 35 c 128,-1,19
 360 35 360 35 389 50.5 c 128,-1,20
 418 66 418 66 438 80 c 1,21,22
 454 73 454 73 456 56 c 1,23,24
 395 -20 395 -20 285.5 -20 c 128,-1,25
 176 -20 176 -20 106 52 c 128,-1,26
 36 124 36 124 36 249.5 c 128,-1,27
 36 375 36 375 106.5 447.5 c 128,-1,28
 177 520 177 520 286 520 c 0,6,7
278 683 m 1,29,30
 232 595 232 595 199 555 c 1,31,-1
 150 578 l 1,32,-1
 202 660 l 2,33,34
 230 704 230 704 253 752 c 1,35,36
 265 754 265 754 280.5 754 c 128,-1,37
 296 754 296 754 314 750 c 1,38,39
 336 706 336 706 360 666 c 2,40,-1
 407 587 l 1,41,-1
 344 558 l 1,42,-1
 318 602 l 2,43,44
 300 634 300 634 278 683 c 1,29,30
EndSplineSet
EndChar

StartChar: edieresis
Encoding: 235 235 173
Width: 505
Flags: W
LayerCount: 2
Fore
SplineSet
283.5 480 m 128,-1,1
 229 480 229 480 195 436.5 c 128,-1,2
 161 393 161 393 153 311 c 1,3,-1
 376 323 l 1,4,5
 376 401 376 401 357 440.5 c 128,-1,0
 338 480 338 480 283.5 480 c 128,-1,1
286 520 m 0,6,7
 423 520 423 520 459 390 c 0,8,9
 470 350 470 350 470 304 c 2,10,-1
 470 291 l 2,11,12
 470 285 470 285 469 278 c 1,13,-1
 455 267 l 1,14,-1
 148 270 l 1,15,-1
 148 250 l 2,16,17
 148 148 148 148 186 91.5 c 128,-1,18
 224 35 224 35 292 35 c 128,-1,19
 360 35 360 35 389 50.5 c 128,-1,20
 418 66 418 66 438 80 c 1,21,22
 454 73 454 73 456 56 c 1,23,24
 395 -20 395 -20 285.5 -20 c 128,-1,25
 176 -20 176 -20 106 52 c 128,-1,26
 36 124 36 124 36 249.5 c 128,-1,27
 36 375 36 375 106.5 447.5 c 128,-1,28
 177 520 177 520 286 520 c 0,6,7
320 688.5 m 128,-1,30
 342 707 342 707 359 707 c 128,-1,31
 376 707 376 707 387 700.5 c 128,-1,32
 398 694 398 694 406 684 c 0,33,34
 421 665 421 665 421 644.5 c 128,-1,35
 421 624 421 624 399 605.5 c 128,-1,36
 377 587 377 587 360 587 c 0,37,38
 332 587 332 587 315 609 c 128,-1,39
 298 631 298 631 298 650.5 c 128,-1,29
 298 670 298 670 320 688.5 c 128,-1,30
151 688 m 128,-1,41
 173 706 173 706 190 706.5 c 128,-1,42
 207 707 207 707 218 700.5 c 128,-1,43
 229 694 229 694 236 684 c 1,44,45
 252 665 252 665 252 644.5 c 128,-1,46
 252 624 252 624 230 605.5 c 128,-1,47
 208 587 208 587 191 588 c 1,48,49
 163 588 163 588 146 610 c 256,50,51
 129 632 129 632 129 651 c 128,-1,40
 129 670 129 670 151 688 c 128,-1,41
EndSplineSet
EndChar

StartChar: igrave
Encoding: 236 236 174
Width: 290
Flags: W
LayerCount: 2
Fore
SplineSet
187 583 m 1,0,1
 175 571 175 571 151 566 c 1,2,3
 118 598 118 598 88 636 c 1,4,-1
 27 717 l 1,5,6
 54 748 54 748 107 757 c 1,7,-1
 187 583 l 1,0,1
267 -5 m 1,8,9
 210 -1 210 -1 151.5 -1 c 128,-1,10
 93 -1 93 -1 33 -5 c 1,11,12
 32 2 32 2 32 11 c 128,-1,13
 32 20 32 20 35 30 c 1,14,-1
 70 38 l 2,15,16
 88 42 88 42 104 50 c 1,17,-1
 104 440 l 1,18,-1
 89 440 l 2,19,20
 55 440 55 440 21 448 c 1,21,22
 20 453 20 453 20 463 c 128,-1,23
 20 473 20 473 26 483 c 1,24,25
 115 494 115 494 164 510 c 1,26,27
 183 509 183 509 204 499 c 1,28,-1
 204 50 l 1,29,30
 221 43 221 43 238 39 c 128,-1,31
 255 35 255 35 272 30 c 1,32,33
 273 25 273 25 273 16 c 128,-1,34
 273 7 273 7 267 -5 c 1,8,9
EndSplineSet
EndChar

StartChar: iacute
Encoding: 237 237 175
Width: 290
Flags: W
LayerCount: 2
Fore
SplineSet
187 757 m 1,0,1
 240 748 240 748 267 717 c 1,2,-1
 206 636 l 1,3,4
 176 598 176 598 143 566 c 1,5,6
 119 571 119 571 107 583 c 1,7,-1
 187 757 l 1,0,1
267 -5 m 1,8,9
 210 -1 210 -1 151.5 -1 c 128,-1,10
 93 -1 93 -1 33 -5 c 1,11,12
 32 2 32 2 32 11 c 128,-1,13
 32 20 32 20 35 30 c 1,14,-1
 70 38 l 2,15,16
 88 42 88 42 104 50 c 1,17,-1
 104 440 l 1,18,-1
 89 440 l 2,19,20
 55 440 55 440 21 448 c 1,21,22
 20 453 20 453 20 463 c 128,-1,23
 20 473 20 473 26 483 c 1,24,25
 115 494 115 494 164 510 c 1,26,27
 183 509 183 509 204 499 c 1,28,-1
 204 50 l 1,29,30
 221 43 221 43 238 39 c 128,-1,31
 255 35 255 35 272 30 c 1,32,33
 273 25 273 25 273 16 c 128,-1,34
 273 7 273 7 267 -5 c 1,8,9
EndSplineSet
EndChar

StartChar: icircumflex
Encoding: 238 238 176
Width: 290
Flags: W
LayerCount: 2
Fore
SplineSet
138 684 m 1,0,1
 92 596 92 596 59 556 c 1,2,-1
 10 579 l 1,3,-1
 62 660 l 2,4,5
 90 704 90 704 113 753 c 1,6,7
 125 755 125 755 140.5 755 c 128,-1,8
 156 755 156 755 174 751 c 1,9,10
 196 707 196 707 220 667 c 2,11,-1
 267 588 l 1,12,-1
 204 559 l 1,13,-1
 178 604 l 2,14,15
 160 636 160 636 138 684 c 1,0,1
267 -5 m 1,16,17
 210 -1 210 -1 151.5 -1 c 128,-1,18
 93 -1 93 -1 33 -5 c 1,19,20
 32 2 32 2 32 11 c 128,-1,21
 32 20 32 20 35 30 c 1,22,-1
 70 38 l 2,23,24
 88 42 88 42 104 50 c 1,25,-1
 104 440 l 1,26,-1
 89 440 l 2,27,28
 55 440 55 440 21 448 c 1,29,30
 20 453 20 453 20 463 c 128,-1,31
 20 473 20 473 26 483 c 1,32,33
 115 494 115 494 164 510 c 1,34,35
 183 509 183 509 204 499 c 1,36,-1
 204 50 l 1,37,38
 221 43 221 43 238 39 c 128,-1,39
 255 35 255 35 272 30 c 1,40,41
 273 25 273 25 273 16 c 128,-1,42
 273 7 273 7 267 -5 c 1,16,17
EndSplineSet
EndChar

StartChar: idieresis
Encoding: 239 239 177
Width: 290
Flags: W
LayerCount: 2
Fore
SplineSet
183 690 m 128,-1,1
 205 708 205 708 222 708 c 128,-1,2
 239 708 239 708 250 701.5 c 128,-1,3
 261 695 261 695 268 686 c 0,4,5
 284 666 284 666 284 645.5 c 128,-1,6
 284 625 284 625 262 606.5 c 128,-1,7
 240 588 240 588 223 588 c 0,8,9
 196 588 196 588 178 610 c 0,10,11
 161 632 161 632 161 652 c 128,-1,0
 161 672 161 672 183 690 c 128,-1,1
14 689.5 m 128,-1,13
 36 708 36 708 53 708 c 128,-1,14
 70 708 70 708 81 701.5 c 128,-1,15
 92 695 92 695 100 686 c 1,16,17
 115 666 115 666 115 645.5 c 128,-1,18
 115 625 115 625 93 606.5 c 128,-1,19
 71 588 71 588 54 588 c 0,20,21
 26 588 26 588 9 609.5 c 128,-1,22
 -8 631 -8 631 -8 651 c 128,-1,12
 -8 671 -8 671 14 689.5 c 128,-1,13
267 -5 m 1,23,24
 210 -1 210 -1 151.5 -1 c 128,-1,25
 93 -1 93 -1 33 -5 c 1,26,27
 32 2 32 2 32 11 c 128,-1,28
 32 20 32 20 35 30 c 1,29,-1
 70 38 l 2,30,31
 88 42 88 42 104 50 c 1,32,-1
 104 440 l 1,33,-1
 89 440 l 2,34,35
 55 440 55 440 21 448 c 1,36,37
 20 453 20 453 20 463 c 128,-1,38
 20 473 20 473 26 483 c 1,39,40
 115 494 115 494 164 510 c 1,41,42
 183 509 183 509 204 499 c 1,43,-1
 204 50 l 1,44,45
 221 43 221 43 238 39 c 128,-1,46
 255 35 255 35 272 30 c 1,47,48
 273 25 273 25 273 16 c 128,-1,49
 273 7 273 7 267 -5 c 1,23,24
EndSplineSet
EndChar

StartChar: eth
Encoding: 240 240 178
Width: 579
Flags: W
LayerCount: 2
Fore
SplineSet
422 206 m 0,0,1
 422 457 422 457 281 457 c 0,2,3
 144 457 144 457 144 234 c 0,4,5
 144 91 144 91 222 41 c 0,6,7
 248 24 248 24 286 24 c 0,8,9
 357 24 357 24 389.5 80.5 c 128,-1,10
 422 137 422 137 422 206 c 0,0,1
529 256 m 1,11,-1
 528 256 l 1,12,13
 529 252 529 252 529 248 c 2,14,-1
 529 240 l 2,15,16
 529 127 529 127 459 53.5 c 128,-1,17
 389 -20 389 -20 282.5 -20 c 128,-1,18
 176 -20 176 -20 106.5 53 c 128,-1,19
 37 126 37 126 37 239.5 c 128,-1,20
 37 353 37 353 107 427 c 128,-1,21
 177 501 177 501 268 501 c 128,-1,22
 359 501 359 501 420 459 c 1,23,24
 394 558 394 558 325 615 c 1,25,-1
 227 558 l 1,26,27
 208 577 208 577 208 606 c 1,28,-1
 279 647 l 1,29,30
 235 674 235 674 172 694 c 1,31,32
 170 707 170 707 170 719 c 128,-1,33
 170 731 170 731 174 740 c 1,34,35
 263 725 263 725 335 679 c 1,36,-1
 440 739 l 1,37,38
 458 707 458 707 458 700 c 2,39,-1
 458 691 l 1,40,-1
 379 645 l 1,41,42
 529 514 529 514 529 256 c 1,11,-1
EndSplineSet
EndChar

StartChar: ntilde
Encoding: 241 241 179
Width: 606
Flags: W
LayerCount: 2
Fore
SplineSet
373 510 m 0,0,1
 436 510 436 510 468 482 c 0,2,3
 524 434 524 434 524 365 c 2,4,-1
 525 50 l 1,5,6
 541 36 541 36 595 30 c 1,7,8
 596 25 596 25 596 16 c 128,-1,9
 596 7 596 7 590 -5 c 1,10,11
 533 -1 533 -1 474.5 -1 c 128,-1,12
 416 -1 416 -1 357 -5 c 1,13,14
 356 2 356 2 356 11 c 128,-1,15
 356 20 356 20 359 30 c 1,16,17
 405 35 405 35 425 50 c 1,18,-1
 425 320 l 2,19,20
 425 388 425 388 404 414 c 128,-1,21
 383 440 383 440 337 440 c 0,22,23
 254 440 254 440 200 380 c 1,24,-1
 200 50 l 1,25,26
 217 35 217 35 267 30 c 1,27,28
 268 25 268 25 268 16 c 128,-1,29
 268 7 268 7 262 -5 c 1,30,31
 205 -1 205 -1 146.5 -1 c 128,-1,32
 88 -1 88 -1 28 -5 c 1,33,34
 27 2 27 2 27 11 c 128,-1,35
 27 20 27 20 30 30 c 1,36,37
 81 36 81 36 100 50 c 1,38,-1
 100 434 l 1,39,-1
 89 434 l 2,40,41
 60 434 60 434 27 442 c 1,42,43
 26 447 26 447 26 457 c 128,-1,44
 26 467 26 467 32 477 c 1,45,46
 104 486 104 486 160 504 c 1,47,48
 175 502 175 502 194 493 c 1,49,-1
 192 427 l 1,50,-1
 193 426 l 1,51,52
 279 510 279 510 373 510 c 0,0,1
470 675 m 1,53,54
 446 590 446 590 383 590 c 0,55,56
 356 590 356 590 322 606 c 2,57,-1
 295 618 l 1,58,59
 274 629 274 629 259 629 c 128,-1,60
 244 629 244 629 227 620.5 c 128,-1,61
 210 612 210 612 199 596 c 1,62,63
 185 603 185 603 170 620 c 1,64,65
 212 696 212 696 270 696 c 0,66,67
 295 696 295 696 323 682 c 2,68,-1
 347 670 l 1,69,70
 370 657 370 657 384 657 c 0,71,72
 422 657 422 657 441 686 c 1,73,74
 458 686 458 686 470 675 c 1,53,54
EndSplineSet
EndChar

StartChar: ograve
Encoding: 242 242 180
Width: 582
Flags: W
LayerCount: 2
Fore
SplineSet
435 214 m 0,0,1
 435 474 435 474 291 474 c 128,-1,2
 147 474 147 474 147 239 c 0,3,4
 147 93 147 93 226 44 c 0,5,6
 254 26 254 26 294 26 c 0,7,8
 369 26 369 26 402 84 c 128,-1,9
 435 142 435 142 435 214 c 0,0,1
36 249 m 128,-1,11
 36 366 36 366 109 443 c 128,-1,12
 182 520 182 520 291 520 c 128,-1,13
 400 520 400 520 473 443 c 128,-1,14
 546 366 546 366 546 249 c 128,-1,15
 546 132 546 132 474 56 c 128,-1,16
 402 -20 402 -20 291 -20 c 128,-1,17
 180 -20 180 -20 108 56 c 128,-1,10
 36 132 36 132 36 249 c 128,-1,11
347 584 m 1,18,19
 335 572 335 572 311 567 c 1,20,21
 278 600 278 600 248 638 c 2,22,-1
 187 718 l 1,23,24
 214 749 214 749 267 758 c 1,25,-1
 347 584 l 1,18,19
EndSplineSet
EndChar

StartChar: oacute
Encoding: 243 243 181
Width: 582
Flags: W
LayerCount: 2
Fore
SplineSet
435 214 m 0,0,1
 435 474 435 474 291 474 c 128,-1,2
 147 474 147 474 147 239 c 0,3,4
 147 93 147 93 226 44 c 0,5,6
 254 26 254 26 294 26 c 0,7,8
 369 26 369 26 402 84 c 128,-1,9
 435 142 435 142 435 214 c 0,0,1
36 249 m 128,-1,11
 36 366 36 366 109 443 c 128,-1,12
 182 520 182 520 291 520 c 128,-1,13
 400 520 400 520 473 443 c 128,-1,14
 546 366 546 366 546 249 c 128,-1,15
 546 132 546 132 474 56 c 128,-1,16
 402 -20 402 -20 291 -20 c 128,-1,17
 180 -20 180 -20 108 56 c 128,-1,10
 36 132 36 132 36 249 c 128,-1,11
328 758 m 1,18,19
 381 749 381 749 408 718 c 1,20,-1
 347 638 l 2,21,22
 317 600 317 600 284 567 c 1,23,24
 260 572 260 572 248 584 c 1,25,-1
 328 758 l 1,18,19
EndSplineSet
EndChar

StartChar: ocircumflex
Encoding: 244 244 182
Width: 582
Flags: W
LayerCount: 2
Fore
SplineSet
435 214 m 0,0,1
 435 474 435 474 291 474 c 128,-1,2
 147 474 147 474 147 239 c 0,3,4
 147 93 147 93 226 44 c 0,5,6
 254 26 254 26 294 26 c 0,7,8
 369 26 369 26 402 84 c 128,-1,9
 435 142 435 142 435 214 c 0,0,1
36 249 m 128,-1,11
 36 366 36 366 109 443 c 128,-1,12
 182 520 182 520 291 520 c 128,-1,13
 400 520 400 520 473 443 c 128,-1,14
 546 366 546 366 546 249 c 128,-1,15
 546 132 546 132 474 56 c 128,-1,16
 402 -20 402 -20 291 -20 c 128,-1,17
 180 -20 180 -20 108 56 c 128,-1,10
 36 132 36 132 36 249 c 128,-1,11
290 685 m 1,18,19
 244 597 244 597 211 557 c 1,20,-1
 162 580 l 1,21,-1
 214 662 l 2,22,23
 242 706 242 706 265 754 c 1,24,25
 277 756 277 756 292.5 756 c 128,-1,26
 308 756 308 756 326 752 c 1,27,28
 348 708 348 708 372 668 c 2,29,-1
 419 589 l 1,30,-1
 356 560 l 1,31,-1
 330 604 l 2,32,33
 312 636 312 636 290 685 c 1,18,19
EndSplineSet
EndChar

StartChar: otilde
Encoding: 245 245 183
Width: 582
Flags: W
LayerCount: 2
Fore
SplineSet
435 214 m 0,0,1
 435 474 435 474 291 474 c 128,-1,2
 147 474 147 474 147 239 c 0,3,4
 147 93 147 93 226 44 c 0,5,6
 254 26 254 26 294 26 c 0,7,8
 369 26 369 26 402 84 c 128,-1,9
 435 142 435 142 435 214 c 0,0,1
36 249 m 128,-1,11
 36 366 36 366 109 443 c 128,-1,12
 182 520 182 520 291 520 c 128,-1,13
 400 520 400 520 473 443 c 128,-1,14
 546 366 546 366 546 249 c 128,-1,15
 546 132 546 132 474 56 c 128,-1,16
 402 -20 402 -20 291 -20 c 128,-1,17
 180 -20 180 -20 108 56 c 128,-1,10
 36 132 36 132 36 249 c 128,-1,11
432 676 m 1,18,19
 408 591 408 591 345 591 c 2,20,21
 345 591 345 591 342 591 c 0,22,23
 316 591 316 591 284 606 c 1,24,-1
 257 620 l 2,25,26
 238 630 238 630 228 630 c 2,27,28
 228 630 228 630 218 630 c 0,29,30
 206 630 206 630 189 621.5 c 128,-1,31
 172 613 172 613 161 597 c 1,32,33
 147 604 147 604 132 621 c 1,34,35
 174 697 174 697 232 697 c 0,36,37
 257 697 257 697 285 683 c 1,38,-1
 309 670 l 2,39,40
 330 658 330 658 340 658 c 2,41,-1
 351 658 l 2,42,43
 360 658 360 658 376 664 c 128,-1,44
 392 670 392 670 403 687 c 1,45,46
 420 687 420 687 432 676 c 1,18,19
EndSplineSet
EndChar

StartChar: odieresis
Encoding: 246 246 184
Width: 582
Flags: W
LayerCount: 2
Fore
SplineSet
435 214 m 0,0,1
 435 474 435 474 291 474 c 128,-1,2
 147 474 147 474 147 239 c 0,3,4
 147 93 147 93 226 44 c 0,5,6
 254 26 254 26 294 26 c 0,7,8
 369 26 369 26 402 84 c 128,-1,9
 435 142 435 142 435 214 c 0,0,1
36 249 m 128,-1,11
 36 366 36 366 109 443 c 128,-1,12
 182 520 182 520 291 520 c 128,-1,13
 400 520 400 520 473 443 c 128,-1,14
 546 366 546 366 546 249 c 128,-1,15
 546 132 546 132 474 56 c 128,-1,16
 402 -20 402 -20 291 -20 c 128,-1,17
 180 -20 180 -20 108 56 c 128,-1,10
 36 132 36 132 36 249 c 128,-1,11
337 690 m 128,-1,19
 359 708 359 708 376 708.5 c 128,-1,20
 393 709 393 709 404 702.5 c 128,-1,21
 415 696 415 696 422 686 c 1,22,23
 438 667 438 667 438 646.5 c 128,-1,24
 438 626 438 626 416 607.5 c 128,-1,25
 394 589 394 589 377 590 c 1,26,27
 349 590 349 590 332 612 c 256,28,29
 315 634 315 634 315 653 c 128,-1,18
 315 672 315 672 337 690 c 128,-1,19
168 690.5 m 128,-1,31
 190 709 190 709 207 709 c 128,-1,32
 224 709 224 709 235 702.5 c 128,-1,33
 246 696 246 696 254 686 c 0,34,35
 269 667 269 667 269 646.5 c 128,-1,36
 269 626 269 626 247 607.5 c 128,-1,37
 225 589 225 589 208 589 c 0,38,39
 180 589 180 589 163 611 c 128,-1,40
 146 633 146 633 146 652.5 c 128,-1,30
 146 672 146 672 168 690.5 c 128,-1,31
EndSplineSet
EndChar

StartChar: divide
Encoding: 247 247 185
Width: 504
Flags: W
LayerCount: 2
Fore
SplineSet
212.5 511 m 128,-1,1
 233 530 233 530 251.5 530 c 128,-1,2
 270 530 270 530 280.5 523.5 c 128,-1,3
 291 517 291 517 298.5 507.5 c 128,-1,4
 306 498 306 498 310 487 c 128,-1,5
 314 476 314 476 314 467 c 128,-1,6
 314 458 314 458 308 448 c 128,-1,7
 302 438 302 438 293 430 c 128,-1,8
 284 422 284 422 272.5 417 c 128,-1,9
 261 412 261 412 249 412 c 0,10,11
 226 412 226 412 209 433.5 c 128,-1,12
 192 455 192 455 192 473.5 c 128,-1,0
 192 492 192 492 212.5 511 c 128,-1,1
212.5 192 m 128,-1,14
 233 211 233 211 251.5 211 c 128,-1,15
 270 211 270 211 280.5 204.5 c 128,-1,16
 291 198 291 198 298.5 188.5 c 128,-1,17
 306 179 306 179 310 168 c 128,-1,18
 314 157 314 157 314 148 c 128,-1,19
 314 139 314 139 308 129 c 128,-1,20
 302 119 302 119 293 111 c 0,21,22
 273 93 273 93 254 93 c 0,23,24
 225 93 225 93 208 114 c 0,25,26
 192 135 192 135 192 154 c 128,-1,13
 192 173 192 173 212.5 192 c 128,-1,14
453 349 m 1,27,28
 453 301 453 301 442 286 c 1,29,-1
 52 286 l 1,30,31
 51 292 51 292 51 301 c 128,-1,32
 51 310 51 310 55.5 328 c 128,-1,33
 60 346 60 346 63 349 c 1,34,-1
 453 349 l 1,27,28
EndSplineSet
EndChar

StartChar: oslash
Encoding: 248 248 186
Width: 582
Flags: W
LayerCount: 2
Fore
SplineSet
435 236 m 0,0,1
 435 329 435 329 409 386 c 1,2,-1
 207 58 l 1,3,4
 241 26 241 26 287 26 c 0,5,6
 435 26 435 26 435 236 c 0,0,1
289 474 m 0,7,8
 147 474 147 474 147 243 c 0,9,10
 147 159 147 159 173 105 c 1,11,-1
 377 437 l 1,12,13
 340 474 340 474 289 474 c 0,7,8
126 39 m 1,14,15
 36 114 36 114 36 240 c 128,-1,16
 36 366 36 366 109 443 c 128,-1,17
 182 520 182 520 291 520 c 0,18,19
 356 520 356 520 414 488 c 1,20,-1
 464 572 l 1,21,22
 469 572 469 572 486 572 c 128,-1,23
 503 572 503 572 520 563 c 1,24,-1
 458 457 l 1,25,26
 546 380 546 380 546 256 c 128,-1,27
 546 132 546 132 474 56 c 128,-1,28
 402 -20 402 -20 291 -20 c 0,29,30
 227 -20 227 -20 171 8 c 1,31,-1
 135 -51 l 1,32,-1
 126 -51 l 2,33,34
 97 -51 97 -51 78 -40 c 1,35,-1
 126 39 l 1,14,15
EndSplineSet
EndChar

StartChar: ugrave
Encoding: 249 249 187
Width: 590
Flags: W
LayerCount: 2
Fore
SplineSet
222 -16 m 0,0,1
 84 -16 84 -16 84 134 c 2,2,-1
 84 441 l 1,3,4
 84 441 84 441 73 441 c 0,5,6
 44 441 44 441 11 449 c 1,7,8
 10 454 10 454 10 464 c 128,-1,9
 10 474 10 474 16 484 c 1,10,11
 79 492 79 492 150 511 c 1,12,13
 165 509 165 509 184 500 c 1,14,-1
 184 149 l 2,15,16
 184 91 184 91 207 72.5 c 128,-1,17
 230 54 230 54 270 54 c 0,18,19
 346 54 346 54 403 118 c 1,20,-1
 403 441 l 1,21,-1
 392 441 l 2,22,23
 363 441 363 441 330 449 c 1,24,25
 329 454 329 454 329 464 c 128,-1,26
 329 474 329 474 335 484 c 1,27,28
 398 492 398 492 469 511 c 1,29,30
 484 509 484 509 503 500 c 1,31,-1
 503 48 l 1,32,33
 525 28 525 28 573 28 c 1,34,35
 574 23 574 23 574 14 c 128,-1,36
 574 5 574 5 568 -7 c 1,37,38
 522 -14 522 -14 488 -14 c 128,-1,39
 454 -14 454 -14 431 -8 c 1,40,41
 415 20 415 20 408 71 c 1,42,-1
 403 71 l 1,43,44
 334 2 334 2 277 -11 c 0,45,46
 256 -16 256 -16 222 -16 c 0,0,1
325 583 m 1,47,48
 313 571 313 571 289 566 c 1,49,50
 256 598 256 598 226 636 c 1,51,-1
 165 717 l 1,52,53
 192 748 192 748 245 757 c 1,54,-1
 325 583 l 1,47,48
EndSplineSet
EndChar

StartChar: uacute
Encoding: 250 250 188
Width: 590
Flags: W
LayerCount: 2
Fore
SplineSet
222 -16 m 0,0,1
 84 -16 84 -16 84 134 c 2,2,-1
 84 441 l 1,3,4
 84 441 84 441 73 441 c 0,5,6
 44 441 44 441 11 449 c 1,7,8
 10 454 10 454 10 464 c 128,-1,9
 10 474 10 474 16 484 c 1,10,11
 79 492 79 492 150 511 c 1,12,13
 165 509 165 509 184 500 c 1,14,-1
 184 149 l 2,15,16
 184 91 184 91 207 72.5 c 128,-1,17
 230 54 230 54 270 54 c 0,18,19
 346 54 346 54 403 118 c 1,20,-1
 403 441 l 1,21,-1
 392 441 l 2,22,23
 363 441 363 441 330 449 c 1,24,25
 329 454 329 454 329 464 c 128,-1,26
 329 474 329 474 335 484 c 1,27,28
 398 492 398 492 469 511 c 1,29,30
 484 509 484 509 503 500 c 1,31,-1
 503 48 l 1,32,33
 525 28 525 28 573 28 c 1,34,35
 574 23 574 23 574 14 c 128,-1,36
 574 5 574 5 568 -7 c 1,37,38
 522 -14 522 -14 488 -14 c 128,-1,39
 454 -14 454 -14 431 -8 c 1,40,41
 415 20 415 20 408 71 c 1,42,-1
 403 71 l 1,43,44
 334 2 334 2 277 -11 c 0,45,46
 256 -16 256 -16 222 -16 c 0,0,1
326 757 m 1,47,48
 379 748 379 748 406 717 c 1,49,-1
 345 636 l 1,50,51
 315 598 315 598 282 566 c 1,52,53
 258 571 258 571 246 583 c 1,54,-1
 326 757 l 1,47,48
EndSplineSet
EndChar

StartChar: ucircumflex
Encoding: 251 251 189
Width: 590
Flags: W
LayerCount: 2
Fore
SplineSet
222 -16 m 0,0,1
 84 -16 84 -16 84 134 c 2,2,-1
 84 441 l 1,3,4
 84 441 84 441 73 441 c 0,5,6
 44 441 44 441 11 449 c 1,7,8
 10 454 10 454 10 464 c 128,-1,9
 10 474 10 474 16 484 c 1,10,11
 79 492 79 492 150 511 c 1,12,13
 165 509 165 509 184 500 c 1,14,-1
 184 149 l 2,15,16
 184 91 184 91 207 72.5 c 128,-1,17
 230 54 230 54 270 54 c 0,18,19
 346 54 346 54 403 118 c 1,20,-1
 403 441 l 1,21,-1
 392 441 l 2,22,23
 363 441 363 441 330 449 c 1,24,25
 329 454 329 454 329 464 c 128,-1,26
 329 474 329 474 335 484 c 1,27,28
 398 492 398 492 469 511 c 1,29,30
 484 509 484 509 503 500 c 1,31,-1
 503 48 l 1,32,33
 525 28 525 28 573 28 c 1,34,35
 574 23 574 23 574 14 c 128,-1,36
 574 5 574 5 568 -7 c 1,37,38
 522 -14 522 -14 488 -14 c 128,-1,39
 454 -14 454 -14 431 -8 c 1,40,41
 415 20 415 20 408 71 c 1,42,-1
 403 71 l 1,43,44
 334 2 334 2 277 -11 c 0,45,46
 256 -16 256 -16 222 -16 c 0,0,1
288 684 m 1,47,48
 242 596 242 596 209 556 c 1,49,-1
 160 579 l 1,50,-1
 212 660 l 2,51,52
 240 704 240 704 263 753 c 1,53,54
 275 755 275 755 290.5 755 c 128,-1,55
 306 755 306 755 324 751 c 1,56,57
 346 707 346 707 370 667 c 2,58,-1
 417 588 l 1,59,-1
 354 559 l 1,60,-1
 328 604 l 2,61,62
 310 636 310 636 288 684 c 1,47,48
EndSplineSet
EndChar

StartChar: udieresis
Encoding: 252 252 190
Width: 590
Flags: W
LayerCount: 2
Fore
SplineSet
222 -16 m 0,0,1
 84 -16 84 -16 84 134 c 2,2,-1
 84 441 l 1,3,4
 84 441 84 441 73 441 c 0,5,6
 44 441 44 441 11 449 c 1,7,8
 10 454 10 454 10 464 c 128,-1,9
 10 474 10 474 16 484 c 1,10,11
 79 492 79 492 150 511 c 1,12,13
 165 509 165 509 184 500 c 1,14,-1
 184 149 l 2,15,16
 184 91 184 91 207 72.5 c 128,-1,17
 230 54 230 54 270 54 c 0,18,19
 346 54 346 54 403 118 c 1,20,-1
 403 441 l 1,21,-1
 392 441 l 2,22,23
 363 441 363 441 330 449 c 1,24,25
 329 454 329 454 329 464 c 128,-1,26
 329 474 329 474 335 484 c 1,27,28
 398 492 398 492 469 511 c 1,29,30
 484 509 484 509 503 500 c 1,31,-1
 503 48 l 1,32,33
 525 28 525 28 573 28 c 1,34,35
 574 23 574 23 574 14 c 128,-1,36
 574 5 574 5 568 -7 c 1,37,38
 522 -14 522 -14 488 -14 c 128,-1,39
 454 -14 454 -14 431 -8 c 1,40,41
 415 20 415 20 408 71 c 1,42,-1
 403 71 l 1,43,44
 334 2 334 2 277 -11 c 0,45,46
 256 -16 256 -16 222 -16 c 0,0,1
325 690 m 128,-1,48
 347 708 347 708 364 708 c 128,-1,49
 381 708 381 708 392 701.5 c 128,-1,50
 403 695 403 695 410 686 c 0,51,52
 426 666 426 666 426 645.5 c 128,-1,53
 426 625 426 625 404 606.5 c 128,-1,54
 382 588 382 588 365 588 c 0,55,56
 338 588 338 588 320 610 c 0,57,58
 303 632 303 632 303 652 c 128,-1,47
 303 672 303 672 325 690 c 128,-1,48
156 689.5 m 128,-1,60
 178 708 178 708 195 708 c 128,-1,61
 212 708 212 708 223 701.5 c 128,-1,62
 234 695 234 695 242 686 c 1,63,64
 257 666 257 666 257 645.5 c 128,-1,65
 257 625 257 625 235 606.5 c 128,-1,66
 213 588 213 588 196 588 c 0,67,68
 168 588 168 588 151 609.5 c 128,-1,69
 134 631 134 631 134 651 c 128,-1,59
 134 671 134 671 156 689.5 c 128,-1,60
EndSplineSet
EndChar

StartChar: yacute
Encoding: 253 253 191
Width: 573
Flags: W
LayerCount: 2
Fore
SplineSet
126.5 500 m 128,-1,1
 183 500 183 500 253 505 c 1,2,3
 254 498 254 498 254 489 c 128,-1,4
 254 480 254 480 251 470 c 1,5,6
 204 465 204 465 182 450 c 1,7,-1
 317 92 l 1,8,-1
 320 92 l 1,9,-1
 434 450 l 1,10,11
 421 470 421 470 365 470 c 1,12,13
 364 475 364 475 364 484 c 128,-1,14
 364 493 364 493 370 505 c 1,15,16
 438 500 438 500 472 500 c 128,-1,17
 506 500 506 500 526 502 c 2,18,-1
 574 505 l 1,19,20
 575 498 575 498 575 489 c 128,-1,21
 575 480 575 480 572 470 c 1,22,23
 524 464 524 464 503 450 c 1,24,-1
 319 -87 l 1,25,26
 282 -189 282 -189 245 -225.5 c 128,-1,27
 208 -262 208 -262 150 -262 c 0,28,29
 142 -262 142 -262 135 -262 c 1,30,31
 109 -208 109 -208 98 -134 c 1,32,33
 115 -120 115 -120 136 -120 c 1,34,35
 154 -137 154 -137 166 -160 c 2,36,-1
 188 -203 l 1,37,38
 236 -174 236 -174 275 -40 c 1,39,-1
 74 450 l 1,40,41
 57 463 57 463 -3 470 c 1,42,43
 -4 475 -4 475 -4 484 c 128,-1,44
 -4 493 -4 493 2 505 c 1,45,0
 70 500 70 500 126.5 500 c 128,-1,1
351 757 m 1,46,47
 404 748 404 748 431 717 c 1,48,-1
 370 636 l 1,49,50
 340 598 340 598 307 566 c 1,51,52
 283 571 283 571 271 583 c 1,53,-1
 351 757 l 1,46,47
EndSplineSet
EndChar

StartChar: thorn
Encoding: 254 254 192
Width: 578
Flags: W
LayerCount: 2
Fore
SplineSet
430 250 m 0,0,1
 430 460 430 460 290 460 c 0,2,3
 223 460 223 460 170 392 c 1,4,-1
 170 60 l 1,5,6
 180 49 180 49 208 37 c 128,-1,7
 236 25 236 25 270 25 c 0,8,9
 345 25 345 25 387.5 83 c 128,-1,10
 430 141 430 141 430 250 c 0,0,1
309 510 m 0,11,12
 430 510 430 510 485 434.5 c 128,-1,13
 540 359 540 359 540 271 c 0,14,15
 540 121 540 121 463.5 53 c 128,-1,16
 387 -15 387 -15 260 -15 c 0,17,18
 218 -15 218 -15 170 -3 c 1,19,-1
 170 -200 l 1,20,21
 181 -211 181 -211 219.5 -215 c 128,-1,22
 258 -219 258 -219 267 -220 c 1,23,24
 268 -225 268 -225 268 -234 c 128,-1,25
 268 -243 268 -243 262 -255 c 1,26,27
 192 -250 192 -250 130 -250 c 128,-1,28
 68 -250 68 -250 -2 -255 c 1,29,30
 -3 -248 -3 -248 -3 -239 c 128,-1,31
 -3 -230 -3 -230 0 -220 c 1,32,33
 51 -214 51 -214 70 -200 c 1,34,-1
 70 685 l 1,35,36
 61 685 61 685 38.5 685 c 128,-1,37
 16 685 16 685 -18 693 c 1,38,39
 -19 698 -19 698 -19 708 c 128,-1,40
 -19 718 -19 718 -13 728 c 1,41,42
 72 735 72 735 126 755 c 1,43,44
 144 754 144 754 165 744 c 1,45,-1
 165 455 l 1,46,-1
 170 450 l 1,47,48
 239 510 239 510 309 510 c 0,11,12
EndSplineSet
EndChar

StartChar: ydieresis
Encoding: 255 255 193
Width: 573
Flags: W
LayerCount: 2
Fore
SplineSet
126.5 500 m 128,-1,1
 183 500 183 500 253 505 c 1,2,3
 254 498 254 498 254 489 c 128,-1,4
 254 480 254 480 251 470 c 1,5,6
 204 465 204 465 182 450 c 1,7,-1
 317 92 l 1,8,-1
 320 92 l 1,9,-1
 434 450 l 1,10,11
 421 470 421 470 365 470 c 1,12,13
 364 475 364 475 364 484 c 128,-1,14
 364 493 364 493 370 505 c 1,15,16
 438 500 438 500 472 500 c 128,-1,17
 506 500 506 500 526 502 c 2,18,-1
 574 505 l 1,19,20
 575 498 575 498 575 489 c 128,-1,21
 575 480 575 480 572 470 c 1,22,23
 524 464 524 464 503 450 c 1,24,-1
 319 -87 l 1,25,26
 282 -189 282 -189 245 -225.5 c 128,-1,27
 208 -262 208 -262 150 -262 c 0,28,29
 142 -262 142 -262 135 -262 c 1,30,31
 109 -208 109 -208 98 -134 c 1,32,33
 115 -120 115 -120 136 -120 c 1,34,35
 154 -137 154 -137 166 -160 c 2,36,-1
 188 -203 l 1,37,38
 236 -174 236 -174 275 -40 c 1,39,-1
 74 450 l 1,40,41
 57 463 57 463 -3 470 c 1,42,43
 -4 475 -4 475 -4 484 c 128,-1,44
 -4 493 -4 493 2 505 c 1,45,0
 70 500 70 500 126.5 500 c 128,-1,1
350 689.5 m 128,-1,47
 372 708 372 708 389 708 c 128,-1,48
 406 708 406 708 417 701.5 c 128,-1,49
 428 695 428 695 436 686 c 1,50,51
 451 666 451 666 451 645.5 c 128,-1,52
 451 625 451 625 429 606.5 c 128,-1,53
 407 588 407 588 390 588 c 0,54,55
 362 588 362 588 345 609.5 c 128,-1,56
 328 631 328 631 328 651 c 128,-1,46
 328 671 328 671 350 689.5 c 128,-1,47
181 690 m 128,-1,58
 203 708 203 708 220 708 c 128,-1,59
 237 708 237 708 248 701.5 c 128,-1,60
 259 695 259 695 266 686 c 0,61,62
 282 666 282 666 282 645.5 c 128,-1,63
 282 625 282 625 260 606.5 c 128,-1,64
 238 588 238 588 221 588 c 0,65,66
 194 588 194 588 176 610 c 0,67,68
 159 632 159 632 159 652 c 128,-1,57
 159 672 159 672 181 690 c 128,-1,58
EndSplineSet
EndChar

StartChar: dotlessi
Encoding: 305 305 194
Width: 290
Flags: W
LayerCount: 2
Fore
SplineSet
267 -5 m 1,0,1
 210 -1 210 -1 151.5 -1 c 128,-1,2
 93 -1 93 -1 33 -5 c 1,3,4
 32 2 32 2 32 11 c 128,-1,5
 32 20 32 20 35 30 c 1,6,7
 86 36 86 36 104 50 c 1,8,-1
 104 440 l 1,9,-1
 89 440 l 2,10,11
 55 440 55 440 21 448 c 1,12,13
 20 453 20 453 20 463 c 128,-1,14
 20 473 20 473 26 483 c 1,15,16
 115 494 115 494 164 510 c 1,17,18
 183 509 183 509 204 499 c 1,19,-1
 204 50 l 1,20,21
 220 35 220 35 272 30 c 1,22,23
 273 25 273 25 273 16 c 128,-1,24
 273 7 273 7 267 -5 c 1,0,1
EndSplineSet
EndChar

StartChar: OE
Encoding: 338 338 195
Width: 1061
Flags: W
LayerCount: 2
Fore
SplineSet
525.5 579.5 m 128,-1,1
 467 674 467 674 364.5 674 c 128,-1,2
 262 674 262 674 210.5 579 c 128,-1,3
 159 484 159 484 159 348 c 128,-1,4
 159 212 159 212 216.5 119 c 128,-1,5
 274 26 274 26 378 26 c 128,-1,6
 482 26 482 26 533 121 c 128,-1,7
 584 216 584 216 584 350.5 c 128,-1,0
 584 485 584 485 525.5 579.5 c 128,-1,1
602 74 m 1,8,9
 512 -20 512 -20 366.5 -20 c 128,-1,10
 221 -20 221 -20 132.5 82 c 128,-1,11
 44 184 44 184 44 348.5 c 128,-1,12
 44 513 44 513 132.5 616.5 c 128,-1,13
 221 720 221 720 365.5 720 c 128,-1,14
 510 720 510 720 602 624 c 1,15,-1
 602 700 l 1,16,-1
 1008 700 l 1,17,18
 1011 679 1011 679 1011 639.5 c 128,-1,19
 1011 600 1011 600 997 525 c 1,20,21
 987 521 987 521 977.5 521 c 128,-1,22
 968 521 968 521 961 522 c 1,23,24
 938 601 938 601 935 655 c 1,25,-1
 698 655 l 1,26,-1
 698 385 l 1,27,-1
 844 385 l 1,28,29
 856 408 856 408 863 473 c 1,30,31
 872 476 872 476 882.5 476 c 128,-1,32
 893 476 893 476 903 468 c 1,33,34
 899 422 899 422 899 355.5 c 128,-1,35
 899 289 899 289 903 243 c 1,36,37
 894 239 894 239 883 239 c 128,-1,38
 872 239 872 239 863 241 c 1,39,40
 856 307 856 307 844 330 c 1,41,-1
 698 330 l 1,42,-1
 698 45 l 1,43,-1
 940 45 l 1,44,45
 946 113 946 113 969 178 c 1,46,47
 976 179 976 179 985 179 c 128,-1,48
 994 179 994 179 1004 175 c 1,49,50
 1018 108 1018 108 1018 65 c 128,-1,51
 1018 22 1018 22 1016 0 c 1,52,-1
 602 0 l 1,53,-1
 602 74 l 1,8,9
EndSplineSet
EndChar

StartChar: oe
Encoding: 339 339 196
Width: 884
Flags: W
LayerCount: 2
Fore
SplineSet
662.5 480 m 128,-1,1
 608 480 608 480 574 436.5 c 128,-1,2
 540 393 540 393 532 311 c 1,3,-1
 755 323 l 1,4,5
 755 401 755 401 736 440.5 c 128,-1,0
 717 480 717 480 662.5 480 c 128,-1,1
435 214 m 0,6,7
 435 474 435 474 291 474 c 128,-1,8
 147 474 147 474 147 239 c 0,9,10
 147 93 147 93 226 44 c 0,11,12
 254 26 254 26 294 26 c 0,13,14
 369 26 369 26 402 84 c 128,-1,15
 435 142 435 142 435 214 c 0,6,7
478 59 m 1,16,17
 405 -20 405 -20 292.5 -20 c 128,-1,18
 180 -20 180 -20 108 56 c 128,-1,19
 36 132 36 132 36 249 c 128,-1,20
 36 366 36 366 109 443 c 128,-1,21
 182 520 182 520 280 520 c 128,-1,22
 378 520 378 520 445 468 c 0,23,24
 462 455 462 455 477 424 c 1,25,26
 502 473 502 473 554 496.5 c 128,-1,27
 606 520 606 520 659 520 c 0,28,29
 756 520 756 520 802.5 461 c 128,-1,30
 849 402 849 402 849 304 c 2,31,-1
 849 291 l 2,32,33
 849 285 849 285 848 278 c 1,34,-1
 834 267 l 1,35,-1
 527 270 l 1,36,-1
 527 250 l 2,37,38
 527 148 527 148 565 91.5 c 128,-1,39
 603 35 603 35 671 35 c 128,-1,40
 739 35 739 35 768 50.5 c 128,-1,41
 797 66 797 66 817 80 c 1,42,43
 833 73 833 73 835 56 c 1,44,45
 774 -20 774 -20 661.5 -20 c 128,-1,46
 549 -20 549 -20 478 59 c 1,16,17
EndSplineSet
EndChar

StartChar: circumflex
Encoding: 710 710 197
Width: 282
Flags: W
LayerCount: 2
Fore
SplineSet
126 684 m 1,0,1
 80 596 80 596 47 556 c 1,2,-1
 -2 579 l 1,3,-1
 50 660 l 2,4,5
 78 704 78 704 101 753 c 1,6,7
 113 755 113 755 128.5 755 c 128,-1,8
 144 755 144 755 162 751 c 1,9,10
 184 707 184 707 208 667 c 2,11,-1
 255 588 l 1,12,-1
 192 559 l 1,13,-1
 166 604 l 2,14,15
 148 636 148 636 126 684 c 1,0,1
EndSplineSet
EndChar

StartChar: caron
Encoding: 711 711 198
Width: 235
Flags: W
LayerCount: 2
Fore
SplineSet
61 757 m 1,0,-1
 74 735 l 2,1,2
 80 724 80 724 88 710 c 1,3,-1
 129 626 l 1,4,5
 147 660 147 660 163 695 c 128,-1,6
 179 730 179 730 200 756 c 1,7,-1
 248 732 l 1,8,9
 200 652 200 652 162 559 c 1,10,11
 138 556 138 556 123.5 556 c 128,-1,12
 109 556 109 556 101 558 c 1,13,14
 78 602 78 602 50 646 c 2,15,-1
 -2 728 l 1,16,-1
 61 757 l 1,0,-1
EndSplineSet
EndChar

StartChar: ring
Encoding: 730 730 199
Width: 255
Flags: W
LayerCount: 2
Fore
SplineSet
24 663.5 m 128,-1,1
 24 697 24 697 62 727.5 c 128,-1,2
 100 758 100 758 129 758 c 0,3,4
 177 758 177 758 206 722.5 c 128,-1,5
 235 687 235 687 235 661 c 0,6,7
 235 620 235 620 199 589.5 c 128,-1,8
 163 559 163 559 134 559 c 0,9,10
 86 559 86 559 55 594.5 c 128,-1,0
 24 630 24 630 24 663.5 c 128,-1,1
82 663 m 128,-1,12
 82 648 82 648 96 631.5 c 128,-1,13
 110 615 110 615 128 615 c 128,-1,14
 146 615 146 615 162 628.5 c 128,-1,15
 178 642 178 642 178 656.5 c 128,-1,16
 178 671 178 671 166 687.5 c 128,-1,17
 154 704 154 704 135.5 704 c 128,-1,18
 117 704 117 704 99.5 691 c 128,-1,11
 82 678 82 678 82 663 c 128,-1,12
EndSplineSet
EndChar

